<svg width="21" height="15" viewBox="0 0 21 15" fill="none" xmlns="http://www.w3.org/2000/svg">
<path d="M3.16667 1.58333V0H0V14.25H3.16667V12.6667H1.58333V1.58333H3.16667ZM17.4167 12.6667V14.25H20.5833V0H17.4167V1.58333H19V12.6667H17.4167ZM10.2125 11.875L9.5 11.4792L9.6425 11.1467C9.82976 10.7692 9.93498 10.3564 9.95125 9.93542V8.70833H11.0833V9.76917C11.0812 10.1646 10.9976 10.5553 10.8379 10.9171C10.6981 11.2763 10.4852 11.6025 10.2125 11.875Z" fill="white"/>
<path d="M15.0423 6.33333V7.91667H13.459V6.33333H15.0423ZM16.6257 4.75H11.8757V9.5H16.6257V4.75ZM7.12565 6.33333V7.91667H5.54232V6.33333H7.12565ZM8.70898 4.75H3.95898V9.5H8.70898V4.75Z" fill="white"/>
</svg>
