<svg width="29" height="15" viewBox="0 0 29 15" fill="none" xmlns="http://www.w3.org/2000/svg">
<path d="M3.16667 1.58333V0H0V14.25H3.16667V12.6667H1.58333V1.58333H3.16667ZM25.3333 12.6667V14.25H28.5V0H25.3333V1.58333H26.9167V12.6667H25.3333ZM10.2125 11.875L9.5 11.4792L9.6425 11.1467C9.82976 10.7692 9.93498 10.3564 9.95125 9.93542V8.70833H11.0833V9.76917C11.0812 10.1646 10.9976 10.5553 10.8379 10.9171C10.6981 11.2763 10.4852 11.6025 10.2125 11.875ZM18.1292 11.875L17.4167 11.4792L17.5592 11.1467C17.7464 10.7692 17.8516 10.3564 17.8679 9.93542V8.70833H19V9.76917C18.9978 10.1646 18.9143 10.5553 18.7546 10.9171C18.6148 11.2763 18.4018 11.6025 18.1292 11.875Z" fill="white"/>
<path d="M15.0413 6.33333V7.91667H13.458V6.33333H15.0413ZM16.6247 4.75H11.8747V9.5H16.6247V4.75ZM22.958 6.33333V7.91667H21.3747V6.33333H22.958ZM24.5413 4.75H19.7913V9.5H24.5413V4.75ZM7.12467 6.33333V7.91667H5.54134V6.33333H7.12467ZM8.70801 4.75H3.95801V9.5H8.70801V4.75Z" fill="white"/>
</svg>
