<svg width="29" height="15" viewBox="0 0 29 15" fill="none" xmlns="http://www.w3.org/2000/svg">
<path d="M3.16667 1.58333V0H0V14.25H3.16667V12.6667H1.58333V1.58333H3.16667ZM7.66333 11.0833L7.125 10.7904L7.23583 10.5371C7.37218 10.2519 7.45024 9.94239 7.46542 9.62667V8.70833H8.3125V9.5C8.28964 10.0878 8.0597 10.6486 7.66333 11.0833ZM13.9967 11.0833L13.4583 10.7904L13.5692 10.5371C13.7055 10.2519 13.7836 9.94239 13.7988 9.62667V8.70833H14.6458V9.5C14.623 10.0878 14.393 10.6486 13.9967 11.0833ZM20.33 11.0833L19.7917 10.7904L19.9025 10.5371C20.0388 10.2519 20.1169 9.94239 20.1321 9.62667V8.70833H20.9792V9.5C20.9563 10.0878 20.7264 10.6486 20.33 11.0833ZM25.3333 12.6667V14.25H28.5V0H25.3333V1.58333H26.9167V12.6667H25.3333Z" fill="white"/>
<path d="M5.54167 6.33333V7.91667H3.95833V6.33333H5.54167ZM7.125 4.75H2.375V9.5H7.125V4.75ZM24.5417 6.33333V7.91667H22.9583V6.33333H24.5417ZM26.125 4.75H21.375V9.5H26.125V4.75ZM18.2083 6.33333V7.91667H16.625V6.33333H18.2083ZM19.7917 4.75H15.0417V9.5H19.7917V4.75ZM11.875 6.33333V7.91667H10.2917V6.33333H11.875ZM13.4583 4.75H8.70833V9.5H13.4583V4.75Z" fill="white"/>
</svg>
