<svg width="21" height="15" viewBox="0 0 21 15" fill="none" xmlns="http://www.w3.org/2000/svg">
<path d="M19.1664 1.38542C19.6419 2.07104 20.0004 2.8308 20.2272 3.63375C20.4684 4.49699 20.5882 5.38957 20.5835 6.28583V6.33333H19.301V5.87417C19.2897 4.83676 19.1024 3.8088 18.7468 2.83417C18.4914 2.0659 18.0317 1.38169 17.4168 0.855L17.6939 0C18.2899 0.335397 18.7953 0.810903 19.1664 1.38542ZM20.5835 6.33333H19.301V7.91667H20.5835V6.33333ZM19.1664 12.8646C19.6419 12.179 20.0004 11.4192 20.2272 10.6163C20.4684 9.75301 20.5882 8.86044 20.5835 7.96417V7.91667H19.301V8.37583C19.2897 9.41324 19.1024 10.4412 18.7468 11.4158C18.4914 12.1841 18.0317 12.8683 17.4168 13.395L17.6939 14.25C18.2899 13.9146 18.7953 13.4391 19.1664 12.8646ZM1.41722 1.38542C0.941717 2.07104 0.58324 2.8308 0.356387 3.63375C0.115257 4.49699 -0.00464116 5.38957 0.000137386 6.28583V6.33333H1.28264V5.87417C1.29386 4.83676 1.48125 3.8088 1.8368 2.83417C2.09216 2.0659 2.55195 1.38169 3.1668 0.855L2.88972 0C2.29368 0.335397 1.78829 0.810903 1.41722 1.38542ZM1.28264 6.33333H0.000137386V7.91667H1.28264V6.33333ZM1.41722 12.8646C0.941717 12.179 0.58324 11.4192 0.356387 10.6163C0.115257 9.75301 -0.00464116 8.86044 0.000137386 7.96417V7.91667H1.28264V8.37583C1.29386 9.41324 1.48125 10.4412 1.8368 11.4158C2.09216 12.1841 2.55195 12.8683 3.1668 13.395L2.88972 14.25C2.29368 13.9146 1.78829 13.4391 1.41722 12.8646Z" fill="white"/>
<path d="M7.91667 3.16732V4.75065H6.33333V3.16732H7.91667ZM9.5 1.58398H4.75V6.33398H9.5V1.58398ZM7.91667 9.50065V11.084H6.33333V9.50065H7.91667ZM9.5 7.91732H4.75V12.6673H9.5V7.91732ZM14.25 9.50065V11.084H12.6667V9.50065H14.25ZM15.8333 7.91732H11.0833V12.6673H15.8333V7.91732ZM14.25 3.16732V4.75065H12.6667V3.16732H14.25ZM15.8333 1.58398H11.0833V6.33398H15.8333V1.58398Z" fill="white"/>
</svg>
