<svg width="18" height="29" viewBox="0 0 18 29" fill="none" xmlns="http://www.w3.org/2000/svg">
<path d="M3.16667 1.58333V0H0V27.7083H3.16667V26.125H1.58333V1.58333H3.16667ZM14.25 26.9167V28.5H17.4167V0H14.25V1.58333H15.8333V26.9167H14.25ZM9.5 22.9583V24.5417H7.91667V22.9583H9.5ZM11.0833 21.375H6.33333V26.125H11.0833V21.375ZM9.5 16.625V18.2083H7.91667V16.625H9.5ZM11.0833 15.0417H6.33333V19.7917H11.0833V15.0417ZM9.5 10.2917V11.875H7.91667V10.2917H9.5ZM11.0833 8.70833H6.33333V13.4583H11.0833V8.70833ZM9.5 3.95833V5.54167H7.91667V3.95833H9.5ZM11.0833 2.375H6.33333V7.125H11.0833V2.375Z" fill="white"/>
</svg>
