<svg width="8" height="8" viewBox="0 0 8 8" fill="none" xmlns="http://www.w3.org/2000/svg">
<path d="M4.8925 4.31458C5.46954 4.02965 5.95706 3.59143 6.30167 3.04792C6.66448 2.43524 6.84824 1.73311 6.83208 1.02125V0.0158337H5.24875V1.21125C5.24558 1.47933 5.20563 1.74571 5.13 2.00292C5.05456 2.25725 4.92492 2.49222 4.75 2.69167C4.57537 2.88689 4.36599 3.04796 4.1325 3.16667L1.92375 0H0L1.78917 2.59667C1.30612 2.94695 0.921646 3.41596 0.672917 3.95833C0.542436 4.25712 0.44937 4.57089 0.395833 4.8925C0.332878 5.21327 0.301063 5.53936 0.300833 5.86625V7.53667H1.82875V5.95333C1.82853 5.71767 1.8444 5.48226 1.87625 5.24875C1.88778 5.01894 1.92225 4.79086 1.97917 4.56792C2.04737 4.36958 2.14047 4.18071 2.25625 4.00583C2.33405 3.88598 2.43022 3.77911 2.54125 3.68917L5.14583 7.53667H7.125L4.8925 4.31458Z" fill="white"/>
</svg>
