<svg width="7" height="8" viewBox="0 0 7 8" fill="none" xmlns="http://www.w3.org/2000/svg">
<path fill-rule="evenodd" clip-rule="evenodd" d="M5.15417 0.434268L4.86917 1.27343C4.70982 0.974228 4.46806 0.726965 4.17251 0.560935C3.87184 0.402432 3.53854 0.315722 3.19875 0.307601C2.62436 0.278744 2.05983 0.465039 1.61542 0.830101C1.40491 1.00227 1.21851 1.20198 1.06125 1.42385C0.903794 1.65322 0.768596 1.89711 0.657505 2.15218C0.540753 2.40773 0.445425 2.67253 0.372504 2.94385C0.307287 3.20465 0.257067 3.46897 0.222089 3.73552V3.86218C0.182481 4.21733 0.182481 4.57579 0.222089 4.93093C0.262071 5.29485 0.366624 5.64872 0.530838 5.97593C0.685739 6.26507 0.908505 6.51228 1.18 6.69635C1.48754 6.89873 1.84899 7.00358 2.21709 6.99719C2.60241 7.01202 2.9848 6.92462 3.32542 6.74385C3.65915 6.54491 3.95199 6.28431 4.18834 5.97593C4.20665 6.22603 4.29743 6.46536 4.44959 6.66469C4.5348 6.7571 4.63918 6.82977 4.75541 6.87763C4.87164 6.92549 4.99693 6.94738 5.1225 6.94177C5.36237 6.94895 5.59908 6.88565 5.80334 6.75968L5.74792 5.96802H5.645C5.60933 5.98002 5.57119 5.98275 5.53417 5.97593C5.4949 5.97867 5.45565 5.9705 5.42072 5.95234C5.3858 5.93418 5.35657 5.90673 5.33625 5.87302C5.2901 5.80187 5.26286 5.72013 5.25709 5.63552C5.24129 5.54117 5.24129 5.44486 5.25709 5.35052V5.12093L6.04875 0.450102L5.15417 0.434268ZM1.33042 3.79885C1.35067 3.60136 1.38506 3.40558 1.43334 3.21302C1.48088 3.01131 1.54171 2.81296 1.61542 2.61927C1.69286 2.42603 1.78828 2.24049 1.90042 2.0651C2.00063 1.89426 2.12913 1.74167 2.28042 1.61385C2.42376 1.47975 2.59369 1.37726 2.77917 1.31302C3.12943 1.18533 3.5135 1.18533 3.86375 1.31302C3.99523 1.36772 4.11588 1.44547 4.22 1.5426C4.31949 1.64887 4.40709 1.76567 4.48125 1.89093C4.55472 2.02765 4.61566 2.17073 4.66334 2.31843L4.20417 4.97052C4.11496 5.12687 4.00876 5.27289 3.8875 5.40594C3.77669 5.54054 3.64897 5.66027 3.50751 5.76218C3.37333 5.86447 3.22366 5.94464 3.06417 5.99969C2.89167 6.0612 2.70874 6.0881 2.52584 6.07885C2.35158 6.08068 2.17891 6.0456 2.01917 5.97593C1.88225 5.91681 1.76047 5.8275 1.66292 5.71468C1.56272 5.60392 1.48477 5.47491 1.43334 5.33469C1.37813 5.19154 1.33832 5.04292 1.31459 4.89135C1.30278 4.72795 1.30278 4.56392 1.31459 4.40052C1.3028 4.23976 1.3028 4.07836 1.31459 3.9176L1.33042 3.79885Z" fill="white"/>
<path d="M2.27285 7.16458H2.20952C1.79967 7.17178 1.39707 7.05596 1.05369 6.83208C0.756318 6.63127 0.514067 6.35907 0.349105 6.04042C0.177677 5.71272 0.0702064 5.35539 0.0324371 4.9875C-0.0108124 4.61932 -0.0108124 4.24735 0.0324371 3.87917V3.74458C0.0709959 3.46178 0.126513 3.18156 0.198688 2.90542C0.269849 2.62072 0.365196 2.34263 0.483688 2.07417C0.597232 1.79409 0.743377 1.52837 0.919104 1.2825C1.08022 1.04218 1.27788 0.828491 1.50494 0.649166C1.98188 0.254483 2.58858 0.0513086 3.20702 0.0791655C3.57977 0.0885953 3.94539 0.183386 4.27577 0.356249C4.47464 0.472213 4.6537 0.619205 4.80619 0.791667L5.05952 0L5.2416 0.182083H6.32619L5.47119 5.31208C5.46325 5.39105 5.46325 5.47061 5.47119 5.54958C5.47737 5.60227 5.49349 5.65331 5.51869 5.7L5.64535 5.90583V5.70792H5.7166L5.96202 5.64458L6.0491 6.84L5.93827 6.91125C5.69697 7.04802 5.42397 7.119 5.1466 7.11708C4.99766 7.11739 4.85029 7.08656 4.71396 7.02658C4.57763 6.96659 4.45534 6.87877 4.35494 6.76875C4.26523 6.65051 4.19322 6.51983 4.14119 6.38083C3.94805 6.56525 3.73263 6.72482 3.49994 6.85583C3.12636 7.06782 2.70228 7.17452 2.27285 7.16458ZM3.11202 0.506666C2.62429 0.504035 2.15099 0.672069 1.7741 0.981667C1.57859 1.14257 1.40552 1.32895 1.25952 1.53583C1.10574 1.75355 0.975692 1.98711 0.871605 2.2325C0.76075 2.48872 0.670736 2.75347 0.602438 3.02417C0.53529 3.28454 0.485046 3.54898 0.452021 3.81583V3.95042C0.416425 4.28726 0.416425 4.62691 0.452021 4.96375C0.488734 5.28145 0.582606 5.58988 0.729105 5.87417C0.864312 6.13342 1.06317 6.35407 1.30702 6.51542C1.57713 6.69888 1.89913 6.79048 2.22535 6.77667C2.57494 6.80242 2.92442 6.72536 3.23077 6.555C3.53346 6.3808 3.80175 6.15275 4.02244 5.88208L4.34702 5.47833L4.39452 5.99292C4.40076 6.20373 4.47583 6.4067 4.60827 6.57083C4.67426 6.63957 4.75458 6.69293 4.84351 6.72713C4.93244 6.76134 5.02781 6.77555 5.12285 6.76875C5.27797 6.76627 5.43116 6.73402 5.5741 6.67375V6.19875C5.50294 6.19802 5.43309 6.17954 5.37088 6.14498C5.30867 6.11041 5.25607 6.06087 5.21785 6.00083C5.15653 5.89967 5.11866 5.78606 5.10702 5.66833C5.0991 5.56293 5.0991 5.45707 5.10702 5.35167V5.11417L5.85119 0.672915H5.32869L4.94077 1.82875L4.71119 1.40125C4.5685 1.13868 4.35442 0.921855 4.09369 0.775833C3.80939 0.610147 3.48839 0.517657 3.15952 0.506666H3.11202ZM2.57369 6.28583H2.51827C2.31655 6.2827 2.11744 6.23965 1.93244 6.15917C1.76972 6.08405 1.62421 5.97626 1.50494 5.8425C1.39219 5.71292 1.30128 5.56586 1.23577 5.40708C1.17506 5.24609 1.13257 5.07879 1.1091 4.90833C1.0805 4.73834 1.06726 4.56612 1.06952 4.39375C1.07058 4.22413 1.08381 4.05481 1.1091 3.88708V3.76042C1.1091 3.57042 1.17244 3.3725 1.21994 3.15875C1.27142 2.94597 1.33755 2.73699 1.41785 2.53333C1.49789 2.32974 1.59592 2.13369 1.71077 1.9475C1.82705 1.76276 1.96824 1.59493 2.13036 1.44875C2.29498 1.3014 2.48559 1.18596 2.69244 1.10833C2.92069 1.02625 3.16254 0.988624 3.40494 0.997499C3.59033 1.00226 3.77308 1.04258 3.94327 1.11625C4.09648 1.1823 4.23608 1.27625 4.35494 1.39333C4.47477 1.50621 4.57627 1.63709 4.65577 1.78125C4.73643 1.9303 4.8027 2.08671 4.85369 2.24833V2.34333L4.37077 5.07458C4.27165 5.23579 4.1605 5.38928 4.03827 5.53375C3.9162 5.68106 3.7751 5.8115 3.61869 5.92167C3.46772 6.0372 3.29938 6.12806 3.11994 6.19083C2.94438 6.25257 2.75978 6.28467 2.57369 6.28583ZM2.52619 5.86625C2.68515 5.87538 2.84426 5.85111 2.99327 5.795C3.13427 5.74542 3.26754 5.67612 3.38911 5.58917C3.51569 5.49562 3.63005 5.38657 3.72952 5.26458C3.83127 5.14783 3.92391 5.02344 4.0066 4.8925L4.44202 2.3275C4.40762 2.20898 4.35981 2.09477 4.29952 1.98708C4.23655 1.87715 4.15936 1.776 4.06994 1.68625C3.98511 1.60507 3.88573 1.54061 3.77702 1.49625C3.6562 1.44706 3.52744 1.42023 3.39702 1.41708C3.21142 1.40545 3.02543 1.4324 2.85077 1.49625C2.69446 1.55841 2.54989 1.64676 2.42327 1.7575C2.28658 1.8759 2.16908 2.01477 2.07494 2.16917C1.9738 2.33319 1.88642 2.50531 1.81369 2.68375C1.74139 2.8691 1.68317 3.05964 1.63952 3.25375C1.59518 3.43647 1.56082 3.62146 1.53661 3.80792V4.40167C1.52537 4.55187 1.52537 4.70271 1.53661 4.85292C1.55869 4.99114 1.59585 5.12654 1.64744 5.25667C1.69054 5.37074 1.75503 5.47553 1.83744 5.56542C1.91496 5.65739 2.01243 5.73049 2.12244 5.77917C2.25223 5.82712 2.38817 5.85644 2.52619 5.86625Z" fill="white"/>
</svg>
