<svg width="8" height="12" viewBox="0 0 8 12" fill="none" xmlns="http://www.w3.org/2000/svg">
<path d="M4.655 2.96111L4.6075 2.82653H3.36458L0 11.8753H1.58333L2.375 9.65069H5.54167L6.33333 11.8753H7.91667L4.655 2.96111ZM5.0825 8.25736H2.85792L3.98208 5.09069L5.0825 8.25736ZM3.95833 2.77111C4.31782 2.77692 4.66501 2.64032 4.92417 2.39111C5.05764 2.26578 5.16272 2.11333 5.23237 1.94401C5.30201 1.77468 5.33459 1.59241 5.32792 1.40944C5.33862 1.22271 5.30957 1.03583 5.2427 0.861146C5.17583 0.686467 5.07266 0.527964 4.94 0.396109C4.68828 0.143515 4.3466 0.00114913 3.99 0.00027555C3.80576 -0.00339938 3.62265 0.0297165 3.45137 0.0976846C3.28009 0.165653 3.12409 0.267107 2.9925 0.396109C2.8596 0.522272 2.75437 0.674688 2.6835 0.84368C2.61263 1.01267 2.57767 1.19455 2.58083 1.37778C2.57357 1.56154 2.60667 1.74467 2.67779 1.91427C2.74891 2.08387 2.85634 2.23582 2.9925 2.35944C3.24748 2.61878 3.59467 2.76677 3.95833 2.77111ZM3.5625 1.40944C3.55987 1.35256 3.56906 1.29576 3.5895 1.24262C3.60994 1.18947 3.64118 1.14114 3.68125 1.10069C3.71599 1.06429 3.75776 1.03531 3.80403 1.01551C3.85029 0.995713 3.90009 0.985504 3.95042 0.985504C4.00074 0.985504 4.05054 0.995713 4.09681 1.01551C4.14307 1.03531 4.18484 1.06429 4.21958 1.10069C4.25748 1.14232 4.28677 1.19103 4.30579 1.24401C4.32481 1.297 4.33318 1.35322 4.33042 1.40944C4.33394 1.46454 4.32591 1.51977 4.30682 1.57158C4.28773 1.62339 4.25802 1.67063 4.21958 1.71028C4.15056 1.78028 4.05664 1.82013 3.95833 1.82111C3.90656 1.82081 3.85537 1.81015 3.80778 1.78975C3.7602 1.76936 3.71717 1.73964 3.68125 1.70236C3.64102 1.65932 3.61091 1.60785 3.59311 1.5517C3.5753 1.49555 3.57025 1.43613 3.57833 1.37778L3.5625 1.40944Z" fill="white"/>
</svg>
