<svg width="26" height="10" viewBox="0 0 26 10" fill="none" xmlns="http://www.w3.org/2000/svg">
<path d="M15.493 2.85792H13.9096V2.06625H15.493V2.85792ZM17.765 3.99H16.8625V1.14792L15.7859 1.49625V0.704584L17.6621 0H17.765V3.99ZM3.15879 8.39958C3.15884 8.31221 3.13439 8.22657 3.08821 8.1524C3.04203 8.07823 2.97597 8.0185 2.89754 7.98C2.62704 7.8377 2.33584 7.73885 2.03462 7.68708C0.744203 7.41792 0.0950367 6.89542 0.0950367 6.04042C0.0925416 5.80535 0.145763 5.57304 0.250342 5.3625C0.354922 5.15197 0.507885 4.9692 0.696704 4.82917C1.15141 4.48727 1.71193 4.31631 2.28004 4.34625C2.87422 4.3133 3.46153 4.48669 3.94254 4.83708C4.13909 4.98361 4.29771 5.17505 4.40513 5.39542C4.51256 5.61578 4.56568 5.85866 4.56004 6.10375H3.10337C3.10684 6.00787 3.09111 5.91226 3.05713 5.82253C3.02314 5.73281 2.97157 5.65077 2.90545 5.58125C2.8196 5.50834 2.72007 5.45328 2.61268 5.41929C2.50529 5.38531 2.39221 5.37308 2.28004 5.38333C2.07643 5.37027 1.87469 5.4291 1.71004 5.54958C1.64602 5.59871 1.59466 5.66241 1.56023 5.73539C1.52581 5.80837 1.50931 5.88852 1.51212 5.96917C1.51142 6.04766 1.53157 6.12493 1.57051 6.19309C1.60946 6.26124 1.6658 6.31784 1.73379 6.35708C1.98103 6.48825 2.2487 6.57658 2.52545 6.61833C2.83428 6.67532 3.13856 6.7547 3.43587 6.85583C3.76457 6.93552 4.05707 7.1231 4.2666 7.38861C4.47613 7.65411 4.5906 7.98219 4.5917 8.32042C4.59463 8.55873 4.53741 8.79394 4.42532 9.00428C4.31324 9.21461 4.14991 9.39328 3.95045 9.52375C3.4646 9.84855 2.8876 10.0094 2.30379 9.98292C1.88673 9.99307 1.47275 9.90919 1.09254 9.7375C0.773553 9.59121 0.500024 9.36144 0.30087 9.0725C0.103365 8.80726 -0.00225274 8.48485 3.64419e-05 8.15417H1.3142C1.31728 8.26841 1.34505 8.38064 1.39561 8.48313C1.44618 8.58563 1.51833 8.67596 1.60712 8.74792C1.81504 8.89402 2.06582 8.96647 2.31962 8.95375C2.53952 8.96771 2.75827 8.91233 2.94504 8.79542C3.00964 8.75125 3.06275 8.69229 3.09993 8.62343C3.13711 8.55457 3.15729 8.47782 3.15879 8.39958ZM5.50212 3.04C5.49856 2.94036 5.51572 2.84107 5.55251 2.7484C5.5893 2.65574 5.64493 2.57172 5.71587 2.50167C5.79489 2.42723 5.88838 2.36984 5.99053 2.33307C6.09267 2.2963 6.20128 2.28093 6.30962 2.28792C6.41796 2.28093 6.52657 2.2963 6.62871 2.33307C6.73086 2.36984 6.82435 2.42723 6.90337 2.50167C6.97696 2.5701 7.03487 2.65365 7.07313 2.74657C7.1114 2.83949 7.1291 2.93959 7.12504 3.04C7.12921 3.14159 7.11158 3.24291 7.07335 3.33712C7.03511 3.43134 6.97716 3.51629 6.90337 3.58625C6.73836 3.72705 6.52637 3.80054 6.30962 3.79208C6.09521 3.8009 5.88556 3.72724 5.72379 3.58625C5.65 3.51629 5.59204 3.43134 5.55381 3.33712C5.51558 3.24291 5.49795 3.14159 5.50212 3.04ZM7.03795 9.88792H5.58129V4.44125H7.03795V9.88792ZM9.57129 4.44125L9.61879 5.06667C9.80588 4.82823 10.0471 4.6378 10.3224 4.51115C10.5978 4.38449 10.8993 4.32525 11.2021 4.33833C11.4416 4.31938 11.6822 4.35515 11.9057 4.44293C12.1293 4.53071 12.33 4.6682 12.4925 4.845C12.807 5.28706 12.9607 5.82347 12.928 6.365V9.88H11.4475V6.39667C11.4698 6.15533 11.399 5.9146 11.2496 5.72375C11.0611 5.56929 10.8194 5.49533 10.5767 5.51792C10.3902 5.51121 10.2056 5.55653 10.0434 5.64881C9.88118 5.74109 9.74788 5.87668 9.65837 6.04042V9.88H8.20962V4.44125H9.57129Z" fill="white"/>
<path d="M24.2012 5.23372V8.40039H21.0345V5.23372H24.2012ZM25.7845 3.65039H19.4512V9.98372H25.7845V3.65039Z" fill="white"/>
</svg>
