<svg width="8" height="12" viewBox="0 0 8 12" fill="none" xmlns="http://www.w3.org/2000/svg">
<path d="M6.95083 3.2305C7.03812 3.01804 7.09411 2.79404 7.11708 2.5655C7.14923 2.21532 7.10881 1.86227 6.99833 1.52842C6.89199 1.23306 6.72477 0.96334 6.5075 0.736753C6.28289 0.505431 6.01353 0.322267 5.71583 0.198421C5.39779 0.0735105 5.05997 0.00648318 4.71833 0.000504277C4.33834 -0.00627786 3.96022 0.0553998 3.60208 0.182587C2.89608 0.439197 2.30226 0.934982 1.92375 1.58384C1.7346 1.91397 1.60843 2.27637 1.55167 2.65259L0 11.8438H1.52L1.97917 9.168C2.16333 9.28735 2.36315 9.3806 2.57292 9.44509C2.88636 9.54071 3.21118 9.59396 3.53875 9.60342C3.95671 9.61711 4.37337 9.54991 4.76583 9.4055C5.52055 9.12406 6.13272 8.5546 6.46792 7.82217C6.75992 7.2287 6.87009 6.5622 6.78458 5.90634C6.75137 5.67112 6.68473 5.44186 6.58667 5.2255C6.48351 5.01465 6.35017 4.81996 6.19083 4.64759C6.10331 4.55747 6.00794 4.47534 5.90583 4.40217L6.15125 4.228C6.50018 3.9709 6.77583 3.62703 6.95083 3.2305ZM4.63917 1.30675C4.79293 1.30615 4.94473 1.34139 5.0825 1.40967C5.20603 1.46152 5.31286 1.54644 5.39125 1.65509C5.47973 1.76347 5.54204 1.8908 5.57333 2.02717C5.60201 2.18421 5.60201 2.34514 5.57333 2.50217C5.5582 2.69563 5.50436 2.88408 5.415 3.05634C5.33256 3.20974 5.21937 3.34449 5.0825 3.45217C4.94876 3.56588 4.79218 3.64957 4.62333 3.69759C4.43715 3.7605 4.24194 3.79259 4.04542 3.79259H3.43583L3.23 5.11467H4.35417C4.5166 5.11701 4.67534 5.16353 4.81333 5.24925C4.93701 5.33314 5.0399 5.44415 5.11417 5.57384C5.19455 5.72229 5.25068 5.88265 5.28042 6.04884C5.3655 6.46708 5.31847 6.90142 5.14583 7.29175C5.05203 7.48967 4.92023 7.6672 4.75792 7.81425C4.42168 8.11087 3.98708 8.27173 3.53875 8.2655C3.26755 8.26781 2.99854 8.2167 2.74708 8.11509C2.53778 8.02961 2.35479 7.89032 2.21667 7.71134L3.06375 2.68425C3.10481 2.39907 3.22105 2.12996 3.40053 1.90457C3.58001 1.67918 3.81625 1.50563 4.085 1.40175C4.26057 1.32999 4.44972 1.29756 4.63917 1.30675Z" fill="white"/>
</svg>
