<svg width="8" height="10" viewBox="0 0 8 10" fill="none" xmlns="http://www.w3.org/2000/svg">
<path d="M6.43715 0.00791685L5.88298 3.4675C5.83701 3.77182 5.75461 4.06952 5.63756 4.35417C5.521 4.60972 5.372 4.8492 5.19423 5.06667C5.0161 5.26991 4.80459 5.44126 4.56881 5.57333C4.40509 5.66209 4.23265 5.73372 4.05423 5.78708L4.99631 0.00791685H3.47631L2.5184 5.76333C2.37009 5.70174 2.23144 5.61908 2.10673 5.51792C1.94518 5.37512 1.81567 5.19975 1.72673 5.00333C1.62916 4.78837 1.57021 4.55791 1.55256 4.3225C1.52429 4.05937 1.52429 3.79397 1.55256 3.53083L2.10673 0H0.61048L0.0325641 3.47542C-0.0215205 3.91556 -0.00817324 4.36138 0.0721469 4.7975C0.143617 5.20048 0.288523 5.58689 0.499648 5.9375C0.699274 6.27371 0.969354 6.5627 1.29131 6.78458C1.58942 6.98292 1.92258 7.12263 2.27298 7.19625L1.93256 9.50792H3.45256L3.8484 7.22792C4.27228 7.17256 4.68573 7.0552 5.07548 6.87958C5.91456 6.49108 6.58607 5.81395 6.96756 4.97167C7.18157 4.51557 7.32569 4.02985 7.39506 3.53083L7.94923 0.00791685H6.43715Z" fill="white"/>
</svg>
