<svg width="8" height="10" viewBox="0 0 8 10" fill="none" xmlns="http://www.w3.org/2000/svg">
<path d="M4.88491 1.44083L5.12241 0H3.56283L3.37283 1.17167C2.4482 1.23823 1.58398 1.65566 0.957034 2.33853C0.33009 3.0214 -0.0121609 3.91806 0.000330262 4.845C-0.00269907 5.56685 0.206567 6.27367 0.602098 6.87752C0.997629 7.48138 1.56197 7.95562 2.22491 8.24125L1.9795 9.595H3.56283L3.737 8.51833C4.66937 8.46338 5.54458 8.05074 6.18023 7.36642C6.81587 6.68211 7.16293 5.77889 7.14908 4.845C7.14934 4.11756 6.93454 3.40629 6.53168 2.80059C6.12882 2.19489 5.55589 1.72182 4.88491 1.44083ZM3.12741 2.68375L2.47033 6.745C2.09819 6.51193 1.80304 6.17429 1.62181 5.77433C1.44058 5.37437 1.38133 4.92984 1.45146 4.49637C1.5216 4.0629 1.718 3.65974 2.0161 3.33733C2.3142 3.01492 2.70076 2.78758 3.12741 2.68375ZM5.70033 4.845C5.70457 5.35072 5.53451 5.84248 5.21875 6.23754C4.90299 6.63259 4.46081 6.90685 3.96658 7.01417L4.6395 2.92917C4.96548 3.13104 5.2342 3.4132 5.41994 3.74864C5.60568 4.08408 5.70223 4.46157 5.70033 4.845Z" fill="white"/>
</svg>
