<svg width="7" height="10" viewBox="0 0 7 10" fill="none" xmlns="http://www.w3.org/2000/svg">
<path d="M6.28796 2.44218C6.24314 2.14011 6.16889 1.84314 6.06629 1.55551C5.96424 1.2685 5.81435 1.00083 5.62296 0.763847C5.42189 0.531936 5.17356 0.34569 4.89463 0.217597C4.5728 0.0760352 4.22496 0.0032328 3.87338 0.00384806C3.49976 -0.0155055 3.12596 0.0382776 2.77296 0.16218C2.45296 0.271736 2.1553 0.437999 1.89421 0.653014C1.64093 0.862553 1.41958 1.10791 1.23713 1.38135C1.05123 1.66129 0.892186 1.95816 0.762126 2.26801C0.633246 2.59881 0.524847 2.93723 0.437543 3.28135C0.357385 3.60509 0.293968 3.93274 0.247543 4.26301L0.0733769 5.41093C0.0346965 5.70245 0.0109155 5.99574 0.00212675 6.28968C-0.00614783 6.60709 0.00973088 6.92468 0.0496263 7.23968C0.0871129 7.54752 0.158806 7.85023 0.263377 8.14218C0.359747 8.4301 0.507245 8.69828 0.698793 8.93385C0.89729 9.16921 1.14264 9.36064 1.41921 9.49593C1.74296 9.64107 2.09358 9.71659 2.44838 9.7176H2.56713C2.90383 9.72488 3.23908 9.67124 3.55671 9.55926C3.87742 9.44397 4.175 9.27239 4.43546 9.0526C4.69221 8.82245 4.91362 8.55569 5.09254 8.26093C5.27006 7.9883 5.42117 7.69935 5.54379 7.39802C5.68117 7.08955 5.79754 6.77216 5.89213 6.44801C5.96338 6.12343 6.03463 5.79093 6.09004 5.46635L6.26421 4.32635C6.30379 4.04135 6.31963 3.74051 6.33546 3.40801C6.34496 3.08532 6.32908 2.76238 6.28796 2.44218ZM2.51963 8.35593C2.35586 8.36344 2.19426 8.31608 2.06046 8.22135C1.93409 8.13486 1.82861 8.02127 1.75171 7.88885C1.67149 7.72841 1.61292 7.55803 1.57754 7.38218C1.5443 7.18043 1.52315 6.97687 1.51421 6.7726C1.50224 6.56958 1.50224 6.36603 1.51421 6.16301C1.51421 5.9651 1.51421 5.79093 1.56963 5.64051V5.56135H4.49879C4.49879 5.75135 4.41171 5.95718 4.36421 6.17093C4.31188 6.39299 4.24846 6.61229 4.17421 6.82801C4.10084 7.04059 4.01084 7.24707 3.90504 7.44551C3.81005 7.62751 3.69014 7.79538 3.54879 7.94426C3.41563 8.07974 3.25686 8.18738 3.08171 8.26093C2.90532 8.33936 2.712 8.37203 2.51963 8.35593ZM3.80213 1.37343C3.9695 1.37602 4.13327 1.42242 4.27713 1.50801C4.4008 1.5919 4.5037 1.70292 4.57796 1.8326C4.6619 1.98302 4.72073 2.14614 4.75213 2.31551C4.78884 2.51145 4.81002 2.70999 4.81546 2.90926C4.82733 3.107 4.82733 3.30528 4.81546 3.50302C4.81546 3.67718 4.81546 3.85927 4.76004 4.03343V4.2076H1.79129V4.10468C1.79129 3.91468 1.87046 3.70885 1.91796 3.48718C1.96546 3.26551 2.03671 3.05968 2.10796 2.85385C2.18083 2.64741 2.27363 2.44855 2.38504 2.2601C2.47824 2.08175 2.5984 1.91886 2.74129 1.77718C2.87181 1.64783 3.0247 1.54322 3.19254 1.46843C3.38616 1.39187 3.5944 1.35942 3.80213 1.37343Z" fill="white"/>
</svg>
