<svg width="8" height="10" viewBox="0 0 8 10" fill="none" xmlns="http://www.w3.org/2000/svg">
<path d="M7.91667 3.16748C7.89278 2.8461 7.83709 2.52787 7.75042 2.21748C7.66386 1.92138 7.54157 1.63693 7.38625 1.37039C7.23373 1.10304 7.03544 0.864558 6.80042 0.665812C6.56595 0.462936 6.2981 0.302225 6.00875 0.190811C5.67707 0.0664354 5.3259 0.00209855 4.97167 0.000811498C4.5998 -0.00695621 4.22887 0.041078 3.87125 0.143312C3.53749 0.241254 3.22003 0.387977 2.92917 0.578728C2.63842 0.769367 2.37249 0.995406 2.1375 1.25164C1.92616 1.51567 1.74059 1.79932 1.58333 2.09873C1.41465 2.40737 1.27421 2.73063 1.16375 3.06456C1.05317 3.40281 0.971076 3.74971 0.918333 4.10165L0.815417 4.79831C0.65669 5.93723 0.858795 7.09726 1.39333 8.1154H0.245416L0 9.50081H3.33292L3.53875 8.13915L3.35667 8.09164C3.17087 8.05298 2.99873 7.96554 2.85792 7.83831C2.72315 7.71196 2.61308 7.56162 2.53333 7.39498C2.4395 7.21374 2.37535 7.01862 2.34333 6.81706C2.30189 6.5978 2.28069 6.3752 2.28 6.15206C2.26822 5.92791 2.26822 5.7033 2.28 5.47915C2.28 5.25748 2.31958 5.04373 2.34333 4.86164L2.44625 4.14914C2.49679 3.79526 2.58435 3.44766 2.7075 3.11206C2.81858 2.7855 2.98458 2.48029 3.19833 2.20956C3.39936 1.9446 3.65964 1.73041 3.95833 1.58414C4.26072 1.42684 4.59959 1.35305 4.94 1.37039C5.14406 1.37545 5.34539 1.4184 5.53375 1.49706C5.68646 1.57038 5.82356 1.67253 5.9375 1.7979C6.05032 1.93186 6.13875 2.0846 6.19875 2.24914C6.26919 2.4332 6.31962 2.6243 6.34917 2.81914C6.3691 3.02714 6.3691 3.23657 6.34917 3.44456C6.34808 3.65626 6.33486 3.86771 6.30958 4.07789L6.20667 4.79039C6.15673 5.15184 6.07999 5.50908 5.97708 5.85914C5.8743 6.21359 5.72805 6.55396 5.54167 6.87248C5.37289 7.17206 5.15322 7.43995 4.8925 7.66415C4.63301 7.88899 4.3191 8.04185 3.98208 8.10748H3.83958L3.6575 9.50081H6.935L7.18042 8.1154H6.16708C6.29133 7.99643 6.40769 7.8695 6.51542 7.7354C6.74422 7.46673 6.94825 7.17791 7.125 6.87248C7.29742 6.56291 7.438 6.23666 7.54458 5.89873C7.66059 5.55881 7.74538 5.20903 7.79792 4.85373L7.90083 4.15706C7.9339 3.82823 7.9392 3.4972 7.91667 3.16748Z" fill="white"/>
</svg>
