<svg width="8" height="8" viewBox="0 0 8 8" fill="none" xmlns="http://www.w3.org/2000/svg">
<path fill-rule="evenodd" clip-rule="evenodd" d="M7.30708 1.235H6.29375L5.64458 5.07458C5.63289 5.17187 5.63289 5.27021 5.64458 5.3675C5.64458 5.64458 5.8425 5.795 6.16708 5.81083C6.35338 5.80711 6.53892 5.78591 6.72125 5.7475L6.61042 6.99042C6.29383 7.08108 5.96598 7.12639 5.63667 7.125C5.40584 7.13718 5.17544 7.09395 4.96473 6.99892C4.75401 6.9039 4.56909 6.75983 4.42542 6.57875C4.13784 6.16033 4.02428 5.64647 4.10875 5.14583L4.75 1.235H2.64417L1.63083 7.05375H0.0474996L1.06083 1.235H0L0.221667 0H7.52083L7.30708 1.235Z" fill="white"/>
</svg>
