<svg width="8" height="7" viewBox="0 0 8 7" fill="none" xmlns="http://www.w3.org/2000/svg">
<path d="M6.97458 1.2825H5.985V4.31458C5.97051 4.4903 6.01508 4.66583 6.11167 4.81333C6.18231 4.87274 6.26454 4.9168 6.35313 4.9427C6.44172 4.96859 6.53474 4.97576 6.62625 4.96375C6.78842 4.96444 6.95024 4.94853 7.10917 4.91625V6.19083C6.78378 6.29246 6.44464 6.3432 6.10375 6.34125C5.86154 6.37528 5.61474 6.35273 5.38271 6.27537C5.15067 6.19801 4.93972 6.06794 4.76638 5.89538C4.59305 5.72281 4.46205 5.51243 4.38366 5.28075C4.30528 5.04906 4.28163 4.80236 4.31458 4.56V1.2825H2.73125V6.27792H1.02917V1.2825H0V0H6.97458V1.2825Z" fill="white"/>
</svg>
