<svg width="31" height="13" viewBox="0 0 31 13" fill="none" xmlns="http://www.w3.org/2000/svg">
<path d="M18.2083 6.28583C18.2036 5.38957 18.3235 4.49699 18.5646 3.63375C18.7914 2.8308 19.1499 2.07104 19.6254 1.38542C19.9965 0.810903 20.5019 0.335397 21.0979 0L21.375 0.855C20.763 1.38268 20.3061 2.0668 20.0529 2.83417C19.6974 3.8088 19.51 4.83676 19.4987 5.87417V6.39667C19.4815 7.50672 19.65 8.61184 19.9975 9.66625C20.242 10.5164 20.7191 11.2814 21.375 11.875L21.0979 12.6667C20.499 12.3288 19.991 11.8507 19.6175 11.2733C19.1445 10.5873 18.7887 9.82755 18.5646 9.025C18.3189 8.13299 18.199 7.21102 18.2083 6.28583ZM30.875 6.28583C30.8798 5.38957 30.7599 4.49699 30.5188 3.63375C30.2919 2.8308 29.9334 2.07104 29.4579 1.38542C29.0869 0.810903 28.5815 0.335397 27.9854 0L27.7083 0.855C28.3203 1.38268 28.7773 2.0668 29.0304 2.83417C29.386 3.8088 29.5734 4.83676 29.5846 5.87417V6.39667C29.6019 7.50672 29.4333 8.61184 29.0858 9.66625C28.8413 10.5164 28.3642 11.2814 27.7083 11.875L27.9854 12.6667C28.5843 12.3288 29.0923 11.8507 29.4658 11.2733C29.9388 10.5873 30.2946 9.82755 30.5188 9.025C30.7645 8.13299 30.8844 7.21102 30.875 6.28583ZM14.25 12.2708V8.3125H14.1788L12.6667 8.91417V9.61083L13.4504 9.34167V12.2708H14.25ZM16.2292 9.10417C16.1675 9.1007 16.1062 9.11534 16.0527 9.14628C15.9993 9.17723 15.956 9.22313 15.9283 9.27833C15.8628 9.44738 15.8306 9.62748 15.8333 9.80875V10.8379C15.8309 10.9961 15.8633 11.1529 15.9283 11.2971C15.9573 11.3518 16.0006 11.3975 16.0536 11.4294C16.1066 11.4613 16.1673 11.4782 16.2292 11.4782C16.291 11.4782 16.3517 11.4613 16.4047 11.4294C16.4577 11.3975 16.501 11.3518 16.53 11.2971C16.6044 11.1223 16.6369 10.9325 16.625 10.7429V9.7375C16.6259 9.58458 16.5935 9.43329 16.53 9.29417C16.5047 9.23601 16.4624 9.1868 16.4088 9.15292C16.3552 9.11904 16.2926 9.10206 16.2292 9.10417ZM16.2292 8.3125C16.3996 8.30535 16.5691 8.34068 16.7225 8.4153C16.8759 8.48992 17.0083 8.6015 17.1079 8.74C17.3348 9.09869 17.4428 9.51974 17.4167 9.94333V10.8142C17.4188 11.1902 17.3115 11.5588 17.1079 11.875C17.0026 12.007 16.8689 12.1135 16.7168 12.1868C16.5647 12.26 16.398 12.2981 16.2292 12.2981C16.0603 12.2981 15.8937 12.26 15.7415 12.1868C15.5894 12.1135 15.4557 12.007 15.3504 11.875C15.117 11.5074 15.0087 11.0742 15.0417 10.64V9.76917C15.0396 9.3931 15.1468 9.02453 15.3504 8.70833C15.4535 8.57564 15.5874 8.47019 15.7406 8.4012C15.8938 8.3322 16.0615 8.30174 16.2292 8.3125ZM1.35375 9.58708H0V2.77083H1.35375V9.58708ZM2.05833 7.125C2.06274 6.68626 2.17127 6.25484 2.375 5.86625C2.55306 5.51028 2.82732 5.21134 3.16667 5.00333C3.55211 4.79232 3.98608 4.68588 4.42542 4.69458C4.72903 4.67516 5.03341 4.718 5.31986 4.82046C5.60632 4.92293 5.86881 5.08286 6.09122 5.29045C6.31363 5.49803 6.49127 5.74888 6.61322 6.0276C6.73518 6.30632 6.79888 6.60702 6.80042 6.91125V7.23583C6.81467 7.55964 6.76465 7.88307 6.65323 8.18744C6.54181 8.49181 6.3712 8.77109 6.15125 9.00917C5.92365 9.23345 5.65217 9.40829 5.35382 9.52273C5.05548 9.63716 4.73671 9.68872 4.4175 9.67417C4.09704 9.68934 3.77689 9.6381 3.47718 9.52367C3.17746 9.40923 2.90463 9.23406 2.67583 9.00917C2.45801 8.76451 2.29119 8.47885 2.18516 8.16891C2.07913 7.85896 2.03601 7.53098 2.05833 7.20417V7.125ZM3.40417 7.22C3.37988 7.58815 3.47422 7.95439 3.67333 8.265C3.76382 8.3876 3.88387 8.48528 4.0223 8.54896C4.16073 8.61264 4.31303 8.64023 4.465 8.62917C4.61627 8.64113 4.76811 8.61475 4.90648 8.55248C5.04486 8.49022 5.1653 8.39406 5.25667 8.27292C5.45009 7.92324 5.5303 7.52218 5.48625 7.125C5.50817 6.75847 5.41097 6.39467 5.20917 6.08792C5.11856 5.96495 4.99872 5.86653 4.86048 5.80156C4.72225 5.73659 4.56999 5.70712 4.4175 5.71583C4.26536 5.70324 4.11254 5.73015 3.97384 5.79395C3.83515 5.85775 3.71528 5.95628 3.62583 6.08C3.43301 6.43266 3.3555 6.83686 3.40417 7.23583V7.22ZM7.2675 7.125C7.23796 6.48712 7.43418 5.85923 7.82167 5.35167C7.99982 5.13038 8.22708 4.95364 8.48542 4.83546C8.74376 4.71728 9.02608 4.66092 9.31 4.67083C9.55259 4.65676 9.79516 4.69871 10.0189 4.79343C10.2427 4.88816 10.4417 5.03312 10.6004 5.21708L10.6558 4.76583H11.875V9.405C11.8833 9.7907 11.7788 10.1704 11.5742 10.4975C11.3722 10.8168 11.0763 11.0657 10.7271 11.21C10.325 11.3831 9.89012 11.4668 9.4525 11.4554C9.08311 11.455 8.71736 11.3824 8.37583 11.2417C8.07032 11.1327 7.79778 10.9474 7.58417 10.7033L8.18583 9.91167C8.33771 10.0846 8.52546 10.2224 8.73602 10.3154C8.94657 10.4083 9.17487 10.4543 9.405 10.45C9.70727 10.467 10.0046 10.3679 10.2363 10.1729C10.3409 10.0711 10.4215 9.94713 10.4721 9.81018C10.5228 9.67322 10.5423 9.52669 10.5292 9.38125V9.12C10.3737 9.28577 10.1843 9.41612 9.97391 9.50218C9.76354 9.58824 9.53711 9.628 9.31 9.61875C9.02929 9.62775 8.7503 9.57169 8.49485 9.45495C8.2394 9.33821 8.01442 9.16396 7.8375 8.94583C7.44367 8.43205 7.24453 7.79538 7.27542 7.14875L7.2675 7.125ZM8.61333 7.22C8.5937 7.58381 8.69077 7.94439 8.89042 8.24917C8.9758 8.36795 9.08901 8.46399 9.22013 8.52886C9.35125 8.59373 9.49627 8.62545 9.6425 8.62125C9.81561 8.63555 9.9893 8.6017 10.1444 8.52347C10.2995 8.44523 10.4299 8.32564 10.5213 8.17792V6.18292C10.4318 6.03709 10.304 5.91863 10.1519 5.84045C9.99969 5.76227 9.82897 5.72738 9.65833 5.73958C9.50504 5.73103 9.35207 5.76139 9.21366 5.82783C9.07524 5.89426 8.95588 5.99463 8.86667 6.11958C8.66886 6.45943 8.58041 6.85191 8.61333 7.24375V7.22Z" fill="white"/>
<path d="M26.125 4.74935V7.91602H22.9583V4.74935H26.125ZM27.7083 3.16602H21.375V9.49935H27.7083V3.16602Z" fill="white"/>
</svg>
