<svg width="25" height="7" viewBox="0 0 25 7" fill="none" xmlns="http://www.w3.org/2000/svg">
<path d="M2.46721 5.16128C2.70624 5.17205 2.94064 5.09297 3.12429 4.93961C3.2063 4.86559 3.27192 4.77523 3.31691 4.67434C3.3619 4.57345 3.38528 4.46425 3.38554 4.35378H4.74721C4.7448 4.71321 4.64049 5.06459 4.44638 5.36711C4.25255 5.67249 3.97875 5.91891 3.65471 6.07961C3.30053 6.25426 2.90953 6.34115 2.51471 6.33294C2.17364 6.34947 1.83301 6.29226 1.51605 6.1652C1.19909 6.03815 0.913261 5.84424 0.678044 5.59669C0.201678 5.02337 -0.0388807 4.29038 0.00512705 3.54628V3.45128C-0.0328744 2.72378 0.204556 2.00866 0.670127 1.44836C0.903914 1.19795 1.18911 1.00109 1.50613 0.871271C1.82316 0.741453 2.16452 0.681756 2.50679 0.696277C3.10779 0.66591 3.69655 0.873542 4.14554 1.27419C4.3516 1.47373 4.51368 1.71414 4.62138 1.97998C4.72908 2.24583 4.78003 2.53125 4.77096 2.81794H3.38554C3.38642 2.56399 3.29337 2.31868 3.12429 2.12919C3.03763 2.0419 2.93376 1.9736 2.81927 1.92862C2.70479 1.88365 2.5822 1.86298 2.45929 1.86794C2.30615 1.85379 2.15201 1.88082 2.01282 1.94624C1.87363 2.01166 1.75445 2.11309 1.66763 2.24003C1.46414 2.60386 1.37322 3.0199 1.40638 3.43544V3.58586C1.37243 4.00652 1.46331 4.42784 1.66763 4.79711C1.75666 4.92324 1.87762 5.02343 2.01813 5.08742C2.15863 5.15142 2.31362 5.1769 2.46721 5.16128ZM8.51554 4.74961C8.5156 4.66224 8.49115 4.5766 8.44497 4.50243C8.39879 4.42826 8.33273 4.36853 8.25429 4.33003C7.98782 4.19477 7.70211 4.10131 7.40721 4.05295C6.11679 3.78378 5.46763 3.26128 5.46763 2.40628C5.46513 2.17121 5.51835 1.9389 5.62293 1.72837C5.72751 1.51783 5.88048 1.33506 6.06929 1.19503C6.524 0.853135 7.08452 0.682175 7.65263 0.712111C8.24437 0.679033 8.82923 0.852532 9.30721 1.20294C9.50544 1.34529 9.66647 1.53326 9.77671 1.75098C9.88695 1.9687 9.94314 2.20976 9.94054 2.45378H8.46013C8.46359 2.35789 8.44787 2.26229 8.41389 2.17256C8.3799 2.08284 8.32833 2.0008 8.26221 1.93128C8.17636 1.85836 8.07683 1.80331 7.96944 1.76932C7.86205 1.73534 7.74896 1.72311 7.63679 1.73336C7.43319 1.72029 7.23145 1.77913 7.06679 1.89961C7.00278 1.94873 6.95142 2.01244 6.91699 2.08542C6.88257 2.1584 6.86607 2.23855 6.86888 2.31919C6.86818 2.39769 6.88833 2.47496 6.92727 2.54312C6.96622 2.61127 7.02256 2.66787 7.09054 2.70711C7.33778 2.83828 7.60546 2.92661 7.88221 2.96836C8.19104 3.02535 8.49531 3.10472 8.79263 3.20586C9.11986 3.28706 9.41057 3.4753 9.61856 3.74066C9.82655 4.00602 9.93988 4.33329 9.94054 4.67044C9.94348 4.90876 9.88625 5.14397 9.77416 5.35431C9.66208 5.56464 9.49875 5.74331 9.29929 5.87378C8.81124 6.20021 8.2312 6.36118 7.64471 6.33294C7.22766 6.3431 6.81367 6.25922 6.43346 6.08753C6.1 5.94736 5.81216 5.71709 5.60221 5.42253C5.4024 5.15802 5.29403 4.83569 5.29346 4.50419H6.67096C6.67403 4.61844 6.70181 4.73067 6.75237 4.83316C6.80293 4.93565 6.87509 5.02599 6.96388 5.09794C7.1718 5.24405 7.42257 5.3165 7.67638 5.30378C7.89628 5.31774 8.11503 5.26236 8.30179 5.14544C8.3664 5.10128 8.4195 5.04231 8.45669 4.97346C8.49387 4.9046 8.51405 4.82785 8.51554 4.74961ZM13.1072 5.16128C13.3465 5.17362 13.5814 5.09436 13.7643 4.93961C13.8463 4.86559 13.9119 4.77523 13.9569 4.67434C14.0019 4.57345 14.0253 4.46425 14.0255 4.35378H15.403C15.4047 4.7138 15.3001 5.06631 15.1022 5.36711C14.9103 5.67411 14.636 5.92099 14.3105 6.07961C13.9589 6.25331 13.5706 6.34018 13.1785 6.33294C12.8361 6.35063 12.4939 6.29398 12.1755 6.16689C11.8571 6.0398 11.57 5.84528 11.3339 5.59669C10.861 5.02145 10.6209 4.28986 10.661 3.54628V3.45128C10.622 2.7223 10.8627 2.00592 11.3339 1.44836C11.5587 1.20369 11.8332 1.00999 12.1391 0.880263C12.445 0.750539 12.7751 0.687804 13.1072 0.696277C13.7082 0.66591 14.297 0.873542 14.746 1.27419C14.952 1.47373 15.1141 1.71414 15.2218 1.97998C15.3295 2.24583 15.3804 2.53125 15.3714 2.81794H14.0414C14.0423 2.56399 13.9492 2.31868 13.7801 2.12919C13.6938 2.04151 13.5899 1.97294 13.4754 1.92793C13.3608 1.88293 13.2381 1.86249 13.1151 1.86794C12.962 1.85379 12.8078 1.88082 12.6687 1.94624C12.5295 2.01166 12.4103 2.11309 12.3235 2.24003C12.127 2.6063 12.0392 3.02099 12.0701 3.43544V3.58586C12.0318 4.00492 12.1171 4.42601 12.3155 4.79711C12.4044 4.92141 12.5242 5.02037 12.6631 5.08424C12.8019 5.1481 12.955 5.17465 13.1072 5.16128Z" fill="white"/>
<path d="M22.6074 1.58333V4.75H19.4408V1.58333H22.6074ZM24.1908 0H17.8574V6.33333H24.1908V0Z" fill="white"/>
</svg>
