<svg width="25" height="7" viewBox="0 0 25 7" fill="none" xmlns="http://www.w3.org/2000/svg">
<path d="M2.46721 5.16128C2.70624 5.17205 2.94064 5.09297 3.12429 4.93961C3.2063 4.86559 3.27192 4.77523 3.31691 4.67434C3.3619 4.57345 3.38528 4.46425 3.38554 4.35378H4.74721C4.7448 4.71321 4.64049 5.06459 4.44638 5.36711C4.25255 5.67249 3.97875 5.91891 3.65471 6.07961C3.30053 6.25426 2.90953 6.34115 2.51471 6.33294C2.17364 6.34947 1.83301 6.29226 1.51605 6.1652C1.19909 6.03815 0.913261 5.84424 0.678044 5.59669C0.201678 5.02337 -0.0388807 4.29038 0.00512705 3.54628V3.45128C-0.0328744 2.72378 0.204556 2.00866 0.670127 1.44836C0.903914 1.19795 1.18911 1.00109 1.50613 0.871271C1.82316 0.741453 2.16452 0.681756 2.50679 0.696277C3.10779 0.66591 3.69655 0.873542 4.14554 1.27419C4.3516 1.47373 4.51368 1.71414 4.62138 1.97998C4.72908 2.24583 4.78003 2.53125 4.77096 2.81794H3.38554C3.38642 2.56399 3.29337 2.31868 3.12429 2.12919C3.03763 2.0419 2.93376 1.9736 2.81927 1.92862C2.70479 1.88365 2.5822 1.86298 2.45929 1.86794C2.30615 1.85379 2.15201 1.88082 2.01282 1.94624C1.87363 2.01166 1.75445 2.11309 1.66763 2.24003C1.46414 2.60386 1.37322 3.0199 1.40638 3.43544V3.58586C1.37243 4.00652 1.46331 4.42784 1.66763 4.79711C1.75666 4.92324 1.87762 5.02343 2.01813 5.08742C2.15863 5.15142 2.31362 5.1769 2.46721 5.16128ZM5.34888 3.46711C5.33969 2.96949 5.44534 2.47644 5.65763 2.02628C5.85016 1.61644 6.16197 1.27428 6.55221 1.04461C6.96666 0.808516 7.43697 0.688204 7.91388 0.696277C8.24317 0.682881 8.57181 0.735518 8.88044 0.851085C9.18907 0.966653 9.47146 1.14281 9.71096 1.36919C10.1977 1.85597 10.4808 2.50988 10.5026 3.19795V3.57003C10.5357 4.30607 10.2833 5.02646 9.79804 5.58086C9.55847 5.83247 9.26774 6.0298 8.94545 6.15954C8.62315 6.28928 8.27679 6.34841 7.92971 6.33294C7.58019 6.34915 7.23124 6.29042 6.90628 6.16071C6.58131 6.03099 6.28784 5.83329 6.04554 5.58086C5.55631 5.01354 5.30653 4.27838 5.34888 3.53044V3.46711ZM6.79763 3.57003C6.77331 3.98384 6.87547 4.39525 7.09054 4.74961C7.18898 4.87622 7.31504 4.97868 7.4591 5.04915C7.60316 5.11963 7.76142 5.15626 7.92179 5.15626C8.08217 5.15626 8.24043 5.11963 8.38449 5.04915C8.52855 4.97868 8.65461 4.87622 8.75304 4.74961C8.98042 4.35668 9.0826 3.90377 9.04596 3.45128C9.07225 3.03979 8.96988 2.63032 8.75304 2.27961C8.6609 2.14358 8.53531 2.03353 8.38835 1.96005C8.24139 1.88657 8.07799 1.85213 7.91388 1.86003C7.75818 1.85787 7.60437 1.89435 7.46621 1.96619C7.32806 2.03803 7.20987 2.14299 7.12221 2.2717C6.87961 2.66022 6.75833 3.11224 6.77388 3.57003H6.79763ZM14.3343 4.74961C14.3343 4.66224 14.3099 4.5766 14.2637 4.50243C14.2175 4.42826 14.1515 4.36853 14.073 4.33003C13.8066 4.19477 13.5209 4.10131 13.226 4.05295C11.9355 3.78378 11.2864 3.26128 11.2864 2.40628C11.2839 2.17121 11.3371 1.9389 11.4417 1.72837C11.5463 1.51783 11.6992 1.33506 11.888 1.19503C12.3427 0.853135 12.9033 0.682175 13.4714 0.712111C14.0656 0.679157 14.6529 0.852555 15.1339 1.20294C15.3304 1.34947 15.489 1.54091 15.5965 1.76128C15.7039 1.98164 15.757 2.22452 15.7514 2.46961H14.2789C14.2823 2.37373 14.2666 2.27812 14.2326 2.18839C14.1986 2.09867 14.1471 2.01664 14.081 1.94711C13.9951 1.8742 13.8956 1.81914 13.7882 1.78516C13.6808 1.75117 13.5677 1.73895 13.4555 1.74919C13.2519 1.73613 13.0502 1.79497 12.8855 1.91544C12.8215 1.96457 12.7702 2.02827 12.7357 2.10125C12.7013 2.17423 12.6848 2.25438 12.6876 2.33503C12.6869 2.41352 12.7071 2.4908 12.746 2.55895C12.785 2.62711 12.8413 2.6837 12.9093 2.72294C13.1565 2.85411 13.4242 2.94245 13.701 2.98419C14.0098 3.04118 14.3141 3.12056 14.6114 3.22169C14.9401 3.30138 15.2326 3.48897 15.4421 3.75447C15.6516 4.01997 15.7661 4.34806 15.7672 4.68628C15.7701 4.9246 15.7129 5.15981 15.6008 5.37014C15.4887 5.58048 15.3254 5.75914 15.126 5.88961C14.6401 6.21441 14.0631 6.37531 13.4793 6.34878C13.0622 6.35893 12.6483 6.27505 12.268 6.10336C11.9346 5.96319 11.6467 5.73292 11.4368 5.43836C11.2393 5.17313 11.1337 4.85071 11.136 4.52003H12.5055C12.5086 4.63427 12.5364 4.7465 12.587 4.84899C12.6375 4.95149 12.7097 5.04182 12.7985 5.11378C13.0064 5.25988 13.2572 5.33233 13.511 5.31961C13.7309 5.33357 13.9496 5.2782 14.1364 5.16128C14.2003 5.11384 14.2517 5.05159 14.2861 4.97987C14.3206 4.90816 14.3371 4.82913 14.3343 4.74961Z" fill="white"/>
<path d="M23.3984 1.58333V4.75H20.2318V1.58333H23.3984ZM24.9818 0H18.6484V6.33333H24.9818V0Z" fill="white"/>
</svg>
