<svg width="23" height="7" viewBox="0 0 23 7" fill="none" xmlns="http://www.w3.org/2000/svg">
<path d="M2.46721 5.7C2.70624 5.71077 2.94064 5.63169 3.12429 5.47833C3.2063 5.40432 3.27192 5.31396 3.31691 5.21306C3.3619 5.11217 3.38528 5.00297 3.38554 4.8925H4.74721C4.7448 5.25193 4.64049 5.60331 4.44638 5.90583C4.25255 6.21121 3.97875 6.45763 3.65471 6.61833C3.30053 6.79298 2.90953 6.87987 2.51471 6.87167C2.17364 6.8882 1.83301 6.83098 1.51605 6.70393C1.19909 6.57687 0.913261 6.38296 0.678044 6.13542C0.201678 5.5621 -0.0388807 4.8291 0.00512705 4.085V3.99C-0.0328744 3.2625 0.204556 2.54739 0.670127 1.98708C0.903914 1.73668 1.18911 1.53981 1.50613 1.40999C1.82316 1.28018 2.16452 1.22048 2.50679 1.235C3.10779 1.20463 3.69655 1.41226 4.14554 1.81292C4.3516 2.01246 4.51368 2.25286 4.62138 2.51871C4.72908 2.78455 4.78003 3.06997 4.77096 3.35667H3.38554C3.38642 3.10271 3.29337 2.8574 3.12429 2.66792C3.03763 2.58063 2.93376 2.51232 2.81927 2.46735C2.70479 2.42237 2.5822 2.40171 2.45929 2.40667C2.30615 2.39251 2.15201 2.41954 2.01282 2.48496C1.87363 2.55038 1.75445 2.65181 1.66763 2.77875C1.46414 3.14258 1.37322 3.55862 1.40638 3.97417V4.12458C1.37243 4.54524 1.46331 4.96657 1.66763 5.33583C1.75666 5.46196 1.87762 5.56216 2.01813 5.62615C2.15863 5.69014 2.31362 5.71563 2.46721 5.7ZM5.34888 4.00583C5.33969 3.50821 5.44534 3.01517 5.65763 2.565C5.85016 2.15516 6.16197 1.81301 6.55221 1.58333C6.96666 1.34724 7.43697 1.22693 7.91388 1.235C8.24317 1.2216 8.57181 1.27424 8.88044 1.38981C9.18907 1.50538 9.47146 1.68154 9.71096 1.90792C10.1977 2.39469 10.4808 3.04861 10.5026 3.73667V4.10875C10.5357 4.84479 10.2833 5.56519 9.79804 6.11958C9.55847 6.3712 9.26774 6.56853 8.94545 6.69826C8.62315 6.828 8.27679 6.88713 7.92971 6.87167C7.58019 6.88787 7.23124 6.82914 6.90628 6.69943C6.58131 6.56972 6.28784 6.37201 6.04554 6.11958C5.55631 5.55226 5.30653 4.81711 5.34888 4.06917V4.00583ZM6.79763 4.10875C6.77331 4.52256 6.87547 4.93397 7.09054 5.28833C7.18898 5.41495 7.31504 5.5174 7.4591 5.58788C7.60316 5.65835 7.76142 5.69499 7.92179 5.69499C8.08217 5.69499 8.24043 5.65835 8.38449 5.58788C8.52855 5.5174 8.65461 5.41495 8.75304 5.28833C8.98042 4.8954 9.0826 4.44249 9.04596 3.99C9.07225 3.57851 8.96988 3.16904 8.75304 2.81833C8.6609 2.6823 8.53531 2.57225 8.38835 2.49877C8.24139 2.42529 8.07799 2.39085 7.91388 2.39875C7.75818 2.3966 7.60437 2.43307 7.46621 2.50491C7.32806 2.57675 7.20987 2.68172 7.12221 2.81042C6.87961 3.19894 6.75833 3.65097 6.77388 4.10875H6.79763ZM13.1072 0V1.33H14.0414V2.39083H13.1072V5.10625C13.0934 5.26092 13.1356 5.4154 13.226 5.54167C13.287 5.59249 13.3579 5.63002 13.4342 5.65183C13.5106 5.67364 13.5907 5.67926 13.6693 5.66833C13.8088 5.68165 13.9493 5.68165 14.0889 5.66833V6.76875C13.804 6.85502 13.5078 6.89772 13.2101 6.89542C12.9982 6.92774 12.7818 6.91045 12.5777 6.84493C12.3736 6.77941 12.1875 6.66743 12.0341 6.5178C11.8806 6.36817 11.7639 6.18498 11.6933 5.98263C11.6226 5.78029 11.5998 5.5643 11.6268 5.35167V2.4225H10.8351V1.33H11.6268V0H13.1072Z" fill="white"/>
<path d="M21.0234 2.1224V5.28906H17.8568V2.1224H21.0234ZM22.6068 0.539062H16.2734V6.8724H22.6068V0.539062Z" fill="white"/>
</svg>
