<svg width="20" height="14" viewBox="0 0 20 14" fill="none" xmlns="http://www.w3.org/2000/svg">
<path fill-rule="evenodd" clip-rule="evenodd" d="M19.7917 1.11133V2.69466H9.72959L5.76333 13.778H3.93458L1.93958 8.75883H0V7.04883H3.325L4.7975 11.1734L8.28083 1.11133H19.7917Z" fill="white"/>
<path d="M3.21426 5.14898C3.69076 5.17072 4.16027 5.02819 4.54426 4.74523C4.70539 4.61868 4.83448 4.45601 4.92112 4.27035C5.00776 4.08469 5.04952 3.88126 5.04301 3.67648C5.0535 3.41564 4.97537 3.15893 4.82135 2.94815C4.6658 2.74402 4.45389 2.5899 4.21176 2.50482C4.43701 2.40509 4.63119 2.24647 4.77385 2.04565C4.90156 1.86796 4.97074 1.65489 4.97176 1.43607C4.98078 1.23638 4.94328 1.03732 4.86222 0.854601C4.78117 0.671879 4.65877 0.510486 4.50468 0.38315C4.13121 0.111506 3.67535 -0.0227355 3.21426 0.00315065C2.92513 -0.00130048 2.63858 0.0581713 2.3751 0.177317C2.13478 0.281288 1.92694 0.448112 1.77343 0.660234C1.63079 0.867225 1.55609 1.11347 1.55968 1.36482H2.69968C2.69873 1.30013 2.71333 1.23616 2.74226 1.1783C2.77119 1.12043 2.81361 1.07037 2.86593 1.03232C2.97403 0.940824 3.11231 0.892847 3.25385 0.897733C3.3323 0.891779 3.41112 0.902845 3.4849 0.930172C3.55869 0.9575 3.6257 1.00044 3.68135 1.05607C3.73248 1.10965 3.77219 1.17308 3.79804 1.24249C3.8239 1.31189 3.83538 1.38584 3.83176 1.45982C3.84357 1.54576 3.83532 1.63326 3.80766 1.71548C3.78001 1.7977 3.7337 1.87241 3.67236 1.93375C3.61102 1.99509 3.53632 2.04139 3.4541 2.06905C3.37188 2.0967 3.28437 2.10495 3.19843 2.09315H2.6601V2.95607H3.21426C3.39902 2.94711 3.58108 3.00313 3.72885 3.1144C3.79575 3.18601 3.8466 3.27108 3.878 3.36391C3.9094 3.45675 3.92063 3.55521 3.91093 3.65273C3.91345 3.73339 3.89929 3.8137 3.86932 3.88863C3.83935 3.96356 3.79422 4.03148 3.73676 4.08815C3.60305 4.20341 3.43018 4.26292 3.25385 4.2544C3.08999 4.25922 2.93079 4.19953 2.81051 4.08815C2.75157 4.03903 2.70456 3.97717 2.67302 3.90723C2.64148 3.83728 2.62623 3.76109 2.62843 3.6844H1.48051C1.46975 3.96387 1.5443 4.24 1.69426 4.47607C1.84754 4.70542 2.0651 4.88442 2.31968 4.99065C2.60309 5.10692 2.90817 5.16092 3.21426 5.14898Z" fill="white"/>
<path d="M16.6253 5.86068V10.6107H11.8753V5.86068H16.6253ZM18.2087 4.27734H10.292V12.194H18.2087V4.27734Z" fill="white"/>
</svg>
