<svg width="34" height="19" viewBox="0 0 34 19" fill="none" xmlns="http://www.w3.org/2000/svg">
<path d="M3.49917 14.8682C3.52604 15.213 3.48157 15.5597 3.36852 15.8866C3.25546 16.2135 3.07626 16.5136 2.84208 16.7682C2.58433 16.9971 2.28358 17.1724 1.95737 17.2839C1.63116 17.3953 1.28602 17.4407 0.942083 17.4174C0.623326 17.4165 0.306243 17.3712 0 17.2828L0.134583 15.9369C0.324221 15.9969 0.521565 16.0289 0.720417 16.0319C1.39069 16.0319 1.73111 15.6599 1.74167 14.9157V4.24403C1.71785 3.88657 1.76737 3.52802 1.88717 3.19039C2.00698 2.85277 2.19454 2.5432 2.43833 2.2807C2.70693 2.03638 3.02205 1.84876 3.36484 1.72905C3.70762 1.60935 4.07104 1.56003 4.43333 1.58403C4.80732 1.59157 5.1792 1.64204 5.54167 1.73445L5.35958 3.04862C5.13905 2.99656 4.91326 2.97 4.68667 2.96945C3.895 2.96945 3.49917 3.40487 3.49917 4.28362V14.8682ZM14.5825 14.8682C14.6094 15.213 14.5649 15.5597 14.4519 15.8866C14.3388 16.2135 14.1596 16.5136 13.9254 16.7682C13.6677 16.9971 13.3669 17.1724 13.0407 17.2839C12.7145 17.3953 12.3694 17.4407 12.0254 17.4174C11.7067 17.4165 11.3896 17.3712 11.0833 17.2828L11.2179 15.9369C11.4076 15.9969 11.6049 16.0289 11.8038 16.0319C12.4793 16.0319 12.8197 15.6599 12.825 14.9157V4.24403C12.8012 3.88657 12.8507 3.52802 12.9705 3.19039C13.0903 2.85277 13.2779 2.5432 13.5217 2.2807C13.7903 2.03638 14.1054 1.84876 14.4482 1.72905C14.791 1.60935 15.1544 1.56003 15.5167 1.58403C15.8907 1.59157 16.2625 1.64204 16.625 1.73445L16.4429 3.04862C16.2224 2.99656 15.9966 2.97 15.77 2.96945C14.9783 2.96945 14.5825 3.40487 14.5825 4.28362V14.8682ZM25.6658 14.8682C25.6927 15.213 25.6482 15.5597 25.5352 15.8866C25.4221 16.2135 25.2429 16.5136 25.0088 16.7682C24.751 16.9971 24.4502 17.1724 24.124 17.2839C23.7978 17.3953 23.4527 17.4407 23.1087 17.4174C22.79 17.4165 22.4729 17.3712 22.1667 17.2828L22.3013 15.9369C22.4909 15.9969 22.6882 16.0289 22.8871 16.0319C23.5574 16.0319 23.8978 15.6599 23.9083 14.9157V4.24403C23.8845 3.88657 23.934 3.52802 24.0538 3.19039C24.1736 2.85277 24.3612 2.5432 24.605 2.2807C24.8736 2.03638 25.1887 1.84876 25.5315 1.72905C25.8743 1.60935 26.2377 1.56003 26.6 1.58403C26.974 1.59157 27.3459 1.64204 27.7083 1.73445L27.5263 3.04862C27.3057 2.99656 27.0799 2.97 26.8533 2.96945C26.0617 2.96945 25.6658 3.40487 25.6658 4.28362V14.8682Z" fill="white"/>
<path d="M9.5 1.58333V3.16667H7.91667V1.58333H9.5ZM11.0833 0H6.33333V4.75H11.0833V0ZM7.91667 15.8333V17.4167H6.33333V15.8333H7.91667ZM9.5 14.25H4.75V19H9.5V14.25ZM20.5833 1.58333V3.16667H19V1.58333H20.5833ZM22.1667 0H17.4167V4.75H22.1667V0ZM19 15.8333V17.4167H17.4167V15.8333H19ZM20.5833 14.25H15.8333V19H20.5833V14.25ZM31.6667 1.58333V3.16667H30.0833V1.58333H31.6667ZM33.25 0H28.5V4.75H33.25V0ZM30.0833 15.8333V17.4167H28.5V15.8333H30.0833ZM31.6667 14.25H26.9167V19H31.6667V14.25Z" fill="white"/>
</svg>
