<svg width="30" height="20" viewBox="0 0 30 20" fill="none" xmlns="http://www.w3.org/2000/svg">
<path d="M4.00583 14.3061C4.0578 15.1534 3.77331 15.987 3.21417 16.6257C2.92785 16.9017 2.58693 17.1147 2.21335 17.2511C1.83977 17.3874 1.44179 17.444 1.045 17.4174C0.690273 17.415 0.337949 17.3589 0 17.2511L0.150417 15.6124C0.368398 15.6807 0.594933 15.7181 0.823333 15.7232C1.615 15.7232 1.97917 15.264 1.98708 14.3536V4.85361C1.93892 3.99001 2.22206 3.14058 2.77875 2.47861C3.07479 2.17569 3.43192 1.93925 3.8264 1.78501C4.22088 1.63076 4.64367 1.56225 5.06667 1.58402C5.49447 1.59595 5.91949 1.65705 6.33333 1.76611L6.1275 3.34944C5.8691 3.28222 5.6028 3.25027 5.33583 3.25444C4.43333 3.25444 3.98208 3.79277 3.98208 4.83777L4.00583 14.3061ZM19.0475 14.3061C19.0995 15.1534 18.815 15.987 18.2558 16.6257C17.9695 16.9017 17.6286 17.1147 17.255 17.2511C16.8814 17.3874 16.4835 17.444 16.0867 17.4174C15.7319 17.415 15.3796 17.3589 15.0417 17.2511L15.1921 15.6124C15.4101 15.6807 15.6366 15.7181 15.865 15.7232C16.6567 15.7232 17.0208 15.264 17.0288 14.3536V4.85361C16.9806 3.99001 17.2637 3.14058 17.8204 2.47861C18.1165 2.17569 18.4736 1.93925 18.8681 1.78501C19.2625 1.63076 19.6853 1.56225 20.1083 1.58402C20.5361 1.59595 20.9612 1.65705 21.375 1.76611L21.1692 3.34944C20.9108 3.28222 20.6445 3.25027 20.3775 3.25444C19.475 3.25444 19.0238 3.79277 19.0238 4.83777L19.0475 14.3061Z" fill="white"/>
<path d="M12.667 1.58333V4.75H9.50033V1.58333H12.667ZM14.2503 0H7.91699V6.33333H14.2503V0ZM10.292 15.0417V18.2083H7.12533V15.0417H10.292ZM11.8753 13.4583H5.54199V19.7917H11.8753V13.4583ZM27.7087 1.58333V4.75H24.542V1.58333H27.7087ZM29.292 0H22.9587V6.33333H29.292V0ZM25.3337 15.0417V18.2083H22.167V15.0417H25.3337ZM26.917 13.4583H20.5837V19.7917H26.917V13.4583Z" fill="white"/>
</svg>
