<svg width="15" height="20" viewBox="0 0 15 20" fill="none" xmlns="http://www.w3.org/2000/svg">
<path d="M4.00583 14.3061C4.0578 15.1534 3.77331 15.987 3.21417 16.6257C2.92785 16.9017 2.58693 17.1147 2.21335 17.2511C1.83977 17.3874 1.44179 17.444 1.045 17.4174C0.690273 17.415 0.337949 17.3589 0 17.2511L0.150416 15.6124C0.368398 15.6807 0.594934 15.7181 0.823334 15.7232C1.615 15.7232 1.97917 15.264 1.98708 14.3536V4.85361C1.93892 3.99001 2.22206 3.14058 2.77875 2.47861C3.07479 2.17569 3.43192 1.93925 3.8264 1.78501C4.22088 1.63076 4.64367 1.56225 5.06667 1.58402C5.49447 1.59595 5.91949 1.65705 6.33333 1.76611L6.1275 3.34944C5.8691 3.28222 5.6028 3.25027 5.33583 3.25444C4.43333 3.25444 3.98208 3.79277 3.98208 4.83777L4.00583 14.3061Z" fill="white"/>
<path d="M12.667 1.58333V4.75H9.50033V1.58333H12.667ZM14.2503 0H7.91699V6.33333H14.2503V0ZM10.292 15.0417V18.2083H7.12533V15.0417H10.292ZM11.8753 13.4583H5.54199V19.7917H11.8753V13.4583Z" fill="white"/>
</svg>
