<svg width="5" height="5" viewBox="0 0 5 5" fill="none" xmlns="http://www.w3.org/2000/svg">
<path d="M0.00141432 2.37518C-0.00278091 2.06013 0.0583661 1.74764 0.180998 1.45741C0.30363 1.16718 0.485086 0.905516 0.713914 0.68893C0.931443 0.469531 1.19048 0.295636 1.47591 0.177385C1.76134 0.0591346 2.06746 -0.00110528 2.37641 0.000179393C2.68646 -0.00372357 2.994 0.0560975 3.27998 0.175936C3.56596 0.295774 3.82427 0.473074 4.03891 0.696845C4.26563 0.913393 4.44576 1.17394 4.56827 1.46252C4.69078 1.75111 4.7531 2.06167 4.75141 2.37518C4.75896 2.68807 4.70087 2.99908 4.58088 3.28815C4.46089 3.57722 4.28166 3.83794 4.05475 4.05351C3.83657 4.27699 3.57536 4.45394 3.28691 4.57368C2.99845 4.69341 2.68872 4.75346 2.37641 4.75018C1.75174 4.75174 1.1516 4.50714 0.705997 4.06935C0.473589 3.85427 0.290332 3.59157 0.168734 3.29919C0.0471368 3.00681 -0.00993579 2.69163 0.00141432 2.37518ZM2.37641 3.45185C2.521 3.46279 2.66627 3.44306 2.8027 3.39395C2.93913 3.34483 3.06365 3.26744 3.16808 3.16685C3.27253 3.06417 3.35404 2.94054 3.40726 2.80409C3.46048 2.66763 3.48419 2.52146 3.47683 2.37518C3.48131 2.22923 3.45627 2.08389 3.40321 1.94785C3.35016 1.81182 3.27018 1.68789 3.16808 1.58351C3.06957 1.47219 2.94724 1.38449 2.81019 1.32692C2.67313 1.26936 2.52487 1.24342 2.37641 1.25101C2.22843 1.2472 2.08133 1.27487 1.94485 1.3322C1.80837 1.38952 1.68563 1.47518 1.58475 1.58351C1.48159 1.6875 1.40039 1.81118 1.34599 1.94718C1.29159 2.08318 1.2651 2.22873 1.26808 2.37518C1.26225 2.52198 1.28743 2.66837 1.342 2.80478C1.39656 2.94119 1.47928 3.06456 1.58475 3.16685C1.68978 3.26753 1.814 3.34604 1.95 3.39773C2.08601 3.44941 2.23102 3.4732 2.37641 3.46768V3.45185Z" fill="white"/>
</svg>
