<svg width="6" height="6" viewBox="0 0 6 6" fill="none" xmlns="http://www.w3.org/2000/svg">
<path d="M2.77083 0C2.22282 0 1.6871 0.162507 1.23144 0.46697C0.775781 0.771433 0.420637 1.20418 0.210919 1.71048C0.00120112 2.21679 -0.0536714 2.77391 0.0532418 3.3114C0.160155 3.84888 0.424051 4.3426 0.811559 4.73011C1.19907 5.11762 1.69278 5.38151 2.23027 5.48843C2.76776 5.59534 3.32488 5.54047 3.83119 5.33075C4.33749 5.12103 4.77023 4.76589 5.0747 4.31023C5.37916 3.85457 5.54167 3.31885 5.54167 2.77083C5.54167 2.03596 5.24974 1.33119 4.73011 0.811558C4.21048 0.291926 3.50571 0 2.77083 0ZM2.77083 4.25917C2.47647 4.25917 2.18872 4.17188 1.94396 4.00834C1.69921 3.8448 1.50844 3.61235 1.39579 3.34039C1.28315 3.06844 1.25367 2.76918 1.3111 2.48047C1.36853 2.19177 1.51028 1.92657 1.71842 1.71842C1.92657 1.51028 2.19177 1.36853 2.48048 1.3111C2.76918 1.25367 3.06844 1.28314 3.34039 1.39579C3.61235 1.50844 3.8448 1.6992 4.00834 1.94396C4.17188 2.18872 4.25917 2.47647 4.25917 2.77083C4.25917 3.16556 4.10236 3.54413 3.82325 3.82324C3.54413 4.10236 3.16557 4.25917 2.77083 4.25917Z" fill="white"/>
</svg>
