<svg width="19" height="24" viewBox="0 0 19 24" fill="none" xmlns="http://www.w3.org/2000/svg">
<path d="M0 11.0833H19V12.6667H0V11.0833ZM9.10417 2.4225C9.36866 2.42277 9.62959 2.48354 9.86697 2.60018C10.1044 2.71681 10.3119 2.88621 10.4737 3.09542L11.0833 0H12.6667L11.1704 8.58958H9.75333L9.84042 7.94042C9.65736 8.18761 9.41858 8.38812 9.14347 8.52568C8.86835 8.66324 8.56467 8.73395 8.25708 8.73208C7.90451 8.73334 7.55972 8.62852 7.2675 8.43125C6.96928 8.22519 6.73807 7.93618 6.6025 7.6C6.43024 7.19962 6.33876 6.76916 6.33333 6.33333C6.31346 6.10682 6.31346 5.87901 6.33333 5.6525V5.39917C6.40497 4.82788 6.58214 4.27488 6.85583 3.76833C7.07229 3.34307 7.39729 2.98256 7.79792 2.72333C8.19166 2.49016 8.6481 2.38504 9.10417 2.4225ZM7.91667 5.67625C7.89431 5.91322 7.89431 6.15178 7.91667 6.38875C7.91667 7.04583 8.2175 7.37833 8.70833 7.39417C8.93931 7.39652 9.16714 7.34041 9.37061 7.23106C9.57408 7.12171 9.74658 6.96268 9.87208 6.76875L10.2996 4.39375C10.2426 4.20873 10.1266 4.04744 9.9694 3.93451C9.81216 3.82158 9.62228 3.76322 9.42875 3.76833C9.24386 3.75824 9.0593 3.79333 8.89101 3.87057C8.72273 3.94782 8.5758 4.06489 8.46292 4.21167C8.15258 4.64193 7.96388 5.14785 7.91667 5.67625ZM5.14583 17.4642C5.41033 17.4644 5.67125 17.5252 5.90864 17.6418C6.14603 17.7585 6.35358 17.9279 6.51542 18.1371L7.125 15.0417H8.70833L7.21208 23.6312H5.795L5.88208 22.9821C5.69903 23.2293 5.46025 23.4298 5.18513 23.5673C4.91002 23.7049 4.60633 23.7756 4.29875 23.7737C3.94618 23.775 3.60139 23.6702 3.30917 23.4729C3.01686 23.2775 2.78621 23.0029 2.64417 22.6813C2.46672 22.2686 2.37514 21.8242 2.375 21.375C2.35513 21.1485 2.35513 20.9207 2.375 20.6942V20.4408C2.44664 19.8695 2.62381 19.3165 2.8975 18.81C3.11395 18.3847 3.43896 18.0242 3.83958 17.765C4.23332 17.5318 4.68977 17.4267 5.14583 17.4642ZM3.95833 20.7179C3.93597 20.9549 3.93597 21.1934 3.95833 21.4304C3.95833 22.0875 4.25917 22.42 4.75 22.4358C4.98098 22.4382 5.2088 22.3821 5.41227 22.2727C5.61574 22.1634 5.78825 22.0043 5.91375 21.8104L6.34125 19.4354C6.28428 19.2504 6.16831 19.0891 6.01107 18.9762C5.85383 18.8632 5.66394 18.8049 5.47042 18.81C5.28553 18.7999 5.10096 18.835 4.93268 18.9122C4.7644 18.9895 4.61746 19.1066 4.50458 19.2533C4.19425 19.6836 4.00555 20.1895 3.95833 20.7179Z" fill="white"/>
<path d="M15.042 17.4173V20.584H11.8753V17.4173H15.042ZM16.6253 15.834H10.292V22.1673H16.6253V15.834Z" fill="white"/>
</svg>
