<svg width="24" height="13" viewBox="0 0 24 13" fill="none" xmlns="http://www.w3.org/2000/svg">
<path d="M1.60713 3.45167C1.61078 3.154 1.68433 2.86136 1.82185 2.59734C1.95936 2.33331 2.15699 2.1053 2.39879 1.93167C2.96142 1.54065 3.63838 1.34843 4.32254 1.38542C4.87664 1.41122 5.42494 1.5097 5.95338 1.67833L5.81879 3.06375C5.38406 2.87331 4.91584 2.77105 4.44129 2.76292C4.16676 2.75129 3.89393 2.81132 3.64963 2.93708C3.55871 2.98502 3.47872 3.05128 3.41468 3.13167C3.35064 3.21205 3.30395 3.30484 3.27754 3.40417C3.20893 3.66278 3.36727 3.89236 3.75254 4.09292L3.99796 4.21167C5.71588 4.95583 6.49171 6.14333 6.37296 7.76625L6.35713 7.91667C6.29299 8.54432 6.08434 9.14858 5.74754 9.68208C5.43757 10.193 5.00137 10.6156 4.48088 10.9092C3.96333 11.1952 3.37763 11.3348 2.78671 11.3129C2.39049 11.3218 1.9974 11.2409 1.63684 11.0764C1.27628 10.9119 0.957596 10.668 0.704626 10.3629C0.437434 10.0362 0.239328 9.65866 0.122301 9.25315C0.00527397 8.84763 -0.0282381 8.42259 0.0237932 8.00375C0.0751147 7.29196 0.352486 6.61517 0.81546 6.07208C1.24039 5.57086 1.82962 5.23696 2.47796 5.13V5.01917C2.21243 4.85146 1.99005 4.62366 1.82879 4.35417C1.67415 4.07911 1.59751 3.76707 1.60713 3.45167ZM1.82088 8.5025C1.80527 8.85595 1.90229 9.20523 2.09796 9.5C2.18351 9.61669 2.29564 9.71131 2.42505 9.77602C2.55447 9.84073 2.69744 9.87366 2.84213 9.87208C3.06176 9.87735 3.27952 9.83061 3.47764 9.73568C3.67576 9.64075 3.84863 9.50031 3.98213 9.32583C4.32235 8.88323 4.53089 8.35366 4.58379 7.79792C4.6069 7.55833 4.6069 7.31708 4.58379 7.0775V6.91917C4.54973 6.65079 4.44121 6.39732 4.27051 6.18745C4.09981 5.97758 3.87376 5.81969 3.61796 5.73167C3.39801 5.73595 3.18157 5.78768 2.98345 5.88333C2.78533 5.97897 2.61021 6.11627 2.47004 6.28583C2.13919 6.70521 1.93584 7.21083 1.88421 7.7425C1.84927 7.99449 1.82813 8.2482 1.82088 8.5025ZM7.94046 6.28583C7.93568 5.38957 8.05558 4.49699 8.29671 3.63375C8.52356 2.8308 8.88204 2.07104 9.35754 1.38542C9.72861 0.810903 10.234 0.335397 10.83 0L11.1071 0.855C10.4952 1.38268 10.0382 2.0668 9.78504 2.83417C9.42949 3.8088 9.2421 4.83676 9.23088 5.87417V6.39667C9.21358 7.50672 9.38216 8.61184 9.72963 9.66625C9.97416 10.5164 10.4512 11.2814 11.1071 11.875L10.83 12.6667C10.2311 12.3288 9.72315 11.8507 9.34963 11.2733C8.87665 10.5873 8.52085 9.82755 8.29671 9.025C8.051 8.13299 7.93109 7.21102 7.94046 6.28583ZM23.7738 6.28583C23.7786 5.38957 23.6587 4.49699 23.4175 3.63375C23.1907 2.8308 22.8322 2.07104 22.3567 1.38542C21.9856 0.810903 21.4802 0.335397 20.8842 0L20.6071 0.855C21.2191 1.38268 21.6761 2.0668 21.9292 2.83417C22.2848 3.8088 22.4722 4.83676 22.4834 5.87417V6.39667C22.5007 7.50672 22.3321 8.61184 21.9846 9.66625C21.7401 10.5164 21.263 11.2814 20.6071 11.875L20.8842 12.6667C21.4831 12.3288 21.9911 11.8507 22.3646 11.2733C22.8376 10.5873 23.1934 9.82755 23.4175 9.025C23.6633 8.13299 23.7832 7.21102 23.7738 6.28583Z" fill="white"/>
<path d="M18.2318 3.95833V8.70833H13.4818V3.95833H18.2318ZM19.8151 2.375H11.8984V10.2917H19.8151V2.375Z" fill="white"/>
</svg>
