<svg width="27" height="16" viewBox="0 0 27 16" fill="none" xmlns="http://www.w3.org/2000/svg">
<path d="M9.5475 12.726C9.59947 13.5733 9.31498 14.4069 8.75583 15.0456C8.46951 15.3216 8.1286 15.5346 7.75502 15.671C7.38144 15.8073 6.98345 15.864 6.58667 15.8373C6.23194 15.8349 5.87962 15.7789 5.54167 15.671L5.69208 14.0323C5.91006 14.1007 6.1366 14.138 6.365 14.1431C7.15667 14.1431 7.52083 13.6839 7.52875 12.7735V3.27353C7.48059 2.40994 7.76373 1.56051 8.32042 0.898529C8.61646 0.595609 8.97359 0.35917 9.36807 0.204928C9.76254 0.0506864 10.1853 -0.0178259 10.6083 0.00394558C11.0361 0.015875 11.4612 0.0769705 11.875 0.186029L11.6692 1.76936C11.4108 1.70215 11.1445 1.67019 10.8775 1.67436C9.975 1.67436 9.52375 2.2127 9.52375 3.2577L9.5475 12.726ZM4.00583 12.726C4.0578 13.5733 3.77331 14.4069 3.21417 15.0456C2.92785 15.3216 2.58693 15.5346 2.21335 15.671C1.83977 15.8073 1.44179 15.864 1.045 15.8373C0.690273 15.8349 0.337949 15.7789 0 15.671L0.150417 14.0323C0.368398 14.1007 0.594933 14.138 0.823333 14.1431C1.615 14.1431 1.97917 13.6839 1.98708 12.7735V3.27353C1.93892 2.40994 2.22206 1.56051 2.77875 0.898529C3.07479 0.595609 3.43192 0.35917 3.8264 0.204928C4.22088 0.0506864 4.64367 -0.0178259 5.06667 0.00394558C5.49447 0.015875 5.91949 0.0769705 6.33333 0.186029L6.1275 1.76936C5.8691 1.70215 5.6028 1.67019 5.33583 1.67436C4.43333 1.67436 3.98208 2.2127 3.98208 3.2577L4.00583 12.726Z" fill="white"/>
<path d="M17.416 6.33724V9.50391H14.2493V6.33724H17.416ZM18.9993 4.75391H12.666V11.0872H18.9993V4.75391ZM25.3327 6.33724V9.50391H22.166V6.33724H25.3327ZM26.916 4.75391H20.5827V11.0872H26.916V4.75391Z" fill="white"/>
</svg>
