<svg width="9" height="9" viewBox="0 0 9 9" fill="none" xmlns="http://www.w3.org/2000/svg">
<path d="M6.54484 0.560711C6.2186 0.380685 5.87345 0.237312 5.51567 0.13321C4.73397 -0.0444034 3.92238 -0.0444034 3.14067 0.13321C2.43794 0.365582 1.79476 0.749329 1.25651 1.25738C0.976166 1.51375 0.73834 1.81304 0.551924 2.14404C0.373762 2.4767 0.230499 2.8269 0.124423 3.18904C-0.0414744 3.95868 -0.0414744 4.75483 0.124423 5.52446C0.231936 5.88356 0.375151 6.23099 0.551924 6.56154C0.738477 6.89012 0.976336 7.18678 1.25651 7.44029C1.50612 7.72457 1.80352 7.96302 2.13526 8.14488C2.46529 8.32481 2.81277 8.4707 3.17234 8.58029C3.56679 8.67214 3.97068 8.71731 4.37567 8.71488C4.7695 8.71231 5.16206 8.66987 5.54734 8.58821C5.90392 8.47737 6.24865 8.33152 6.57651 8.15279C6.90825 7.97094 7.20564 7.73249 7.45526 7.44821C7.99284 6.91714 8.38064 6.25351 8.57942 5.52446C8.68834 5.1594 8.74694 4.78119 8.75359 4.40029C8.75126 3.62345 8.54628 2.86067 8.15892 2.18729C7.77155 1.51392 7.21521 0.953261 6.54484 0.560711ZM7.33651 3.78279H5.09609V1.51863C5.33634 1.57557 5.56987 1.65783 5.79276 1.76404C6.08612 1.89577 6.35408 2.07798 6.58443 2.30238C6.8077 2.53363 6.98977 2.80138 7.12276 3.09404C7.21816 3.31614 7.29238 3.54675 7.34442 3.78279H7.33651ZM7.33651 5.02571C7.27317 5.31863 7.20984 5.54821 7.16234 5.70654C6.84108 6.28183 6.35234 6.74571 5.76109 7.03654C5.5393 7.14083 5.30884 7.2256 5.07234 7.28988V5.02571H7.33651ZM3.75026 5.10488V7.37696C3.50583 7.33564 3.27185 7.24689 3.06151 7.11571C2.76608 6.98771 2.49749 6.80506 2.26984 6.57738C2.04288 6.34913 1.86033 6.08068 1.73151 5.78571C1.62008 5.56421 1.53505 5.33038 1.47817 5.08904L3.75026 5.10488ZM3.75026 1.51863V3.78279H1.52567C1.58408 3.53937 1.66903 3.30309 1.77901 3.07821C1.91073 2.78485 2.09294 2.51689 2.31734 2.28654C2.54798 2.06044 2.81577 1.87567 3.10901 1.74029C3.32294 1.64496 3.54566 1.57072 3.77401 1.51863H3.75026Z" fill="white"/>
</svg>
