<svg width="7" height="8" viewBox="0 0 7 8" fill="none" xmlns="http://www.w3.org/2000/svg">
<path d="M6.31817 2.34381V2.13798C6.33412 1.80685 6.25735 1.47784 6.0965 1.18798C5.94591 0.927951 5.74062 0.703752 5.49484 0.530892C5.23758 0.352614 4.95079 0.221282 4.64775 0.142975C4.35637 0.0596766 4.05601 0.0118308 3.75317 0.000475116C3.40772 -0.00434348 3.06273 0.0275021 2.724 0.0954758C2.38544 0.158951 2.05931 0.276568 1.75817 0.443808C1.46056 0.605956 1.20346 0.83329 1.00609 1.10881C0.798936 1.40996 0.683449 1.76467 0.673587 2.13006C0.659431 2.4538 0.757286 2.77253 0.950669 3.03256C1.0389 3.16099 1.14561 3.2757 1.26734 3.37298L1.0615 3.46797C0.874556 3.56596 0.701504 3.68843 0.54692 3.83214C0.394713 3.97538 0.26878 4.14418 0.174836 4.33089C0.0697701 4.53711 0.0129237 4.76449 0.00858691 4.99589C-0.0268734 5.33502 0.0480945 5.67654 0.222337 5.96964C0.383872 6.23681 0.606318 6.46196 0.871504 6.62673C1.14444 6.78979 1.44082 6.90994 1.75025 6.98297C2.06242 7.05269 2.38053 7.09245 2.70025 7.10172H2.81109C3.12729 7.10561 3.44304 7.07643 3.75317 7.01464C4.10135 6.94211 4.43551 6.81379 4.74275 6.63464C5.05 6.45689 5.31905 6.22013 5.53442 5.93798C5.74877 5.63103 5.87972 5.27366 5.91442 4.90089V4.67131H4.33109V4.83756C4.30015 4.99295 4.2292 5.13757 4.12525 5.25714C4.01735 5.38337 3.88887 5.49044 3.74525 5.57381C3.58873 5.6602 3.42083 5.72416 3.2465 5.76381C2.92092 5.83893 2.5825 5.83893 2.25692 5.76381C2.11273 5.73532 1.97384 5.68458 1.84525 5.61339C1.74181 5.55096 1.65277 5.46732 1.584 5.36798C1.52674 5.2701 1.50705 5.15473 1.52859 5.04339C1.54341 4.88584 1.60089 4.73531 1.69484 4.60798C1.78986 4.49055 1.91216 4.39814 2.05109 4.33881C2.20424 4.25787 2.37034 4.20429 2.54192 4.18048C2.72496 4.14897 2.91035 4.13308 3.09609 4.13297H4.45775L4.70317 2.82672H3.11984C2.97603 2.8266 2.83267 2.81067 2.69234 2.77923C2.57434 2.76367 2.46099 2.72319 2.35984 2.66048C2.28167 2.61395 2.21636 2.54864 2.16984 2.47048C2.13904 2.36717 2.13904 2.25712 2.16984 2.15381C2.18872 2.01649 2.24639 1.88741 2.33609 1.78173C2.43415 1.6708 2.55235 1.57947 2.68442 1.51256C2.83481 1.44012 2.99475 1.38947 3.15942 1.36214C3.32307 1.32505 3.49037 1.30646 3.65817 1.30672C3.80781 1.31171 3.95646 1.33295 4.1015 1.37006C4.23004 1.40077 4.35293 1.45153 4.46567 1.52048C4.56431 1.58429 4.64584 1.67126 4.70317 1.77381C4.75981 1.87805 4.78716 1.99569 4.78234 2.11423V2.32798L6.31817 2.34381Z" fill="white"/>
</svg>
