<svg width="7" height="10" viewBox="0 0 7 10" fill="none" xmlns="http://www.w3.org/2000/svg">
<path d="M6.33333 1.67984C6.28675 1.36276 6.17049 1.05995 5.99292 0.793169C5.82736 0.540183 5.59797 0.33537 5.32792 0.199419C5.00145 0.0564708 4.647 -0.0111727 4.29083 0.00150274C3.86957 -0.00833271 3.45191 0.0811657 3.07167 0.262753C2.89361 0.355922 2.72407 0.464532 2.565 0.587336L2.64417 0.112336H1.22708L0 7.01567H1.58333L2.375 2.17859C2.54529 1.92758 2.76315 1.71241 3.01625 1.54525C3.27627 1.38158 3.58017 1.30146 3.88708 1.31567C4.0597 1.31327 4.23048 1.35122 4.38583 1.4265C4.49554 1.48028 4.58656 1.56578 4.64708 1.67192C4.71699 1.79852 4.75757 1.9392 4.76583 2.08359C4.78554 2.26778 4.78554 2.45356 4.76583 2.63775L3.59417 9.5015H5.13L6.33333 2.67734C6.38086 2.34653 6.38086 2.01064 6.33333 1.67984Z" fill="white"/>
</svg>
