<svg width="7" height="8" viewBox="0 0 7 8" fill="none" xmlns="http://www.w3.org/2000/svg">
<path fill-rule="evenodd" clip-rule="evenodd" d="M2.969 7.91924C2.38312 7.91777 1.81056 7.74435 1.32233 7.42049C0.852874 7.09614 0.49159 6.63832 0.285248 6.10633C0.0519261 5.51836 -0.0402643 4.88388 0.0160816 4.25383V3.96091C0.0810783 3.22595 0.302411 2.51336 0.665248 1.87091C0.979181 1.29658 1.43416 0.811625 1.98733 0.461742C2.51445 0.137269 3.12637 -0.0226021 3.74483 0.00257577C4.14934 -0.00871949 4.55004 0.0835321 4.90888 0.270577C5.26773 0.457622 5.57284 0.733256 5.79525 1.07133C6.29207 1.88079 6.48825 2.83926 6.34941 3.77883L6.25441 4.51508H1.59941C1.53082 5.02703 1.65497 5.5462 1.94775 5.97174C2.07656 6.15093 2.24677 6.29634 2.44388 6.39558C2.641 6.49483 2.85917 6.54497 3.07983 6.54174C3.44803 6.54181 3.81136 6.45766 4.14204 6.29575C4.47273 6.13384 4.762 5.89845 4.98775 5.60758L5.77942 6.49424C5.47964 6.94845 5.06429 7.31462 4.57608 7.55508C4.0652 7.8092 3.49982 7.93424 2.92942 7.91924M3.61816 1.37216C2.77108 1.37216 2.12983 1.97383 1.71025 3.24841H4.76608V3.09799C4.79765 2.88806 4.79765 2.67459 4.76608 2.46466C4.73308 2.16687 4.60222 1.88844 4.394 1.67299C4.17644 1.47723 3.89499 1.36746 3.60233 1.36424" fill="white"/>
</svg>
