<svg width="15" height="12" viewBox="0 0 15 12" fill="none" xmlns="http://www.w3.org/2000/svg">
<path fill-rule="evenodd" clip-rule="evenodd" d="M2.969 11.8743C2.38312 11.8728 1.81056 11.6994 1.32233 11.3756C0.852874 11.0512 0.49159 10.5934 0.285248 10.0614C0.0519261 9.47344 -0.0402643 8.83896 0.0160816 8.2089V7.91599C0.0810783 7.18102 0.302411 6.46844 0.665248 5.82599C0.979181 5.25166 1.43416 4.7667 1.98733 4.41682C2.51445 4.09235 3.12637 3.93248 3.74483 3.95765C4.14934 3.94636 4.55004 4.03861 4.90888 4.22565C5.26773 4.4127 5.57284 4.68833 5.79525 5.0264C6.29207 5.83587 6.48825 6.79433 6.34941 7.7339L6.25441 8.47015H1.59941C1.53082 8.98211 1.65497 9.50128 1.94775 9.92682C2.07656 10.106 2.24677 10.2514 2.44388 10.3507C2.641 10.4499 2.85917 10.5 3.07983 10.4968C3.44803 10.4969 3.81136 10.4127 4.14204 10.2508C4.47273 10.0889 4.762 9.85353 4.98775 9.56265L5.77942 10.4493C5.47964 10.9035 5.06429 11.2697 4.57608 11.5102C4.0652 11.7643 3.49982 11.8893 2.92942 11.8743M3.61816 5.32724C2.77108 5.32724 2.12983 5.9289 1.71025 7.20349H4.76608V7.05307C4.79765 6.84314 4.79765 6.62967 4.76608 6.41974C4.73308 6.12194 4.60222 5.84351 4.394 5.62807C4.17644 5.43231 3.89499 5.32254 3.60233 5.31932" fill="white"/>
<path d="M12.6826 1.58333V4.75H9.51595V1.58333H12.6826ZM14.266 0H7.93262V6.33333H14.266V0Z" fill="white"/>
</svg>
