<svg xmlns="http://www.w3.org/2000/svg" class="sc-8848da46-1 iPkfYx _gHdu" viewBox="0 0 20 20"><path class="mainColor" d="M6.09,15a1.45,1.45,0,0,1,.06-.56L7.27,11,4.43,8.88a1.39,1.39,0,0,1-.37-.41A.54.54,0,0,1,4,8a.59.59,0,0,1,.27-.33,1.17,1.17,0,0,1,.53-.1l3.47,0L9.36,4.16a1.18,1.18,0,0,1,.26-.49.51.51,0,0,1,.76,0,1.18,1.18,0,0,1,.26.49L11.7,7.63l3.48,0a1.15,1.15,0,0,1,.52.1A.63.63,0,0,1,16,8a.54.54,0,0,1,0,.43,1.16,1.16,0,0,1-.37.41L12.74,11l1.11,3.45a1.14,1.14,0,0,1,.06.56.56.56,0,0,1-.21.37.49.49,0,0,1-.41.1,1.2,1.2,0,0,1-.48-.24L10,13.09,7.19,15.25a1.2,1.2,0,0,1-.48.24.5.5,0,0,1-.41-.1A.66.66,0,0,1,6.09,15" fill="#777" fill-rule="evenodd"/></svg>