<svg xmlns="http://www.w3.org/2000/svg" class="sc-8848da46-1 iPkfYx _gHdu" viewBox="0 0 20 20"><path class="mainColor" d="M8,5.37,7.29,9.51a2.46,2.46,0,0,0,0,.54c0,.19.08.3.23.3s.06,0,.13,0l0,1.28a1.8,1.8,0,0,1-.66.12,1.42,1.42,0,0,1-.81-.25,1.19,1.19,0,0,1-.45-.71,2.55,2.55,0,0,1-.81.75,1.75,1.75,0,0,1-.89.22,1.92,1.92,0,0,1-1-.3,1.94,1.94,0,0,1-.69-.84A3.2,3.2,0,0,1,2,9.39a4.19,4.19,0,0,1,0-.71l0-.25a5.26,5.26,0,0,1,.53-1.72,2.83,2.83,0,0,1,1-1.11,2.23,2.23,0,0,1,1.3-.35,1.53,1.53,0,0,1,1.39.88l.29-.76ZM3.67,8.71l0,.35v.15c0,.78.27,1.18.83,1.19a1.39,1.39,0,0,0,1.1-.55L6.05,7.2a.88.88,0,0,0-.84-.6A1.28,1.28,0,0,0,4,7.45,4.55,4.55,0,0,0,3.67,8.71Z" fill="#777" fill-rule="evenodd"/><path class="mainColor" d="M12.07,8.28l-.75,1.45a5.7,5.7,0,0,0-.61,2.34c-.05.85.15,1.28.61,1.31s1-.43,1.2-1.43l.38-2.28h1.8l-.34,2.07a4.29,4.29,0,0,0,0,.64c0,.65.22,1,.66,1s.95-.48,1.18-1.51a7.31,7.31,0,0,0,.14-2.13A5.12,5.12,0,0,0,16,8.25l1.56,0A4.39,4.39,0,0,1,18,9.73a6.87,6.87,0,0,1-.18,2.46,3.71,3.71,0,0,1-1.05,1.92,2.48,2.48,0,0,1-1.81.63,1.82,1.82,0,0,1-1.07-.34,1.58,1.58,0,0,1-.64-.91,3,3,0,0,1-.94,1,2,2,0,0,1-1.12.3A2,2,0,0,1,9.55,14,3,3,0,0,1,9,12.12a5.83,5.83,0,0,1,.34-2,6.67,6.67,0,0,1,1-1.82Z" fill="#777" fill-rule="evenodd"/></svg>