<svg width="7" height="10" viewBox="0 0 7 10" fill="none" xmlns="http://www.w3.org/2000/svg">
<path d="M6.33333 4.36208C6.29848 4.0593 6.19855 3.76763 6.04042 3.50708C5.88192 3.25476 5.66107 3.04753 5.39917 2.90542C5.09555 2.75081 4.75809 2.67461 4.4175 2.68375C3.9956 2.66689 3.57627 2.75674 3.19833 2.945C3.02649 3.03117 2.86228 3.13181 2.7075 3.24583L2.88167 2.29583H4.59167L4.82917 0.934167H3.10333L3.2775 0H1.69417L1.58333 0.934167H0.538334L0.300833 2.29583H1.32208L0 9.89583H1.58333L2.375 5.01125C2.46607 4.88254 2.56663 4.76081 2.67583 4.64708C2.7877 4.53105 2.90956 4.42508 3.04 4.33042C3.17288 4.24539 3.31669 4.17881 3.4675 4.1325C3.62092 4.0838 3.78168 4.06236 3.9425 4.06917C4.10104 4.06264 4.25874 4.09526 4.40167 4.16417C4.50289 4.21687 4.58776 4.29626 4.64708 4.39375C4.70744 4.50674 4.74509 4.63046 4.75792 4.75792C4.78163 4.92332 4.78163 5.09126 4.75792 5.25667L3.96625 9.89583H5.54958L6.34125 5.33583C6.37822 5.01214 6.37556 4.68514 6.33333 4.36208Z" fill="white"/>
</svg>
