<svg width="31" height="10" viewBox="0 0 31 10" fill="none" xmlns="http://www.w3.org/2000/svg">
<path d="M20.5833 2.85792H19V2.06625H20.5833V2.85792ZM22.8554 3.99H21.9529V1.14792L20.8763 1.49625V0.704584L22.7525 0H22.8554V3.99ZM2.29583 3.11125V4.44125H3.23V5.50208H2.29583V8.2175C2.28207 8.37217 2.3242 8.52665 2.41458 8.65292C2.47558 8.70374 2.54653 8.74126 2.62287 8.76308C2.69921 8.78489 2.77927 8.79051 2.85792 8.77958C2.99746 8.7929 3.13796 8.7929 3.2775 8.77958V9.88C2.9839 9.96128 2.67936 9.99601 2.375 9.98292C2.16312 10.0152 1.94663 9.99795 1.74255 9.93243C1.53848 9.86691 1.35239 9.75493 1.19893 9.6053C1.04547 9.45567 0.928815 9.27248 0.858146 9.07013C0.787477 8.86778 0.764721 8.6518 0.791667 8.43917V5.51H0V4.44125H0.791667V3.11125H2.29583ZM7.18833 9.88792C7.1126 9.73327 7.06183 9.56761 7.03792 9.39708C6.86646 9.58907 6.65492 9.74105 6.41826 9.84228C6.1816 9.94351 5.92559 9.99152 5.66833 9.98292C5.18562 10.0013 4.71366 9.83737 4.34625 9.52375C4.18122 9.38638 4.04823 9.21457 3.95661 9.02038C3.86498 8.82619 3.81693 8.6143 3.81583 8.39958C3.80662 8.14248 3.8602 7.887 3.97193 7.65526C4.08367 7.42352 4.25019 7.22249 4.45708 7.06958C5.01393 6.70821 5.67027 6.53097 6.33333 6.56292H7.00625V6.25417C7.01859 6.0334 6.948 5.81599 6.80833 5.64458C6.72814 5.56669 6.63235 5.50666 6.52729 5.46845C6.42222 5.43025 6.31025 5.41473 6.19875 5.42292C5.99151 5.41022 5.78655 5.47199 5.62083 5.59708C5.55272 5.65716 5.49888 5.7317 5.46327 5.81525C5.42766 5.8988 5.41117 5.98926 5.415 6.08H3.95833C3.95662 5.76653 4.05662 5.46097 4.24333 5.20917C4.45754 4.92627 4.74498 4.70727 5.07458 4.57583C5.45325 4.41865 5.86005 4.34052 6.27 4.34625C6.84158 4.31888 7.40383 4.4988 7.85333 4.85292C8.05361 5.02837 8.21119 5.24722 8.31409 5.49279C8.41698 5.73837 8.46247 6.00419 8.44708 6.27V8.645C8.42512 9.04694 8.49835 9.44838 8.66083 9.81667V9.90375L7.18833 9.88792ZM5.985 8.87458C6.19158 8.87621 6.39542 8.82729 6.57875 8.73208C6.75074 8.6484 6.89201 8.51267 6.9825 8.34417V7.41H6.43625C5.70792 7.41 5.32 7.66333 5.28042 8.16208V8.24917C5.27818 8.33357 5.29397 8.41747 5.32674 8.49529C5.3595 8.5731 5.40848 8.64303 5.47042 8.70042C5.61603 8.81735 5.7983 8.87904 5.985 8.87458ZM10.8854 4.44125L10.9329 5.06667C11.12 4.82823 11.3612 4.6378 11.6366 4.51115C11.9119 4.38449 12.2135 4.32525 12.5162 4.33833C12.7544 4.32061 12.9935 4.35697 13.2156 4.44472C13.4377 4.53246 13.637 4.6693 13.7988 4.845C14.1206 5.28716 14.28 5.82685 14.25 6.37292V9.88792H12.7617V6.40458C12.7839 6.16324 12.7131 5.92251 12.5638 5.73167C12.3753 5.5772 12.1335 5.50325 11.8908 5.52583C11.7044 5.51913 11.5197 5.56445 11.3575 5.65673C11.1953 5.74901 11.062 5.8846 10.9725 6.04833V9.88792H9.5V4.44125H10.8854ZM16.7358 5.04292C16.9091 4.81902 17.1327 4.63922 17.3886 4.51816C17.6445 4.39709 17.9254 4.33819 18.2083 4.34625C19.3879 4.34625 19.9896 5.035 20.0054 6.40458V9.88792H18.525V6.44417C18.5471 6.19549 18.4766 5.94741 18.3271 5.7475C18.2359 5.66668 18.1292 5.60533 18.0135 5.56721C17.8978 5.5291 17.7755 5.51501 17.6542 5.52583C17.4706 5.51422 17.2874 5.554 17.1252 5.6407C16.963 5.7274 16.8282 5.85759 16.7358 6.01667V9.88792H15.2792V2.16125H16.7358V5.04292Z" fill="white"/>
<path d="M28.5 5.23372V8.40039H25.3333V5.23372H28.5ZM30.0833 3.65039H23.75V9.98372H30.0833V3.65039Z" fill="white"/>
</svg>
