<svg width="30" height="10" viewBox="0 0 30 10" fill="none" xmlns="http://www.w3.org/2000/svg">
<path d="M19.4671 2.85792H17.8838V2.06625H19.4671V2.85792ZM21.7392 3.99H20.8367V1.14792L19.76 1.49625V0.704584L21.6363 0H21.7392V3.99ZM3.17462 8.39958C3.17468 8.31221 3.15022 8.22657 3.10404 8.1524C3.05786 8.07823 2.9918 8.0185 2.91337 7.98C2.64288 7.8377 2.35168 7.73885 2.05045 7.68708C0.760037 7.41792 0.11087 6.89542 0.11087 6.04042C0.108375 5.80535 0.161596 5.57304 0.266176 5.3625C0.370755 5.15197 0.523718 4.9692 0.712537 4.82917C1.16724 4.48727 1.72776 4.31631 2.29587 4.34625C2.89005 4.3133 3.47737 4.48669 3.95837 4.83708C4.15492 4.98361 4.31354 5.17505 4.42097 5.39542C4.52839 5.61578 4.58151 5.85866 4.57587 6.10375H3.1192C3.12267 6.00787 3.10695 5.91226 3.07296 5.82253C3.03897 5.73281 2.98741 5.65077 2.92129 5.58125C2.83543 5.50834 2.7359 5.45328 2.62851 5.41929C2.52113 5.38531 2.40804 5.37309 2.29587 5.38333C2.09226 5.37027 1.89053 5.4291 1.72587 5.54958C1.66185 5.59871 1.61049 5.66241 1.57607 5.73539C1.54164 5.80837 1.52515 5.88852 1.52795 5.96917C1.52725 6.04766 1.5474 6.12493 1.58635 6.19309C1.62529 6.26125 1.68164 6.31784 1.74962 6.35708C1.99686 6.48825 2.26454 6.57658 2.54129 6.61833C2.85012 6.67532 3.15439 6.7547 3.4517 6.85583C3.78041 6.93552 4.0729 7.1231 4.28243 7.38861C4.49197 7.65411 4.60643 7.9822 4.60754 8.32042C4.61047 8.55874 4.55324 8.79394 4.44116 9.00428C4.32907 9.21461 4.16574 9.39328 3.96629 9.52375C3.47602 9.85183 2.89294 10.0129 2.30379 9.98292C1.88673 9.99307 1.47275 9.90919 1.09254 9.7375C0.773553 9.59121 0.500024 9.36145 0.30087 9.0725C0.103365 8.80726 -0.00225274 8.48485 3.64419e-05 8.15417H1.33004C1.33311 8.26841 1.36088 8.38064 1.41145 8.48313C1.46201 8.58563 1.53416 8.67596 1.62295 8.74792C1.83087 8.89402 2.08165 8.96647 2.33545 8.95375C2.55536 8.96771 2.7741 8.91234 2.96087 8.79542C3.02547 8.75125 3.07858 8.69229 3.11576 8.62343C3.15295 8.55457 3.17313 8.47782 3.17462 8.39958ZM5.51795 3.04C5.51439 2.94036 5.53155 2.84107 5.56834 2.7484C5.60514 2.65574 5.66076 2.57172 5.7317 2.50167C5.81073 2.42723 5.90422 2.36984 6.00636 2.33307C6.1085 2.2963 6.21712 2.28093 6.32545 2.28792C6.43379 2.28093 6.5424 2.2963 6.64455 2.33307C6.74669 2.36984 6.84018 2.42723 6.9192 2.50167C6.99279 2.5701 7.0507 2.65365 7.08897 2.74657C7.12723 2.83949 7.14493 2.93959 7.14087 3.04C7.14504 3.14159 7.12741 3.24291 7.08918 3.33713C7.05095 3.43134 6.99299 3.51629 6.9192 3.58625C6.75419 3.72705 6.54221 3.80054 6.32545 3.79208C6.11104 3.8009 5.9014 3.72724 5.73962 3.58625C5.66583 3.51629 5.60788 3.43134 5.56964 3.33713C5.53141 3.24291 5.51378 3.14159 5.51795 3.04ZM7.05379 9.88792H5.59712V4.44125H7.05379V9.88792ZM9.58712 4.44125L9.63462 5.06667C9.82172 4.82823 10.0629 4.6378 10.3383 4.51115C10.6136 4.38449 10.9152 4.32525 11.218 4.33833C11.4574 4.31938 11.698 4.35515 11.9216 4.44293C12.1451 4.53071 12.3458 4.6682 12.5084 4.845C12.8229 5.28707 12.9765 5.82347 12.9438 6.365V9.88H11.4634V6.39667C11.4857 6.15533 11.4148 5.9146 11.2655 5.72375C11.077 5.56929 10.8352 5.49533 10.5925 5.51792C10.4061 5.51121 10.2214 5.55653 10.0592 5.64881C9.89702 5.74109 9.76371 5.87668 9.6742 6.04042V9.88H8.22545V4.44125H9.58712ZM15.4375 5.04292C15.6075 4.82136 15.8272 4.64287 16.0789 4.52186C16.3305 4.40084 16.6071 4.34069 16.8863 4.34625C18.0659 4.34625 18.6675 5.035 18.6834 6.40458V9.88792H17.2267V6.44417C17.2488 6.19549 17.1783 5.94741 17.0288 5.7475C16.9376 5.66668 16.8309 5.60533 16.7152 5.56721C16.5995 5.5291 16.4772 5.51501 16.3559 5.52583C16.1723 5.51422 15.9891 5.554 15.8269 5.6407C15.6647 5.7274 15.5299 5.85759 15.4375 6.01667V9.88792H13.9809V2.16125H15.4375V5.04292Z" fill="white"/>
<path d="M28.1748 5.23372V8.40039H25.0081V5.23372H28.1748ZM29.7581 3.65039H23.4248V9.98372H29.7581V3.65039Z" fill="white"/>
</svg>
