<svg width="32" height="10" viewBox="0 0 32 10" fill="none" xmlns="http://www.w3.org/2000/svg">
<path d="M21.8393 2.85792H20.256V2.06625H21.8393V2.85792ZM24.1114 3.99H23.2089V1.14792L22.1322 1.49625V0.704584L24.0085 0H24.1114V3.99ZM2.49096 8.81125C2.72999 8.82202 2.96439 8.74294 3.14804 8.58958C3.23005 8.51557 3.29567 8.42521 3.34066 8.32431C3.38565 8.22342 3.40903 8.11422 3.40929 8.00375H4.77096C4.76855 8.36318 4.66424 8.71456 4.47013 9.01708C4.2763 9.32246 4.0025 9.56888 3.67846 9.72958C3.31712 9.90799 2.91751 9.99498 2.51471 9.98292C2.17364 9.99945 1.83301 9.94223 1.51605 9.81518C1.19909 9.68812 0.913261 9.49421 0.678044 9.24667C0.201678 8.67335 -0.0388807 7.94035 0.00512706 7.19625V7.10125C-0.0328744 6.37375 0.204556 5.65864 0.670127 5.09833C0.903914 4.84793 1.18911 4.65106 1.50613 4.52124C1.82316 4.39143 2.16452 4.33173 2.50679 4.34625C3.10779 4.31588 3.69655 4.52351 4.14554 4.92417C4.3516 5.12371 4.51368 5.36411 4.62138 5.62995C4.72908 5.8958 4.78003 6.18122 4.77096 6.46792H3.40929C3.41017 6.21396 3.31712 5.96865 3.14804 5.77917C3.06138 5.69188 2.95751 5.62357 2.84302 5.5786C2.72854 5.53362 2.60595 5.51296 2.48304 5.51792C2.3299 5.50376 2.17576 5.53079 2.03657 5.59621C1.89738 5.66163 1.7782 5.76306 1.69138 5.89C1.48789 6.25383 1.39697 6.66987 1.43013 7.08542V7.23583C1.39618 7.65649 1.48706 8.07782 1.69138 8.44708C1.78041 8.57321 1.90137 8.67341 2.04188 8.7374C2.18238 8.80139 2.33737 8.82688 2.49096 8.81125ZM5.37263 7.11708C5.36344 6.61946 5.46909 6.12641 5.68138 5.67625C5.87391 5.26641 6.18572 4.92425 6.57596 4.69458C6.99041 4.45849 7.46072 4.33818 7.93763 4.34625C8.26692 4.33285 8.59556 4.38549 8.90419 4.50106C9.21282 4.61662 9.49521 4.79279 9.73471 5.01917C10.2215 5.50594 10.5046 6.15986 10.5264 6.84792V7.22C10.5595 7.95604 10.3071 8.67644 9.82179 9.23083C9.58222 9.48245 9.29149 9.67977 8.9692 9.80951C8.6469 9.93925 8.30054 9.99838 7.95346 9.98292C7.60394 9.99912 7.25499 9.94039 6.93003 9.81068C6.60506 9.68097 6.31159 9.48326 6.06929 9.23083C5.58006 8.66351 5.33028 7.92835 5.37263 7.18042V7.11708ZM6.82138 7.22C6.79706 7.63381 6.89922 8.04522 7.11429 8.39958C7.21273 8.5262 7.33879 8.62865 7.48285 8.69912C7.62691 8.7696 7.78517 8.80624 7.94554 8.80624C8.10592 8.80624 8.26418 8.7696 8.40824 8.69912C8.5523 8.62865 8.67836 8.5262 8.77679 8.39958C9.00417 8.00665 9.10635 7.55374 9.06971 7.10125C9.096 6.68976 8.99363 6.28029 8.77679 5.92958C8.68465 5.79355 8.55906 5.6835 8.4121 5.61002C8.26514 5.53654 8.10174 5.5021 7.93763 5.51C7.78193 5.50785 7.62812 5.54432 7.48996 5.61616C7.35181 5.688 7.23362 5.79297 7.14596 5.92167C6.90336 6.31019 6.78208 6.76222 6.79763 7.22H6.82138ZM14.358 8.39958C14.3581 8.31221 14.3336 8.22657 14.2875 8.1524C14.2413 8.07823 14.1752 8.0185 14.0968 7.98C13.8303 7.84474 13.5446 7.75129 13.2497 7.70292C11.9593 7.43375 11.3101 6.91125 11.3101 6.05625C11.3076 5.82119 11.3609 5.58887 11.4654 5.37834C11.57 5.1678 11.723 4.98503 11.9118 4.845C12.3665 4.50311 12.927 4.33215 13.4951 4.36208C14.0893 4.32913 14.6766 4.50253 15.1576 4.85292C15.3542 4.99944 15.5128 5.19088 15.6202 5.41125C15.7277 5.63161 15.7808 5.87449 15.7751 6.11958H14.3026C14.3061 6.0237 14.2904 5.92809 14.2564 5.83836C14.2224 5.74864 14.1708 5.66661 14.1047 5.59708C14.0189 5.52417 13.9193 5.46911 13.8119 5.43513C13.7045 5.40114 13.5915 5.38892 13.4793 5.39917C13.2757 5.3861 13.074 5.44494 12.9093 5.56542C12.8453 5.61454 12.7939 5.67824 12.7595 5.75122C12.7251 5.82421 12.7086 5.90436 12.7114 5.985C12.7107 6.0635 12.7308 6.14077 12.7698 6.20892C12.8087 6.27708 12.8651 6.33367 12.933 6.37292C13.1803 6.50408 13.448 6.59242 13.7247 6.63417C14.0335 6.69115 14.3378 6.77053 14.6351 6.87167C14.9638 6.95135 15.2563 7.13894 15.4659 7.40444C15.6754 7.66994 15.7899 7.99803 15.791 8.33625C15.7939 8.57457 15.7367 8.80978 15.6246 9.02011C15.5125 9.23045 15.3492 9.40912 15.1497 9.53958C14.6639 9.86438 14.0869 10.0253 13.503 9.99875C13.086 10.0089 12.672 9.92502 12.2918 9.75333C11.9583 9.61317 11.6705 9.3829 11.4605 9.08833C11.263 8.8231 11.1574 8.50069 11.1597 8.17H12.5293C12.5324 8.28425 12.5601 8.39647 12.6107 8.49897C12.6613 8.60146 12.7334 8.69179 12.8222 8.76375C13.0301 8.90986 13.2809 8.9823 13.5347 8.96958C13.7546 8.98355 13.9734 8.92817 14.1601 8.81125C14.224 8.76381 14.2754 8.70156 14.3099 8.62984C14.3444 8.55813 14.3609 8.4791 14.358 8.39958ZM18.1264 5.04292C18.2976 4.82275 18.5175 4.64527 18.7689 4.5244C19.0203 4.40352 19.2962 4.34254 19.5751 4.34625C20.7547 4.34625 21.3564 5.035 21.3722 6.40458V9.88792H19.9235V6.44417C19.9433 6.19449 19.87 5.9463 19.7176 5.7475C19.6277 5.6673 19.5223 5.60627 19.408 5.56816C19.2936 5.53005 19.1727 5.51565 19.0526 5.52583C18.8679 5.51363 18.6834 5.55308 18.5198 5.63977C18.3562 5.72646 18.22 5.85696 18.1264 6.01667V9.88792H16.6697V2.16125H18.1264V5.04292Z" fill="white"/>
<path d="M29.7559 5.23372V8.40039H26.5892V5.23372H29.7559ZM31.3392 3.65039H25.0059V9.98372H31.3392V3.65039Z" fill="white"/>
</svg>
