<svg width="28" height="8" viewBox="0 0 28 8" fill="none" xmlns="http://www.w3.org/2000/svg">
<path d="M3.17462 6.23833C3.17468 6.15096 3.15022 6.06532 3.10404 5.99115C3.05786 5.91698 2.9918 5.85725 2.91337 5.81875C2.64288 5.67645 2.35168 5.5776 2.05045 5.52583C0.760037 5.25667 0.11087 4.73417 0.11087 3.87917C0.108375 3.6441 0.161596 3.41179 0.266176 3.20125C0.370755 2.99072 0.523718 2.80795 0.712537 2.66792C1.16724 2.32602 1.72776 2.15506 2.29587 2.185C2.89005 2.15204 3.47737 2.32544 3.95837 2.67583C4.15492 2.82236 4.31354 3.0138 4.42097 3.23417C4.52839 3.45453 4.58151 3.69741 4.57587 3.9425H3.1192C3.12267 3.84662 3.10695 3.75101 3.07296 3.66128C3.03897 3.57156 2.98741 3.48952 2.92129 3.42C2.83543 3.34709 2.7359 3.29203 2.62851 3.25804C2.52113 3.22406 2.40804 3.21183 2.29587 3.22208C2.09226 3.20902 1.89053 3.26785 1.72587 3.38833C1.66185 3.43746 1.61049 3.50116 1.57607 3.57414C1.54164 3.64712 1.52515 3.72727 1.52795 3.80792C1.52725 3.88641 1.5474 3.96368 1.58635 4.03184C1.62529 4.09999 1.68164 4.15659 1.74962 4.19583C1.99686 4.327 2.26454 4.41533 2.54129 4.45708C2.85012 4.51407 3.15439 4.59345 3.4517 4.69458C3.78041 4.77427 4.0729 4.96185 4.28243 5.22736C4.49197 5.49286 4.60643 5.82094 4.60754 6.15917C4.61047 6.39748 4.55324 6.63269 4.44116 6.84303C4.32907 7.05336 4.16574 7.23203 3.96629 7.3625C3.47602 7.69058 2.89294 7.85162 2.30379 7.82167C1.88673 7.83182 1.47275 7.74794 1.09254 7.57625C0.773553 7.42996 0.500024 7.2002 0.30087 6.91125C0.103365 6.64601 -0.00225274 6.3236 3.64419e-05 5.99292H1.33004C1.33311 6.10716 1.36088 6.21939 1.41145 6.32188C1.46201 6.42438 1.53416 6.51471 1.62295 6.58667C1.83087 6.73277 2.08165 6.80522 2.33545 6.7925C2.55536 6.80646 2.7741 6.75109 2.96087 6.63417C3.02547 6.59 3.07858 6.53104 3.11576 6.46218C3.15295 6.39332 3.17313 6.31657 3.17462 6.23833ZM5.51795 0.878749C5.51439 0.779111 5.53155 0.679819 5.56834 0.587154C5.60514 0.49449 5.66076 0.410472 5.7317 0.340415C5.81073 0.26598 5.90422 0.208594 6.00636 0.171823C6.1085 0.135051 6.21712 0.119681 6.32545 0.126667C6.43379 0.119681 6.5424 0.135051 6.64455 0.171823C6.74669 0.208594 6.84018 0.26598 6.9192 0.340415C6.99279 0.40885 7.0507 0.492396 7.08897 0.585318C7.12723 0.678241 7.14493 0.77834 7.14087 0.878749C7.14504 0.980345 7.12741 1.08166 7.08918 1.17587C7.05095 1.27009 6.99299 1.35504 6.9192 1.425C6.75419 1.5658 6.54221 1.63929 6.32545 1.63083C6.11104 1.63965 5.9014 1.56599 5.73962 1.425C5.66583 1.35504 5.60788 1.27009 5.56964 1.17587C5.53141 1.08166 5.51378 0.980345 5.51795 0.878749ZM7.05379 7.72667H5.59712V2.28H7.05379V7.72667ZM9.58712 2.28L9.63462 2.90542C9.82172 2.66698 10.0629 2.47655 10.3383 2.3499C10.6136 2.22324 10.9152 2.164 11.218 2.17708C11.4574 2.15813 11.698 2.1939 11.9216 2.28168C12.1451 2.36946 12.3458 2.50695 12.5084 2.68375C12.8229 3.12581 12.9765 3.66222 12.9438 4.20375V7.71875H11.4634V4.23542C11.4857 3.99408 11.4148 3.75335 11.2655 3.5625C11.077 3.40804 10.8352 3.33408 10.5925 3.35667C10.4061 3.34996 10.2214 3.39528 10.0592 3.48756C9.89702 3.57984 9.76371 3.71543 9.6742 3.87917V7.71875H8.22545V2.28H9.58712ZM15.4375 2.88167C15.6075 2.66011 15.8272 2.48162 16.0789 2.36061C16.3305 2.23959 16.6071 2.17943 16.8863 2.185C18.0659 2.185 18.6675 2.87375 18.6834 4.24333V7.72667H17.2267V4.28292C17.2488 4.03424 17.1783 3.78616 17.0288 3.58625C16.9376 3.50543 16.8309 3.44408 16.7152 3.40596C16.5995 3.36784 16.4772 3.35376 16.3559 3.36458C16.1723 3.35297 15.9891 3.39275 15.8269 3.47945C15.6647 3.56615 15.5299 3.69634 15.4375 3.85542V7.72667H13.9809V0H15.4375V2.88167Z" fill="white"/>
<path d="M25.8008 3.07161V6.23828H22.6341V3.07161H25.8008ZM27.3841 1.48828H21.0508V7.82161H27.3841V1.48828Z" fill="white"/>
</svg>
