<svg width="32" height="10" viewBox="0 0 32 10" fill="none" xmlns="http://www.w3.org/2000/svg">
<path d="M21.8393 2.85792H20.256V2.06625H21.8393V2.85792ZM24.1114 3.99H23.2089V1.14792L22.1322 1.49625V0.704584L24.0085 0H24.1114V3.99ZM2.49096 8.81125C2.72999 8.82202 2.96439 8.74294 3.14804 8.58958C3.23005 8.51557 3.29567 8.42521 3.34066 8.32431C3.38565 8.22342 3.40903 8.11422 3.40929 8.00375H4.77096C4.76855 8.36318 4.66424 8.71456 4.47013 9.01708C4.2763 9.32246 4.0025 9.56888 3.67846 9.72958C3.31712 9.90799 2.91751 9.99498 2.51471 9.98292C2.17364 9.99945 1.83301 9.94223 1.51605 9.81518C1.19909 9.68812 0.913261 9.49421 0.678044 9.24667C0.201678 8.67335 -0.0388807 7.94035 0.00512706 7.19625V7.10125C-0.0328744 6.37375 0.204556 5.65864 0.670127 5.09833C0.903914 4.84793 1.18911 4.65106 1.50613 4.52124C1.82316 4.39143 2.16452 4.33173 2.50679 4.34625C3.10779 4.31588 3.69655 4.52351 4.14554 4.92417C4.3516 5.12371 4.51368 5.36411 4.62138 5.62995C4.72908 5.8958 4.78003 6.18122 4.77096 6.46792H3.40929C3.41017 6.21396 3.31712 5.96865 3.14804 5.77917C3.06138 5.69188 2.95751 5.62357 2.84302 5.5786C2.72854 5.53362 2.60595 5.51296 2.48304 5.51792C2.3299 5.50376 2.17576 5.53079 2.03657 5.59621C1.89738 5.66163 1.7782 5.76306 1.69138 5.89C1.48789 6.25383 1.39697 6.66987 1.43013 7.08542V7.23583C1.39618 7.65649 1.48706 8.07782 1.69138 8.44708C1.78041 8.57321 1.90137 8.67341 2.04188 8.7374C2.18238 8.80139 2.33737 8.82688 2.49096 8.81125ZM8.53929 8.39958C8.53935 8.31221 8.5149 8.22657 8.46872 8.1524C8.42253 8.07823 8.35648 8.0185 8.27804 7.98C8.01157 7.84474 7.72586 7.75129 7.43096 7.70292C6.14054 7.43375 5.49138 6.91125 5.49138 6.05625C5.48888 5.82119 5.5421 5.58887 5.64668 5.37834C5.75126 5.1678 5.90423 4.98503 6.09304 4.845C6.54775 4.50311 7.10827 4.33215 7.67638 4.36208C8.26812 4.329 8.85298 4.5025 9.33096 4.85292C9.52918 4.99526 9.69022 5.18323 9.80046 5.40095C9.9107 5.61867 9.96689 5.85973 9.96429 6.10375H8.48388C8.48734 6.00787 8.47162 5.91226 8.43764 5.82253C8.40365 5.73281 8.35208 5.65077 8.28596 5.58125C8.20011 5.50834 8.10058 5.45328 7.99319 5.41929C7.8858 5.38531 7.77271 5.37309 7.66054 5.38333C7.45694 5.37027 7.2552 5.4291 7.09054 5.54958C7.02653 5.59871 6.97517 5.66241 6.94074 5.73539C6.90632 5.80837 6.88982 5.88852 6.89263 5.96917C6.89192 6.04766 6.91208 6.12493 6.95102 6.19309C6.98997 6.26125 7.04631 6.31784 7.11429 6.35708C7.36153 6.48825 7.62921 6.57658 7.90596 6.61833C8.21479 6.67532 8.51907 6.7547 8.81638 6.85583C9.14361 6.93703 9.43432 7.12527 9.64231 7.39063C9.85029 7.656 9.96363 7.98326 9.96429 8.32042C9.96723 8.55874 9.91 8.79394 9.79791 9.00428C9.68583 9.21461 9.5225 9.39328 9.32304 9.52375C8.83499 9.85019 8.25495 10.0112 7.66846 9.98292C7.25141 9.99307 6.83742 9.90919 6.45721 9.7375C6.12375 9.59733 5.83591 9.36706 5.62596 9.0725C5.42615 8.80799 5.31778 8.48567 5.31721 8.15417H6.69471C6.69778 8.26841 6.72556 8.38064 6.77612 8.48313C6.82668 8.58563 6.89884 8.67596 6.98763 8.74792C7.19555 8.89402 7.44632 8.96647 7.70013 8.95375C7.92003 8.96771 8.13878 8.91234 8.32554 8.79542C8.39015 8.75125 8.44325 8.69229 8.48044 8.62343C8.51762 8.55457 8.5378 8.47782 8.53929 8.39958ZM13.131 8.81125C13.3702 8.82359 13.6052 8.74433 13.788 8.58958C13.8701 8.51557 13.9357 8.42521 13.9807 8.32431C14.0257 8.22342 14.049 8.11422 14.0493 8.00375H15.4268C15.4285 8.36378 15.3238 8.71628 15.126 9.01708C14.9341 9.32408 14.6597 9.57097 14.3343 9.72958C13.9826 9.90329 13.5944 9.99016 13.2022 9.98292C12.8598 10.0006 12.5177 9.94396 12.1993 9.81686C11.8809 9.68977 11.5937 9.49525 11.3576 9.24667C10.8847 8.67142 10.6446 7.93983 10.6847 7.19625V7.10125C10.6457 6.37227 10.8864 5.6559 11.3576 5.09833C11.5824 4.85367 11.857 4.65996 12.1628 4.53023C12.4687 4.40051 12.7988 4.33778 13.131 4.34625C13.732 4.31588 14.3207 4.52351 14.7697 4.92417C14.9758 5.12371 15.1378 5.36411 15.2455 5.62995C15.3532 5.8958 15.4042 6.18122 15.3951 6.46792H14.0651C14.066 6.21396 13.973 5.96865 13.8039 5.77917C13.7175 5.69148 13.6137 5.62291 13.4991 5.57791C13.3846 5.5329 13.2618 5.51246 13.1389 5.51792C12.9857 5.50376 12.8316 5.53079 12.6924 5.59621C12.5532 5.66163 12.434 5.76306 12.3472 5.89C12.1508 6.25627 12.0629 6.67096 12.0939 7.08542V7.23583C12.0556 7.65489 12.1409 8.07599 12.3393 8.44708C12.4282 8.57138 12.548 8.67035 12.6868 8.73421C12.8256 8.79807 12.9787 8.82463 13.131 8.81125ZM17.6751 5.04292C17.8451 4.82136 18.0648 4.64287 18.3164 4.52186C18.5681 4.40084 18.8447 4.34069 19.1239 4.34625C20.3035 4.34625 20.9051 5.035 20.921 6.40458V9.88792H19.4643V6.44417C19.4864 6.19549 19.4159 5.94741 19.2664 5.7475C19.1752 5.66668 19.0685 5.60533 18.9528 5.56721C18.8371 5.5291 18.7148 5.51501 18.5935 5.52583C18.4099 5.51422 18.2267 5.554 18.0645 5.6407C17.9023 5.7274 17.7675 5.85759 17.6751 6.01667V9.88792H16.2185V2.16125H17.6751V5.04292Z" fill="white"/>
<path d="M29.7559 5.23372V8.40039H26.5892V5.23372H29.7559ZM31.3392 3.65039H25.0059V9.98372H31.3392V3.65039Z" fill="white"/>
</svg>
