<svg width="30" height="8" viewBox="0 0 30 8" fill="none" xmlns="http://www.w3.org/2000/svg">
<path d="M2.49096 6.65C2.72999 6.66077 2.96439 6.58169 3.14804 6.42833C3.23005 6.35432 3.29567 6.26396 3.34066 6.16306C3.38565 6.06217 3.40903 5.95297 3.40929 5.8425H4.77096C4.76855 6.20193 4.66424 6.55331 4.47013 6.85583C4.2763 7.16121 4.0025 7.40763 3.67846 7.56833C3.31712 7.74674 2.91751 7.83373 2.51471 7.82167C2.17364 7.8382 1.83301 7.78098 1.51605 7.65393C1.19909 7.52687 0.913261 7.33296 0.678044 7.08542C0.201678 6.5121 -0.0388807 5.7791 0.00512706 5.035V4.94C-0.0328744 4.2125 0.204556 3.49739 0.670127 2.93708C0.903914 2.68668 1.18911 2.48981 1.50613 2.35999C1.82316 2.23017 2.16452 2.17048 2.50679 2.185C3.10779 2.15463 3.69655 2.36226 4.14554 2.76292C4.3516 2.96245 4.51368 3.20286 4.62138 3.4687C4.72908 3.73455 4.78003 4.01997 4.77096 4.30667H3.40929C3.41017 4.05271 3.31712 3.8074 3.14804 3.61792C3.06138 3.53063 2.95751 3.46232 2.84302 3.41735C2.72854 3.37237 2.60595 3.3517 2.48304 3.35667C2.3299 3.34251 2.17576 3.36954 2.03657 3.43496C1.89738 3.50038 1.7782 3.60181 1.69138 3.72875C1.48789 4.09258 1.39697 4.50862 1.43013 4.92417V5.07458C1.39618 5.49524 1.48706 5.91657 1.69138 6.28583C1.78041 6.41196 1.90137 6.51216 2.04188 6.57615C2.18238 6.64014 2.33737 6.66563 2.49096 6.65ZM8.53929 6.23833C8.53935 6.15096 8.5149 6.06532 8.46872 5.99115C8.42253 5.91698 8.35647 5.85725 8.27804 5.81875C8.01156 5.68349 7.72586 5.59004 7.43096 5.54167C6.14054 5.2725 5.49138 4.75 5.49138 3.895C5.48888 3.65994 5.5421 3.42762 5.64668 3.21709C5.75126 3.00655 5.90422 2.82378 6.09304 2.68375C6.54774 2.34186 7.10827 2.1709 7.67638 2.20083C8.26812 2.16775 8.85298 2.34125 9.33096 2.69167C9.52918 2.83401 9.69022 3.02198 9.80046 3.2397C9.9107 3.45742 9.96689 3.69848 9.96429 3.9425H8.48388C8.48734 3.84662 8.47162 3.75101 8.43763 3.66128C8.40365 3.57156 8.35208 3.48952 8.28596 3.42C8.20011 3.34709 8.10058 3.29203 7.99319 3.25804C7.8858 3.22406 7.77271 3.21183 7.66054 3.22208C7.45693 3.20902 7.2552 3.26785 7.09054 3.38833C7.02653 3.43746 6.97517 3.50116 6.94074 3.57414C6.90632 3.64712 6.88982 3.72727 6.89263 3.80792C6.89192 3.88641 6.91208 3.96368 6.95102 4.03184C6.98997 4.09999 7.04631 4.15659 7.11429 4.19583C7.36153 4.327 7.62921 4.41533 7.90596 4.45708C8.21479 4.51407 8.51906 4.59345 8.81638 4.69458C9.14361 4.77578 9.43432 4.96402 9.64231 5.22938C9.85029 5.49474 9.96363 5.82201 9.96429 6.15917C9.96722 6.39748 9.91 6.63269 9.79791 6.84303C9.68583 7.05336 9.5225 7.23203 9.32304 7.3625C8.83498 7.68894 8.25495 7.8499 7.66846 7.82167C7.25141 7.83182 6.83742 7.74794 6.45721 7.57625C6.12375 7.43608 5.83591 7.20581 5.62596 6.91125C5.42615 6.64674 5.31778 6.32442 5.31721 5.99292H6.69471C6.69778 6.10716 6.72556 6.21939 6.77612 6.32188C6.82668 6.42438 6.89884 6.51471 6.98763 6.58667C7.19555 6.73277 7.44632 6.80522 7.70013 6.7925C7.92003 6.80646 8.13877 6.75109 8.32554 6.63417C8.39015 6.59 8.44325 6.53104 8.48044 6.46218C8.51762 6.39332 8.5378 6.31657 8.53929 6.23833ZM13.131 6.65C13.3702 6.66234 13.6052 6.58308 13.788 6.42833C13.8701 6.35432 13.9357 6.26396 13.9807 6.16306C14.0257 6.06217 14.049 5.95297 14.0493 5.8425H15.4268C15.4284 6.20253 15.3238 6.55503 15.126 6.85583C14.9341 7.16283 14.6597 7.40971 14.3343 7.56833C13.9826 7.74203 13.5944 7.82891 13.2022 7.82167C12.8598 7.83935 12.5177 7.7827 12.1993 7.65561C11.8809 7.52852 11.5937 7.334 11.3576 7.08542C10.8847 6.51017 10.6446 5.77858 10.6847 5.035V4.94C10.6457 4.21102 10.8864 3.49465 11.3576 2.93708C11.5824 2.69242 11.857 2.49871 12.1628 2.36898C12.4687 2.23926 12.7988 2.17653 13.131 2.185C13.732 2.15463 14.3207 2.36226 14.7697 2.76292C14.9758 2.96245 15.1378 3.20286 15.2455 3.4687C15.3532 3.73455 15.4042 4.01997 15.3951 4.30667H14.0651C14.066 4.05271 13.973 3.8074 13.8039 3.61792C13.7175 3.53023 13.6137 3.46166 13.4991 3.41666C13.3846 3.37165 13.2618 3.35121 13.1389 3.35667C12.9857 3.34251 12.8316 3.36954 12.6924 3.43496C12.5532 3.50038 12.434 3.60181 12.3472 3.72875C12.1508 4.09502 12.0629 4.50971 12.0939 4.92417V5.07458C12.0556 5.49364 12.1409 5.91474 12.3393 6.28583C12.4282 6.41013 12.548 6.5091 12.6868 6.57296C12.8256 6.63682 12.9787 6.66338 13.131 6.65ZM17.6751 2.88167C17.8451 2.66011 18.0648 2.48162 18.3164 2.36061C18.5681 2.23959 18.8447 2.17943 19.1239 2.185C20.3035 2.185 20.9051 2.87375 20.921 4.24333V7.72667H19.4643V4.28292C19.4864 4.03424 19.4159 3.78616 19.2664 3.58625C19.1752 3.50543 19.0685 3.44408 18.9528 3.40596C18.8371 3.36784 18.7148 3.35376 18.5935 3.36458C18.4099 3.35297 18.2267 3.39275 18.0645 3.47945C17.9023 3.56615 17.7675 3.69634 17.6751 3.85542V7.72667H16.2185V0H17.6751V2.88167Z" fill="white"/>
<path d="M28.1719 3.07161V6.23828H25.0052V3.07161H28.1719ZM29.7552 1.48828H23.4219V7.82161H29.7552V1.48828Z" fill="white"/>
</svg>
