<svg width="30" height="8" viewBox="0 0 30 8" fill="none" xmlns="http://www.w3.org/2000/svg">
<path d="M3.17462 6.23833C3.17468 6.15096 3.15022 6.06532 3.10404 5.99115C3.05786 5.91698 2.9918 5.85725 2.91337 5.81875C2.64288 5.67645 2.35168 5.5776 2.05045 5.52583C0.760037 5.25667 0.11087 4.73417 0.11087 3.87917C0.108375 3.6441 0.161596 3.41179 0.266176 3.20125C0.370755 2.99072 0.523718 2.80795 0.712537 2.66792C1.16724 2.32602 1.72776 2.15506 2.29587 2.185C2.89005 2.15204 3.47737 2.32544 3.95837 2.67583C4.15492 2.82236 4.31354 3.0138 4.42097 3.23417C4.52839 3.45453 4.58151 3.69741 4.57587 3.9425H3.1192C3.12267 3.84662 3.10695 3.75101 3.07296 3.66128C3.03897 3.57156 2.98741 3.48952 2.92129 3.42C2.83543 3.34709 2.7359 3.29203 2.62851 3.25804C2.52113 3.22406 2.40804 3.21183 2.29587 3.22208C2.09226 3.20902 1.89053 3.26785 1.72587 3.38833C1.66185 3.43746 1.61049 3.50116 1.57607 3.57414C1.54164 3.64712 1.52515 3.72727 1.52795 3.80792C1.52725 3.88641 1.5474 3.96368 1.58635 4.03184C1.62529 4.09999 1.68164 4.15659 1.74962 4.19583C1.99686 4.327 2.26454 4.41533 2.54129 4.45708C2.85012 4.51407 3.15439 4.59345 3.4517 4.69458C3.78041 4.77427 4.0729 4.96185 4.28243 5.22736C4.49197 5.49286 4.60643 5.82094 4.60754 6.15917C4.61047 6.39748 4.55324 6.63269 4.44116 6.84303C4.32907 7.05336 4.16574 7.23203 3.96629 7.3625C3.47602 7.69058 2.89294 7.85162 2.30379 7.82167C1.88673 7.83182 1.47275 7.74794 1.09254 7.57625C0.773553 7.42996 0.500024 7.2002 0.30087 6.91125C0.103365 6.64601 -0.00225274 6.3236 3.64419e-05 5.99292H1.33004C1.33311 6.10716 1.36088 6.21939 1.41145 6.32188C1.46201 6.42438 1.53416 6.51471 1.62295 6.58667C1.83087 6.73277 2.08165 6.80522 2.33545 6.7925C2.55536 6.80646 2.7741 6.75109 2.96087 6.63417C3.02547 6.59 3.07858 6.53104 3.11576 6.46218C3.15295 6.39332 3.17313 6.31657 3.17462 6.23833ZM7.92462 7.82167C7.2148 7.84191 6.52589 7.58001 6.00879 7.09333C5.74892 6.83976 5.54441 6.53509 5.40816 6.19854C5.2719 5.86199 5.20686 5.50086 5.21712 5.13792V4.99542C5.20671 4.48918 5.31517 3.98755 5.53379 3.53083C5.73007 3.11937 6.04062 2.77308 6.42837 2.53333C6.83174 2.29836 7.2916 2.17792 7.75837 2.185C8.08368 2.16819 8.40875 2.22252 8.71092 2.34421C9.01309 2.46589 9.28508 2.65201 9.50795 2.88958C9.9673 3.44902 10.1966 4.16228 10.1492 4.88458V5.44667H6.69754C6.73061 5.77438 6.88271 6.07858 7.12504 6.30167C7.37136 6.51843 7.69178 6.63186 8.01962 6.61833C8.27137 6.62862 8.52194 6.57867 8.75051 6.47265C8.97908 6.36663 9.17904 6.20759 9.33379 6.00875L10.0463 6.80042C9.82099 7.11601 9.51465 7.36491 9.15962 7.52083C8.77557 7.71204 8.35358 7.81483 7.92462 7.82167ZM7.75837 3.35667C7.62679 3.35213 7.49578 3.37594 7.37421 3.42648C7.25265 3.47702 7.14337 3.55311 7.05379 3.64958C6.86103 3.8902 6.74272 4.18185 6.71337 4.48875H8.73212V4.37C8.74119 4.0956 8.6481 3.8276 8.47087 3.61792C8.37671 3.52735 8.26475 3.45735 8.14209 3.41237C8.01943 3.3674 7.88876 3.34843 7.75837 3.35667ZM13.1338 6.65C13.373 6.66234 13.608 6.58308 13.7909 6.42833C13.8729 6.35432 13.9385 6.26396 13.9835 6.16306C14.0285 6.06217 14.0519 5.95297 14.0521 5.8425H15.4138C15.4114 6.20193 15.3071 6.55331 15.113 6.85583C14.921 7.16283 14.6467 7.40971 14.3213 7.56833C13.9528 7.75059 13.5446 7.83768 13.1338 7.82167C12.7927 7.8382 12.4521 7.78098 12.1351 7.65393C11.8182 7.52687 11.5323 7.33296 11.2971 7.08542C10.8208 6.5121 10.5802 5.7791 10.6242 5.035V4.94C10.5862 4.2125 10.8236 3.49739 11.2892 2.93708C11.5239 2.68564 11.8104 2.48816 12.1288 2.35831C12.4473 2.22845 12.7902 2.16932 13.1338 2.185C13.7348 2.15463 14.3235 2.36226 14.7725 2.76292C14.9786 2.96245 15.1407 3.20286 15.2484 3.4687C15.3561 3.73455 15.407 4.01997 15.398 4.30667H14.06C14.0609 4.05271 13.9679 3.8074 13.7988 3.61792C13.7124 3.53023 13.6086 3.46166 13.494 3.41666C13.3795 3.37165 13.2567 3.35121 13.1338 3.35667C12.9806 3.34251 12.8265 3.36954 12.6873 3.43496C12.5481 3.50038 12.4289 3.60181 12.3421 3.72875C12.1418 4.09359 12.0537 4.50944 12.0888 4.92417V5.07458C12.0529 5.49442 12.141 5.91557 12.3421 6.28583C12.4305 6.41072 12.5501 6.51013 12.6891 6.57406C12.8281 6.63799 12.9815 6.66418 13.1338 6.65ZM17.5592 2.88167C17.7317 2.66089 17.953 2.48308 18.2057 2.36221C18.4584 2.24133 18.7357 2.18067 19.0159 2.185C20.1955 2.185 20.7892 2.87375 20.813 4.24333V7.72667H19.3563V4.28292C19.3784 4.03424 19.3079 3.78616 19.1584 3.58625C19.0672 3.50543 18.9605 3.44408 18.8448 3.40596C18.7291 3.36784 18.6068 3.35376 18.4855 3.36458C18.301 3.35418 18.1172 3.39441 17.9539 3.48092C17.7907 3.56743 17.6542 3.69693 17.5592 3.85542V7.72667H16.1105V0H17.5592V2.88167Z" fill="white"/>
<path d="M28.1748 3.07161V6.23828H25.0081V3.07161H28.1748ZM29.7581 1.48828H23.4248V7.82161H29.7581V1.48828Z" fill="white"/>
</svg>
