<svg width="31" height="11" viewBox="0 0 31 11" fill="none" xmlns="http://www.w3.org/2000/svg">
<path d="M21.0476 2.85792H19.4643V2.06625H21.0476V2.85792ZM23.3197 3.99H22.4172V1.14792L21.3405 1.49625V0.704584L23.2168 0H23.3197V3.99ZM2.49096 8.81125C2.72999 8.82202 2.96439 8.74294 3.14804 8.58958C3.23005 8.51557 3.29567 8.42521 3.34066 8.32431C3.38565 8.22342 3.40903 8.11422 3.40929 8.00375H4.77096C4.76855 8.36318 4.66424 8.71456 4.47013 9.01708C4.2763 9.32246 4.0025 9.56888 3.67846 9.72958C3.31712 9.90799 2.91751 9.99498 2.51471 9.98292C2.17364 9.99945 1.83301 9.94223 1.51605 9.81518C1.19909 9.68812 0.913261 9.49421 0.678044 9.24667C0.201678 8.67335 -0.0388807 7.94035 0.00512706 7.19625V7.10125C-0.0328744 6.37375 0.204556 5.65864 0.670127 5.09833C0.903914 4.84793 1.18911 4.65106 1.50613 4.52124C1.82316 4.39143 2.16452 4.33173 2.50679 4.34625C3.10779 4.31588 3.69655 4.52351 4.14554 4.92417C4.3516 5.12371 4.51368 5.36411 4.62138 5.62995C4.72908 5.8958 4.78003 6.18122 4.77096 6.46792H3.40929C3.41017 6.21396 3.31712 5.96865 3.14804 5.77917C3.06138 5.69188 2.95751 5.62357 2.84302 5.5786C2.72854 5.53362 2.60595 5.51296 2.48304 5.51792C2.3299 5.50376 2.17576 5.53079 2.03657 5.59621C1.89738 5.66163 1.7782 5.76306 1.69138 5.89C1.48789 6.25383 1.39697 6.66987 1.43013 7.08542V7.23583C1.39618 7.65649 1.48706 8.07782 1.69138 8.44708C1.78041 8.57321 1.90137 8.67341 2.04188 8.7374C2.18238 8.80139 2.33737 8.82688 2.49096 8.81125ZM5.37263 7.11708C5.36344 6.61946 5.46909 6.12641 5.68138 5.67625C5.87391 5.26641 6.18572 4.92425 6.57596 4.69458C6.99041 4.45849 7.46072 4.33818 7.93763 4.34625C8.26692 4.33285 8.59556 4.38549 8.90419 4.50106C9.21282 4.61662 9.49521 4.79279 9.73471 5.01917C10.2215 5.50594 10.5046 6.15986 10.5264 6.84792V7.22C10.5595 7.95604 10.3071 8.67644 9.82179 9.23083C9.58222 9.48245 9.29149 9.67977 8.9692 9.80951C8.6469 9.93925 8.30054 9.99838 7.95346 9.98292C7.60394 9.99912 7.25499 9.94039 6.93003 9.81068C6.60506 9.68097 6.31159 9.48326 6.06929 9.23083C5.58006 8.66351 5.33028 7.92835 5.37263 7.18042V7.11708ZM6.82138 7.22C6.79706 7.63381 6.89922 8.04522 7.11429 8.39958C7.21273 8.5262 7.33879 8.62865 7.48285 8.69912C7.62691 8.7696 7.78517 8.80624 7.94554 8.80624C8.10592 8.80624 8.26418 8.7696 8.40824 8.69912C8.5523 8.62865 8.67836 8.5262 8.77679 8.39958C9.00417 8.00665 9.10635 7.55374 9.06971 7.10125C9.096 6.68976 8.99363 6.28029 8.77679 5.92958C8.68465 5.79355 8.55906 5.6835 8.4121 5.61002C8.26514 5.53654 8.10174 5.5021 7.93763 5.51C7.78193 5.50785 7.62812 5.54432 7.48996 5.61616C7.35181 5.688 7.23362 5.79297 7.14596 5.92167C6.90336 6.31019 6.78208 6.76222 6.79763 7.22H6.82138ZM13.131 3.11125V4.44125H14.0651V5.50208H13.131V8.2175C13.1172 8.37217 13.1593 8.52665 13.2497 8.65292C13.3107 8.70374 13.3817 8.74126 13.458 8.76308C13.5343 8.78489 13.6144 8.79051 13.693 8.77958C13.8326 8.7929 13.9731 8.7929 14.1126 8.77958V9.88C13.8278 9.96627 13.5315 10.009 13.2339 10.0067C13.022 10.039 12.8055 10.0217 12.6014 9.95618C12.3974 9.89066 12.2113 9.77868 12.0578 9.62905C11.9043 9.47942 11.7877 9.29623 11.717 9.09388C11.6464 8.89153 11.6236 8.67555 11.6505 8.46292V5.53375H10.8589V4.44125H11.6505V3.11125H13.131ZM16.2976 5.04292C16.4684 4.82229 16.6883 4.64448 16.9398 4.52356C17.1912 4.40264 17.4674 4.34193 17.7464 4.34625C18.926 4.34625 19.5276 5.035 19.5435 6.40458V9.88792H18.1026V6.44417C18.1247 6.19549 18.0542 5.94741 17.9047 5.7475C17.8136 5.66668 17.7068 5.60533 17.5911 5.56721C17.4754 5.5291 17.3531 5.51501 17.2318 5.52583C17.0448 5.51194 16.8578 5.55144 16.6924 5.63974C16.527 5.72804 16.3901 5.8615 16.2976 6.02458V9.89583H14.8568V2.16125H16.2976V5.04292Z" fill="white"/>
<path d="M28.9639 5.23372V8.40039H25.7972V5.23372H28.9639ZM30.5472 3.65039H24.2139V9.98372H30.5472V3.65039Z" fill="white"/>
</svg>
