<svg width="30" height="8" viewBox="0 0 30 8" fill="none" xmlns="http://www.w3.org/2000/svg">
<path d="M2.49096 6.65C2.72999 6.66077 2.96439 6.58169 3.14804 6.42833C3.23005 6.35432 3.29567 6.26396 3.34066 6.16306C3.38565 6.06217 3.40903 5.95297 3.40929 5.8425H4.77096C4.76855 6.20193 4.66424 6.55331 4.47013 6.85583C4.2763 7.16121 4.0025 7.40763 3.67846 7.56833C3.31712 7.74674 2.91751 7.83373 2.51471 7.82167C2.17364 7.8382 1.83301 7.78098 1.51605 7.65393C1.19909 7.52687 0.913261 7.33296 0.678044 7.08542C0.201678 6.5121 -0.0388807 5.7791 0.00512706 5.035V4.94C-0.0328744 4.2125 0.204556 3.49739 0.670127 2.93708C0.903914 2.68668 1.18911 2.48981 1.50613 2.35999C1.82316 2.23017 2.16452 2.17048 2.50679 2.185C3.10779 2.15463 3.69655 2.36226 4.14554 2.76292C4.3516 2.96245 4.51368 3.20286 4.62138 3.4687C4.72908 3.73455 4.78003 4.01997 4.77096 4.30667H3.40929C3.41017 4.05271 3.31712 3.8074 3.14804 3.61792C3.06138 3.53063 2.95751 3.46232 2.84302 3.41735C2.72854 3.37237 2.60595 3.3517 2.48304 3.35667C2.3299 3.34251 2.17576 3.36954 2.03657 3.43496C1.89738 3.50038 1.7782 3.60181 1.69138 3.72875C1.48789 4.09258 1.39697 4.50862 1.43013 4.92417V5.07458C1.39618 5.49524 1.48706 5.91657 1.69138 6.28583C1.78041 6.41196 1.90137 6.51216 2.04188 6.57615C2.18238 6.64014 2.33737 6.66563 2.49096 6.65ZM5.37263 4.95583C5.36344 4.45821 5.46909 3.96516 5.68138 3.515C5.87391 3.10516 6.18572 2.763 6.57596 2.53333C6.99041 2.29724 7.46072 2.17693 7.93763 2.185C8.26692 2.1716 8.59556 2.22424 8.90419 2.33981C9.21282 2.45537 9.49521 2.63154 9.73471 2.85792C10.2215 3.34469 10.5046 3.99861 10.5264 4.68667V5.05875C10.5595 5.79479 10.3071 6.51519 9.82179 7.06958C9.58222 7.3212 9.29149 7.51852 8.9692 7.64826C8.6469 7.778 8.30054 7.83713 7.95346 7.82167C7.60394 7.83787 7.25499 7.77914 6.93003 7.64943C6.60506 7.51972 6.31159 7.32201 6.06929 7.06958C5.58006 6.50226 5.33028 5.7671 5.37263 5.01917V4.95583ZM6.82138 5.05875C6.79706 5.47256 6.89922 5.88397 7.11429 6.23833C7.21273 6.36495 7.33879 6.4674 7.48285 6.53787C7.62691 6.60835 7.78517 6.64499 7.94554 6.64499C8.10592 6.64499 8.26418 6.60835 8.40824 6.53787C8.5523 6.4674 8.67836 6.36495 8.77679 6.23833C9.00417 5.8454 9.10635 5.39249 9.06971 4.94C9.096 4.52851 8.99363 4.11904 8.77679 3.76833C8.68465 3.6323 8.55906 3.52225 8.4121 3.44877C8.26514 3.37529 8.10174 3.34085 7.93763 3.34875C7.78193 3.3466 7.62812 3.38307 7.48996 3.45491C7.35181 3.52675 7.23362 3.63172 7.14596 3.76042C6.90336 4.14894 6.78208 4.60097 6.79763 5.05875H6.82138ZM14.358 6.23833C14.3581 6.15096 14.3336 6.06532 14.2875 5.99115C14.2413 5.91698 14.1752 5.85725 14.0968 5.81875C13.8303 5.68349 13.5446 5.59004 13.2497 5.54167C11.9593 5.2725 11.3101 4.75 11.3101 3.895C11.3076 3.65994 11.3609 3.42762 11.4654 3.21709C11.57 3.00655 11.723 2.82378 11.9118 2.68375C12.3665 2.34186 12.927 2.1709 13.4951 2.20083C14.0893 2.16788 14.6766 2.34128 15.1576 2.69167C15.3542 2.83819 15.5128 3.02963 15.6202 3.25C15.7277 3.47036 15.7808 3.71324 15.7751 3.95833H14.3026C14.3061 3.86245 14.2904 3.76684 14.2564 3.67711C14.2224 3.58739 14.1708 3.50536 14.1047 3.43583C14.0189 3.36292 13.9193 3.30786 13.8119 3.27388C13.7045 3.23989 13.5915 3.22767 13.4793 3.23792C13.2757 3.22485 13.074 3.28369 12.9093 3.40417C12.8453 3.45329 12.7939 3.51699 12.7595 3.58997C12.7251 3.66296 12.7086 3.74311 12.7114 3.82375C12.7107 3.90224 12.7308 3.97952 12.7698 4.04767C12.8087 4.11583 12.8651 4.17242 12.933 4.21167C13.1803 4.34283 13.448 4.43117 13.7247 4.47292C14.0335 4.5299 14.3378 4.60928 14.6351 4.71042C14.9638 4.7901 15.2563 4.97769 15.4659 5.24319C15.6754 5.50869 15.7899 5.83678 15.791 6.175C15.7939 6.41332 15.7367 6.64853 15.6246 6.85886C15.5125 7.0692 15.3492 7.24787 15.1497 7.37833C14.6639 7.70313 14.0869 7.86403 13.503 7.8375C13.086 7.84765 12.672 7.76377 12.2918 7.59208C11.9583 7.45191 11.6705 7.22165 11.4605 6.92708C11.263 6.66185 11.1574 6.33943 11.1597 6.00875H12.5293C12.5324 6.12299 12.5601 6.23522 12.6107 6.33772C12.6613 6.44021 12.7334 6.53054 12.8222 6.6025C13.0301 6.74861 13.2809 6.82105 13.5347 6.80833C13.7546 6.8223 13.9734 6.76692 14.1601 6.65C14.224 6.60256 14.2754 6.54031 14.3099 6.46859C14.3444 6.39688 14.3609 6.31785 14.358 6.23833ZM18.1264 2.88167C18.2976 2.6615 18.5175 2.48402 18.7689 2.36315C19.0203 2.24227 19.2962 2.18129 19.5751 2.185C20.7547 2.185 21.3564 2.87375 21.3722 4.24333V7.72667H19.9235V4.28292C19.9433 4.03324 19.87 3.78505 19.7176 3.58625C19.6277 3.50604 19.5223 3.44502 19.408 3.40691C19.2936 3.3688 19.1727 3.3544 19.0526 3.36458C18.8679 3.35238 18.6834 3.39183 18.5198 3.47852C18.3562 3.56521 18.22 3.69571 18.1264 3.85542V7.72667H16.6697V0H18.1264V2.88167Z" fill="white"/>
<path d="M28.1719 3.07161V6.23828H25.0052V3.07161H28.1719ZM29.7552 1.48828H23.4219V7.82161H29.7552V1.48828Z" fill="white"/>
</svg>
