<svg width="29" height="8" viewBox="0 0 29 8" fill="none" xmlns="http://www.w3.org/2000/svg">
<path d="M2.29583 0.949999V2.28H3.23V3.34083H2.29583V6.05625C2.28207 6.21092 2.3242 6.3654 2.41458 6.49167C2.47558 6.54249 2.54653 6.58001 2.62287 6.60183C2.69921 6.62364 2.77927 6.62926 2.85792 6.61833C2.99746 6.63165 3.13796 6.63165 3.2775 6.61833V7.71875C2.9839 7.80003 2.67936 7.83476 2.375 7.82167C2.16312 7.85399 1.94663 7.8367 1.74255 7.77118C1.53848 7.70566 1.35239 7.59368 1.19893 7.44405C1.04547 7.29442 0.928815 7.11123 0.858146 6.90888C0.787477 6.70653 0.764721 6.49055 0.791667 6.27792V3.34875H0V2.28H0.791667V0.949999H2.29583ZM7.18833 7.72667C7.1126 7.57202 7.06183 7.40636 7.03792 7.23583C6.86646 7.42782 6.65492 7.5798 6.41826 7.68103C6.1816 7.78226 5.92559 7.83027 5.66833 7.82167C5.18562 7.84003 4.71366 7.67612 4.34625 7.3625C4.18122 7.22513 4.04823 7.05332 3.95661 6.85913C3.86498 6.66494 3.81693 6.45305 3.81583 6.23833C3.80662 5.98123 3.8602 5.72575 3.97193 5.49401C4.08367 5.26227 4.25019 5.06124 4.45708 4.90833C5.01393 4.54696 5.67027 4.36972 6.33333 4.40167H7.00625V4.09292C7.01859 3.87215 6.948 3.65474 6.80833 3.48333C6.72814 3.40544 6.63235 3.34541 6.52729 3.3072C6.42222 3.269 6.31025 3.25348 6.19875 3.26167C5.99151 3.24897 5.78655 3.31074 5.62083 3.43583C5.55272 3.49591 5.49888 3.57045 5.46327 3.654C5.42766 3.73755 5.41117 3.82801 5.415 3.91875H3.95833C3.95662 3.60528 4.05662 3.29972 4.24333 3.04792C4.45754 2.76502 4.74498 2.54602 5.07458 2.41458C5.45325 2.2574 5.86005 2.17927 6.27 2.185C6.84158 2.15763 7.40383 2.33755 7.85333 2.69167C8.05361 2.86712 8.21119 3.08597 8.31409 3.33154C8.41698 3.57712 8.46247 3.84294 8.44708 4.10875V6.48375C8.42512 6.88568 8.49836 7.28713 8.66083 7.65542V7.7425L7.18833 7.72667ZM5.985 6.71333C6.19158 6.71496 6.39542 6.66604 6.57875 6.57083C6.75074 6.48715 6.89201 6.35142 6.9825 6.18292V5.24875H6.43625C5.70792 5.24875 5.32 5.50208 5.28042 6.00083V6.08792C5.27818 6.17232 5.29397 6.25622 5.32674 6.33404C5.3595 6.41185 5.40848 6.48178 5.47042 6.53917C5.61603 6.6561 5.7983 6.71779 5.985 6.71333ZM10.8854 2.28L10.9329 2.90542C11.12 2.66698 11.3612 2.47655 11.6366 2.3499C11.9119 2.22324 12.2135 2.164 12.5162 2.17708C12.7544 2.15936 12.9935 2.19572 13.2156 2.28346C13.4377 2.37121 13.637 2.50805 13.7988 2.68375C14.1206 3.12591 14.28 3.6656 14.25 4.21167V7.72667H12.7617V4.24333C12.7839 4.00199 12.7131 3.76126 12.5638 3.57042C12.3753 3.41595 12.1335 3.342 11.8908 3.36458C11.7044 3.35788 11.5197 3.4032 11.3575 3.49548C11.1953 3.58776 11.062 3.72335 10.9725 3.88708V7.72667H9.5V2.28H10.8854ZM16.7358 2.88167C16.9091 2.65777 17.1327 2.47797 17.3886 2.35691C17.6445 2.23584 17.9254 2.17694 18.2083 2.185C19.3879 2.185 19.9896 2.87375 20.0054 4.24333V7.72667H18.525V4.28292C18.5471 4.03424 18.4766 3.78616 18.3271 3.58625C18.2359 3.50543 18.1292 3.44408 18.0135 3.40596C17.8978 3.36784 17.7755 3.35376 17.6542 3.36458C17.4706 3.35297 17.2874 3.39275 17.1252 3.47945C16.963 3.56615 16.8282 3.69634 16.7358 3.85542V7.72667H15.2792V0H16.7358V2.88167Z" fill="white"/>
<path d="M26.917 3.07161V6.23828H23.7503V3.07161H26.917ZM28.5003 1.48828H22.167V7.82161H28.5003V1.48828Z" fill="white"/>
</svg>
