<svg width="29" height="8" viewBox="0 0 29 8" fill="none" xmlns="http://www.w3.org/2000/svg">
<path d="M2.49096 6.65C2.72999 6.66077 2.96439 6.58169 3.14804 6.42833C3.23005 6.35432 3.29567 6.26396 3.34066 6.16306C3.38565 6.06217 3.40903 5.95297 3.40929 5.8425H4.77096C4.76855 6.20193 4.66424 6.55331 4.47013 6.85583C4.2763 7.16121 4.0025 7.40763 3.67846 7.56833C3.31712 7.74674 2.91751 7.83373 2.51471 7.82167C2.17364 7.8382 1.83301 7.78098 1.51605 7.65393C1.19909 7.52687 0.913261 7.33296 0.678044 7.08542C0.201678 6.5121 -0.0388807 5.7791 0.00512706 5.035V4.94C-0.0328744 4.2125 0.204556 3.49739 0.670127 2.93708C0.903914 2.68668 1.18911 2.48981 1.50613 2.35999C1.82316 2.23017 2.16452 2.17048 2.50679 2.185C3.10779 2.15463 3.69655 2.36226 4.14554 2.76292C4.3516 2.96245 4.51368 3.20286 4.62138 3.4687C4.72908 3.73455 4.78003 4.01997 4.77096 4.30667H3.40929C3.41017 4.05271 3.31712 3.8074 3.14804 3.61792C3.06138 3.53063 2.95751 3.46232 2.84302 3.41735C2.72854 3.37237 2.60595 3.3517 2.48304 3.35667C2.3299 3.34251 2.17576 3.36954 2.03657 3.43496C1.89738 3.50038 1.7782 3.60181 1.69138 3.72875C1.48789 4.09258 1.39697 4.50862 1.43013 4.92417V5.07458C1.39618 5.49524 1.48706 5.91657 1.69138 6.28583C1.78041 6.41196 1.90137 6.51216 2.04188 6.57615C2.18238 6.64014 2.33737 6.66563 2.49096 6.65ZM5.37263 4.95583C5.36344 4.45821 5.46909 3.96516 5.68138 3.515C5.87391 3.10516 6.18572 2.763 6.57596 2.53333C6.99041 2.29724 7.46072 2.17693 7.93763 2.185C8.26692 2.1716 8.59556 2.22424 8.90419 2.33981C9.21282 2.45537 9.49521 2.63154 9.73471 2.85792C10.2215 3.34469 10.5046 3.99861 10.5264 4.68667V5.05875C10.5595 5.79479 10.3071 6.51519 9.82179 7.06958C9.58222 7.3212 9.29149 7.51852 8.9692 7.64826C8.6469 7.778 8.30054 7.83713 7.95346 7.82167C7.60394 7.83787 7.25499 7.77914 6.93003 7.64943C6.60506 7.51972 6.31159 7.32201 6.06929 7.06958C5.58006 6.50226 5.33028 5.7671 5.37263 5.01917V4.95583ZM6.82138 5.05875C6.79706 5.47256 6.89922 5.88397 7.11429 6.23833C7.21273 6.36495 7.33879 6.4674 7.48285 6.53787C7.62691 6.60835 7.78517 6.64499 7.94554 6.64499C8.10592 6.64499 8.26418 6.60835 8.40824 6.53787C8.5523 6.4674 8.67836 6.36495 8.77679 6.23833C9.00417 5.8454 9.10635 5.39249 9.06971 4.94C9.096 4.52851 8.99363 4.11904 8.77679 3.76833C8.68465 3.6323 8.55906 3.52225 8.4121 3.44877C8.26514 3.37529 8.10174 3.34085 7.93763 3.34875C7.78193 3.3466 7.62812 3.38307 7.48996 3.45491C7.35181 3.52675 7.23362 3.63172 7.14596 3.76042C6.90336 4.14894 6.78208 4.60097 6.79763 5.05875H6.82138ZM13.131 0.949999V2.28H14.0651V3.34083H13.131V6.05625C13.1172 6.21092 13.1593 6.3654 13.2497 6.49167C13.3107 6.54249 13.3817 6.58001 13.458 6.60183C13.5343 6.62364 13.6144 6.62926 13.693 6.61833C13.8326 6.63165 13.9731 6.63165 14.1126 6.61833V7.71875C13.8278 7.80502 13.5315 7.84772 13.2339 7.84542C13.022 7.87774 12.8055 7.86045 12.6014 7.79493C12.3974 7.7294 12.2113 7.61743 12.0578 7.4678C11.9043 7.31817 11.7877 7.13498 11.717 6.93263C11.6464 6.73028 11.6236 6.5143 11.6505 6.30167V3.3725H10.8589V2.28H11.6505V0.949999H13.131ZM16.2976 2.88167C16.4684 2.66104 16.6883 2.48323 16.9398 2.36231C17.1912 2.24139 17.4674 2.18068 17.7464 2.185C18.926 2.185 19.5276 2.87375 19.5435 4.24333V7.72667H18.1026V4.28292C18.1247 4.03424 18.0542 3.78616 17.9047 3.58625C17.8136 3.50543 17.7068 3.44408 17.5911 3.40596C17.4754 3.36784 17.3531 3.35376 17.2318 3.36458C17.0448 3.35069 16.8578 3.39019 16.6924 3.47849C16.527 3.56679 16.3901 3.70025 16.2976 3.86333V7.73458H14.8568V0H16.2976V2.88167Z" fill="white"/>
<path d="M26.5898 3.07161V6.23828H23.4232V3.07161H26.5898ZM28.1732 1.48828H21.8398V7.82161H28.1732V1.48828Z" fill="white"/>
</svg>
