<svg width="11" height="6" viewBox="0 0 11 6" fill="none" xmlns="http://www.w3.org/2000/svg">
<path d="M10.078 1.61753C9.79856 0.975995 9.27827 0.469919 8.62924 0.208365C8.04667 -0.0389592 7.39427 -0.0670787 6.79257 0.1292C6.55012 0.219053 6.32106 0.341571 6.11174 0.493365C5.89258 0.647877 5.69084 0.825725 5.51007 1.02378C5.39132 1.15837 5.26466 1.30086 5.14591 1.4592C5.03544 1.30747 4.9165 1.1621 4.78966 1.02378C4.60622 0.823135 4.40186 0.642666 4.18007 0.485449C3.96777 0.340601 3.73928 0.221043 3.49924 0.1292C2.89755 -0.0670787 2.24515 -0.0389592 1.66257 0.208365C1.01354 0.469919 0.493252 0.975995 0.213823 1.61753C0.0701721 1.94984 -0.0026268 2.30844 7.24027e-05 2.67045C-0.00245561 3.02989 0.0703592 3.38587 0.213823 3.71545C0.348252 4.03574 0.544653 4.32631 0.791739 4.57045C1.04299 4.8123 1.33871 5.00318 1.66257 5.13253C2.24515 5.37986 2.89755 5.40798 3.49924 5.2117C3.73928 5.11985 3.96777 5.0003 4.18007 4.85545C4.39747 4.69576 4.59895 4.51548 4.78174 4.31712C4.90049 4.18253 5.02716 4.04003 5.14591 3.8817C5.25864 4.03386 5.38024 4.17925 5.51007 4.31712C5.69292 4.51305 5.89443 4.69069 6.11174 4.84753C6.32106 4.99933 6.55012 5.12184 6.79257 5.2117C7.04678 5.30084 7.3149 5.34374 7.58424 5.33837C8.3117 5.33801 9.01036 5.05401 9.53174 4.5467C9.77883 4.30256 9.97523 4.01199 10.1097 3.6917C10.2391 3.36718 10.301 3.0197 10.2917 2.67045C10.2944 2.30844 10.2216 1.94984 10.078 1.61753ZM8.91424 2.67045C8.91607 2.84471 8.88099 3.01738 8.81132 3.17711C8.74266 3.33744 8.64313 3.4827 8.51841 3.60462C8.38835 3.72471 8.23832 3.82116 8.07507 3.88962C7.91284 3.96586 7.73579 4.00539 7.55653 4.00539C7.37727 4.00539 7.20022 3.96586 7.03799 3.88962C6.87616 3.79887 6.72708 3.68707 6.59466 3.55712C6.45306 3.41705 6.32577 3.26324 6.21466 3.09795C6.12757 2.96337 6.03257 2.82878 5.94549 2.68628C6.01674 2.57545 6.10382 2.4567 6.19882 2.32211C6.32519 2.15469 6.46272 1.99599 6.61049 1.84711C6.75402 1.70981 6.91349 1.59021 7.08549 1.49087C7.2388 1.41299 7.40833 1.3724 7.58028 1.3724C7.75224 1.3724 7.92176 1.41299 8.07507 1.49087C8.23832 1.55933 8.38835 1.65578 8.51841 1.77587C8.64313 1.89778 8.74266 2.04304 8.81132 2.20337C8.87633 2.35067 8.91132 2.50946 8.91424 2.67045ZM4.35424 2.67045C4.31825 2.73596 4.2786 2.79939 4.23549 2.86045L4.07716 3.09795C3.99007 3.2167 3.89507 3.32753 3.80007 3.44628C3.70318 3.54761 3.60006 3.64279 3.49132 3.73128C3.38085 3.81116 3.26125 3.8776 3.13507 3.9292C2.83742 4.03095 2.51235 4.01682 2.22466 3.88962C2.06141 3.82116 1.91138 3.72471 1.78132 3.60462C1.6566 3.4827 1.55707 3.33744 1.48841 3.17711C1.41874 3.01738 1.38366 2.84471 1.38549 2.67045C1.38293 2.49612 1.41803 2.3233 1.48841 2.16378C1.55707 2.00345 1.6566 1.8582 1.78132 1.73628C1.91138 1.61619 2.06141 1.51974 2.22466 1.45128C2.3894 1.37896 2.56724 1.34124 2.74716 1.34045C2.91217 1.34215 3.07362 1.38867 3.21424 1.47503C3.38624 1.57438 3.54571 1.69398 3.68924 1.83128C3.83701 1.98016 3.97454 2.13886 4.10091 2.30628C4.18799 2.44087 4.27507 2.55962 4.35424 2.67045Z" fill="white"/>
</svg>
