<svg width="13" height="7" viewBox="0 0 13 7" fill="none" xmlns="http://www.w3.org/2000/svg">
<path fill-rule="evenodd" clip-rule="evenodd" d="M1.58341 5.91407C1.11223 5.64744 0.721258 5.25921 0.451325 4.78991C0.157145 4.2996 0.00121184 3.73878 7.55388e-05 3.16699C-0.0037556 2.61227 0.138205 2.06627 0.411743 1.58366C0.685599 1.09164 1.09139 0.685848 1.58341 0.411992C2.07451 0.141721 2.62597 0 3.18653 0C3.74709 0 4.29856 0.141721 4.78966 0.411992C5.36251 0.758104 5.8648 1.20936 6.27008 1.74199L6.37299 1.86866L6.48383 1.74199C6.87479 1.21358 7.36071 0.762563 7.91674 0.411992C8.40928 0.141737 8.96202 5.73794e-05 9.52383 5.73794e-05C10.0856 5.73794e-05 10.6384 0.141737 11.1309 0.411992C11.598 0.681269 11.9858 1.06905 12.2551 1.53616C12.5368 2.03272 12.679 2.59621 12.6667 3.16699C12.6706 3.72172 12.5286 4.26772 12.2551 4.75032C11.9812 5.23803 11.5806 5.64263 11.0956 5.92135C10.6106 6.20006 10.0594 6.34252 9.50008 6.33366C8.94535 6.33749 8.39935 6.19553 7.91674 5.92199C7.34989 5.57086 6.85106 5.1203 6.44424 4.59199L6.33341 4.46532L6.23049 4.59199C5.82132 5.12103 5.31976 5.57162 4.75008 5.92199C4.26747 6.19553 3.72147 6.33749 3.16674 6.33366C2.61072 6.33969 2.06348 6.19467 1.58341 5.91407ZM4.25924 4.33074C4.63445 4.04085 4.96983 3.70281 5.25674 3.32533L5.35966 3.19866L5.25674 3.07991C4.97182 2.69838 4.63623 2.35747 4.25924 2.06658C3.98881 1.87429 3.66481 1.77183 3.33299 1.77366C3.07555 1.76593 2.82091 1.8289 2.59674 1.95574C2.38541 2.07606 2.21039 2.25108 2.09008 2.46241C1.96074 2.683 1.89498 2.93508 1.90008 3.19074C1.8962 3.44626 1.96187 3.69802 2.09008 3.91908C2.21039 4.13041 2.38541 4.30543 2.59674 4.42574C2.82091 4.55258 3.07555 4.61555 3.33299 4.60782C3.66481 4.60966 3.98881 4.50719 4.25924 4.31491M10.1492 4.42574C10.3623 4.30772 10.5379 4.13215 10.6559 3.91908C10.7841 3.69802 10.8498 3.44626 10.8459 3.19074C10.851 2.93508 10.7852 2.683 10.6559 2.46241C10.5379 2.24934 10.3623 2.07376 10.1492 1.95574C9.92508 1.8289 9.67044 1.76593 9.41299 1.77366C9.08118 1.77183 8.75717 1.87429 8.48674 2.06658C8.10975 2.35747 7.77416 2.69838 7.48924 3.07991L7.38633 3.19866L7.48924 3.32533C7.77615 3.70281 8.11154 4.04085 8.48674 4.33074C8.75717 4.52303 9.08118 4.62549 9.41299 4.62366C9.67044 4.63139 9.92508 4.56841 10.1492 4.44158" fill="white"/>
</svg>
