<svg width="7" height="9" viewBox="0 0 7 9" fill="none" xmlns="http://www.w3.org/2000/svg">
<path fill-rule="evenodd" clip-rule="evenodd" d="M3.16668 0.205078C1.48835 0.205078 0.22168 1.09966 0.22168 3.72008V8.47008H1.21918V3.69633C1.21918 1.73299 2.07418 1.10758 3.16668 1.10758C4.25918 1.10758 5.09043 1.73299 5.09043 3.69633V8.50174H6.12751V3.75174C6.12751 1.13133 4.85293 0.236744 3.16668 0.236744" fill="white"/>
<path d="M6.33333 8.70833H4.86875V3.69708C4.86875 2.11375 4.31458 1.32208 3.15875 1.32208C2.00292 1.32208 1.425 2.11375 1.425 3.69708V8.70833H0V3.72083C0 0.649167 1.71792 0 3.16667 0C4.61542 0 6.33333 0.649167 6.33333 3.72083V8.70833ZM5.29625 8.3125H5.91375V3.72083C5.91375 1.52792 4.9875 0.395833 3.16667 0.395833C1.34583 0.395833 0.427501 1.51208 0.427501 3.705V8.3125H1.01333V3.69708C1.01333 1.38542 2.185 0.9025 3.16667 0.9025C4.14833 0.9025 5.30417 1.38542 5.30417 3.69708L5.29625 8.3125Z" fill="white"/>
</svg>
