<svg width="13" height="16" viewBox="0 0 13 16" fill="none" xmlns="http://www.w3.org/2000/svg">
<path d="M4.00583 12.726C4.0578 13.5733 3.77331 14.4069 3.21417 15.0456C2.92785 15.3216 2.58693 15.5346 2.21335 15.671C1.83977 15.8073 1.44179 15.864 1.045 15.8373C0.690273 15.8349 0.337949 15.7789 0 15.671L0.150417 14.0323C0.368399 14.1007 0.594934 14.138 0.823334 14.1431C1.615 14.1431 1.97917 13.6839 1.98708 12.7735V3.27353C1.93892 2.40994 2.22206 1.56051 2.77875 0.898529C3.07479 0.595609 3.43192 0.35917 3.8264 0.204928C4.22088 0.0506864 4.64367 -0.0178259 5.06667 0.00394558C5.49447 0.015875 5.91949 0.0769705 6.33333 0.186029L6.1275 1.76936C5.8691 1.70215 5.6028 1.67019 5.33583 1.67436C4.43333 1.67436 3.98208 2.2127 3.98208 3.2577L4.00583 12.726ZM11.0833 6.33728V9.50395H7.91667V6.33728H11.0833ZM12.6667 4.75395H6.33333V11.0873H12.6667V4.75395Z" fill="white"/>
</svg>
