<svg width="30" height="12" viewBox="0 0 30 12" fill="none" xmlns="http://www.w3.org/2000/svg">
<path d="M11.0833 0.989583C10.925 1.10833 10.7588 1.22708 10.5846 1.33792C10.418 1.45553 10.2434 1.56135 10.0621 1.65458C9.88096 1.7434 9.69299 1.81753 9.5 1.87625C9.30453 1.93338 9.10198 1.96269 8.89833 1.96333C8.48827 1.96327 8.07856 1.93948 7.67125 1.89208L6.45208 1.7575C6.30314 1.8369 6.16702 1.93832 6.04833 2.05833C5.92234 2.18184 5.80835 2.31703 5.70792 2.46208C5.60858 2.60506 5.5212 2.75599 5.44667 2.91333C5.36954 3.06784 5.30083 3.22641 5.24083 3.38833H7.91667V4.63125H4.91625C4.83708 4.98486 4.75 5.34111 4.655 5.7C4.56792 6.05625 4.45708 6.39667 4.33833 6.73708C4.21906 7.06498 4.07344 7.38268 3.90292 7.68708C3.73783 7.97614 3.53555 8.24229 3.30125 8.47875C3.07125 8.72469 2.80412 8.93305 2.50958 9.09625C2.17902 9.29092 1.81754 9.42748 1.44083 9.5H1.15583C0.953314 9.50197 0.752124 9.4671 0.562083 9.39708C0.370242 9.32897 0.182559 9.24967 0 9.15958L0.657083 8.09875C0.721121 8.13905 0.787179 8.17604 0.855 8.20958C0.923392 8.24552 0.999409 8.26453 1.07667 8.265H1.36167C1.70035 8.16501 2.01174 7.98901 2.27208 7.75042C2.51117 7.52008 2.71165 7.25277 2.86583 6.95875C3.0224 6.65395 3.14455 6.33267 3.23 6.00083C3.325 5.66833 3.41208 5.32 3.49125 4.97958L3.55458 4.67875H2.7075V3.38833H3.91083C3.99849 3.08669 4.10424 2.7906 4.2275 2.50167C4.3525 2.21916 4.51205 1.95324 4.7025 1.71C4.44917 1.71 4.19583 1.7575 3.91083 1.78917C3.65823 1.82569 3.40925 1.88396 3.16667 1.96333C2.92844 2.04272 2.70003 2.14895 2.48583 2.28C2.26636 2.41878 2.07113 2.59262 1.90792 2.79458C1.86989 2.83928 1.83548 2.88693 1.805 2.93708C1.76903 2.98504 1.74958 3.04338 1.74958 3.10333C1.73183 3.22673 1.73183 3.35202 1.74958 3.47542C1.78152 3.57104 1.82684 3.66166 1.88417 3.74458C1.94418 3.82602 2.01323 3.90038 2.09 3.96625L2.375 4.18792L1.425 5.11417C1.27117 4.98921 1.12817 4.8515 0.9975 4.7025C0.87095 4.56147 0.759509 4.40757 0.665 4.24333C0.565684 4.08109 0.490982 3.905 0.443333 3.72083C0.385002 3.52834 0.355653 3.32823 0.35625 3.12708C0.355928 3.01194 0.371921 2.89733 0.40375 2.78667C0.43769 2.67542 0.480034 2.56691 0.530417 2.46208C0.585833 2.35917 0.649167 2.26417 0.7125 2.16917C0.775833 2.07417 0.855 1.98708 0.934167 1.90792C1.17332 1.63606 1.45385 1.40362 1.76542 1.21917C2.07437 1.02976 2.40367 0.875737 2.74708 0.759999C3.09096 0.650283 3.44305 0.568217 3.8 0.514583C4.15696 0.467474 4.51661 0.443673 4.87667 0.443333C5.18853 0.440546 5.50033 0.453759 5.81083 0.482917L6.745 0.569999L7.67917 0.665C7.99583 0.665 8.30458 0.704583 8.62125 0.704583C8.77611 0.707088 8.9306 0.688444 9.08042 0.649166C9.21632 0.613469 9.34878 0.565782 9.47625 0.506666C9.60292 0.443333 9.72167 0.364167 9.84833 0.285L10.2917 0L11.0833 0.989583ZM11.9146 3.22208H10.2917V2.43042H11.9146V3.22208ZM14.25 4.35417H13.3238V1.52L12.2154 1.86833V1.07667L14.1471 0.372083H14.25V4.35417Z" fill="white"/>
<path d="M9.50065 7.91667V9.5H7.91732V7.91667H9.50065ZM11.084 6.33333H6.33398V11.0833H11.084V6.33333ZM27.709 3.95833V7.125H24.5423V3.95833H27.709ZM29.2923 2.375H22.959V8.70833H29.2923V2.375ZM19.7923 3.95833V7.125H16.6257V3.95833H19.7923ZM21.3757 2.375H15.0423V8.70833H21.3757V2.375Z" fill="white"/>
</svg>
