<svg width="7" height="10" viewBox="0 0 7 10" fill="none" xmlns="http://www.w3.org/2000/svg">
<path d="M6.38875 7.78325H6.30167C6.26784 7.79132 6.23258 7.79132 6.19875 7.78325C6.17418 7.76916 6.15265 7.75032 6.13542 7.72783C6.0821 7.65154 6.04443 7.56544 6.02458 7.4745L4.67083 1.14117C4.60072 0.804342 4.41609 0.502209 4.14833 0.286166C3.85743 0.0878108 3.5106 -0.0120761 3.15875 0.00116538H2.86583L2.58875 0.048665H2.45417L2.35125 1.22033H2.85C2.8998 1.21206 2.95062 1.21206 3.00042 1.22033C3.03818 1.23463 3.07112 1.25934 3.09542 1.29158C3.12663 1.32915 3.15077 1.37207 3.16667 1.41825L3.23792 1.60033L3.53083 2.79575L0 8.93117H1.69417L3.98208 4.862L4.62333 7.72783C4.66797 7.8949 4.7235 8.05886 4.78958 8.21867C4.859 8.37239 4.95255 8.51404 5.06667 8.63825C5.18243 8.76463 5.3261 8.86222 5.48625 8.92325C5.67198 8.99885 5.87171 9.03393 6.07208 9.02617H6.30167C6.37969 9.01874 6.45668 9.00281 6.53125 8.97867L6.67375 8.93908L6.72125 7.71992L6.38875 7.78325Z" fill="white"/>
</svg>
