<svg width="32" height="12" viewBox="0 0 32 12" fill="none" xmlns="http://www.w3.org/2000/svg">
<path d="M8.28875 6.85462L8.24125 6.94171C8.18583 7.05254 8.11458 7.17129 8.03542 7.30587C7.96357 7.42869 7.88147 7.54522 7.79 7.65421C7.70572 7.75816 7.60391 7.84658 7.48917 7.91546C7.39287 7.97878 7.27983 8.01187 7.16458 8.01046C6.90097 8.02743 6.63653 8.02743 6.37292 8.01046C6.11958 7.97879 5.85569 7.93921 5.58125 7.89171L4.78958 7.72546C4.54417 7.67004 4.29083 7.60671 4.04542 7.53546C4.11529 7.46792 4.18136 7.39656 4.24333 7.32171C4.33833 7.19504 4.43333 7.06046 4.52042 6.91796C4.60981 6.77723 4.69173 6.63189 4.76583 6.48254C4.83708 6.33212 4.8925 6.18962 4.94792 6.05504C5.01963 5.84458 5.08041 5.63054 5.13 5.41379C5.20125 5.15254 5.26458 4.86754 5.34375 4.55087C5.42292 4.23421 5.48625 3.91754 5.57333 3.58504C5.66042 3.25254 5.73958 2.94379 5.82667 2.66671C5.9067 2.41834 6.00188 2.1751 6.11167 1.93837C6.17163 1.78451 6.27301 1.65025 6.40458 1.55046C6.47959 1.50305 6.55915 1.46327 6.64208 1.43171C6.72403 1.40574 6.80945 1.39239 6.89542 1.39213H7.05375C7.11925 1.40606 7.18299 1.4273 7.24375 1.45546C7.29774 1.48057 7.34829 1.51249 7.39417 1.55046C7.40971 1.56434 7.42201 1.58145 7.43022 1.6006C7.43842 1.61975 7.44233 1.64047 7.44167 1.66129C7.44738 1.70597 7.44738 1.75119 7.44167 1.79587L7.38625 1.96212V2.12046L8.74792 2.40546V2.32629C8.74792 2.21546 8.81125 2.10462 8.835 1.99379C8.84752 1.87537 8.84752 1.75596 8.835 1.63754C8.83631 1.46154 8.80407 1.28689 8.74 1.12296C8.68333 0.972232 8.60022 0.832825 8.49458 0.711291C8.39514 0.585837 8.27458 0.478678 8.13833 0.394625C8.00803 0.303909 7.86712 0.229467 7.71875 0.172958C7.57303 0.113644 7.42191 0.0685723 7.2675 0.0383745C6.90687 -0.0256325 6.53657 -0.00941531 6.18292 0.0858741C5.97011 0.142222 5.76905 0.236051 5.58917 0.362958C5.36377 0.521838 5.17485 0.726955 5.035 0.964624C4.86695 1.22655 4.72634 1.50511 4.61542 1.79587C4.49607 2.11502 4.39302 2.44002 4.30667 2.76963C4.21167 3.11004 4.12458 3.45046 4.04542 3.78296L3.91875 4.72504C3.8475 5.02587 3.76833 5.29504 3.68917 5.51671C3.63089 5.66787 3.55937 5.81357 3.47542 5.95212C3.38042 6.11046 3.2775 6.26087 3.16667 6.41129C3.05351 6.55558 2.9319 6.69304 2.8025 6.82296C2.69969 6.92694 2.58848 7.02226 2.47 7.10796L2.16125 7.10004C1.87753 7.04966 1.58522 7.08551 1.32208 7.20296C1.1571 7.27869 1.00055 7.37156 0.855 7.48004C0.70295 7.59008 0.557556 7.70904 0.419583 7.83629L0.0633335 8.17671L0 8.24004L1.00542 9.26921L1.06875 9.20587L1.22708 9.03962L1.46458 8.81004C1.54634 8.72765 1.63363 8.65095 1.72583 8.58046C1.81292 8.51713 1.84458 8.51713 1.84458 8.51713C2.08869 8.51822 2.33229 8.5394 2.57292 8.58046C2.81833 8.62796 3.06375 8.69129 3.30917 8.75462L4.0375 8.96837C4.28292 9.04754 4.53625 9.11087 4.77375 9.16629C5.16958 9.26129 5.56542 9.33254 5.97708 9.38796C6.38098 9.44507 6.78834 9.47417 7.19625 9.47504C7.46768 9.47995 7.7372 9.42874 7.98792 9.32462C8.21574 9.21934 8.42655 9.08059 8.61333 8.91296C8.80395 8.74277 8.97161 8.5485 9.11208 8.33504C9.26419 8.12019 9.40172 7.89538 9.52375 7.66212L9.56333 7.58296L8.28875 6.85462Z" fill="white"/>
<path d="M13.6003 7.89128V9.47461H12.0169V7.89128H13.6003ZM15.1836 6.30794H10.4336V11.0579H15.1836V6.30794ZM29.4336 3.93294V7.09961H26.2669V3.93294H29.4336ZM31.0169 2.34961H24.6836V8.68294H31.0169V2.34961ZM21.5169 3.93294V7.09961H18.3503V3.93294H21.5169ZM23.1003 2.34961H16.7669V8.68294H23.1003V2.34961Z" fill="white"/>
</svg>
