<svg width="24" height="19" viewBox="0 0 24 19" fill="none" xmlns="http://www.w3.org/2000/svg">
<path d="M6.33333 8.70833H4.75V0H6.33333V8.70833ZM7.60792 0.989583C7.60178 0.876919 7.61979 0.764245 7.66075 0.659111C7.70171 0.553978 7.76468 0.458814 7.84542 0.38C8.02367 0.226218 8.25125 0.141615 8.48667 0.141615C8.72209 0.141615 8.94967 0.226218 9.12792 0.38C9.28562 0.543747 9.37373 0.762242 9.37373 0.989583C9.37373 1.21693 9.28562 1.43542 9.12792 1.59917C8.95094 1.75236 8.7247 1.83668 8.49063 1.83668C8.25655 1.83668 8.03031 1.75236 7.85333 1.59917C7.77116 1.52106 7.70673 1.42621 7.66439 1.32104C7.62205 1.21587 7.60279 1.10284 7.60792 0.989583ZM9.27833 8.70833H7.695V2.57292H9.27833V8.70833ZM12.0412 2.57292L12.0888 3.26167C12.2868 3.00336 12.5442 2.79656 12.8391 2.65876C13.134 2.52095 13.4577 2.45621 13.7829 2.47C14.1112 2.44158 14.4402 2.5163 14.724 2.68376C15.0079 2.85121 15.2324 3.10305 15.3663 3.40417C15.5519 3.10647 15.813 2.86323 16.1231 2.69915C16.4331 2.53507 16.7811 2.45601 17.1317 2.47C17.3978 2.44838 17.6653 2.48939 17.9128 2.58974C18.1602 2.6901 18.3808 2.84701 18.5567 3.04792C18.8933 3.56334 19.0492 4.17595 19 4.78958V8.70833H17.4167V4.7975C17.4484 4.51837 17.3781 4.23718 17.2188 4.00583C17.1321 3.91257 17.0243 3.84157 16.9044 3.79885C16.7845 3.75613 16.6561 3.74294 16.53 3.76042C16.3115 3.75294 16.0967 3.81802 15.9191 3.94548C15.7415 4.07294 15.6112 4.25562 15.5483 4.465V8.70833H13.965V4.80542C13.9916 4.52553 13.9187 4.24522 13.7592 4.01375C13.6701 3.92651 13.563 3.85999 13.4453 3.81894C13.3276 3.77789 13.2023 3.76331 13.0783 3.77625C12.8781 3.76525 12.6791 3.81441 12.507 3.91739C12.3349 4.02038 12.1975 4.17249 12.1125 4.35417V8.70833H10.5292V2.57292H12.0412ZM11.875 12.6667L11.0833 13.4583L11.9383 14.4479H9.5V15.6354H11.9383L11.0833 16.625L11.875 17.4167L14.25 15.0417L11.875 12.6667Z" fill="white"/>
<path d="M22.1667 12.6673V17.4173H17.4167V12.6673H22.1667ZM23.75 11.084H15.8333V19.0007H23.75V11.084ZM6.33333 12.6673V17.4173H1.58333V12.6673H6.33333ZM7.91667 11.084H0V19.0007H7.91667V11.084Z" fill="white"/>
</svg>
