<svg width="29" height="19" viewBox="0 0 29 19" fill="none" xmlns="http://www.w3.org/2000/svg">
<path d="M8.70833 8.70833H7.125V0H8.70833V8.70833ZM9.98292 0.989583C9.97678 0.876919 9.99479 0.764245 10.0358 0.659111C10.0767 0.553978 10.1397 0.458814 10.2204 0.38C10.3987 0.226218 10.6262 0.141615 10.8617 0.141615C11.0971 0.141615 11.3247 0.226218 11.5029 0.38C11.6606 0.543747 11.7487 0.762242 11.7487 0.989583C11.7487 1.21693 11.6606 1.43542 11.5029 1.59917C11.3259 1.75236 11.0997 1.83668 10.8656 1.83668C10.6316 1.83668 10.4053 1.75236 10.2283 1.59917C10.1462 1.52106 10.0817 1.42621 10.0394 1.32104C9.99705 1.21587 9.97779 1.10284 9.98292 0.989583ZM11.6533 8.70833H10.07V2.57292H11.6533V8.70833ZM14.4162 2.57292L14.4638 3.26167C14.6618 3.00336 14.9192 2.79656 15.2141 2.65876C15.509 2.52095 15.8327 2.45621 16.1579 2.47C16.4862 2.44158 16.8152 2.5163 17.099 2.68376C17.3829 2.85121 17.6074 3.10305 17.7413 3.40417C17.9269 3.10647 18.188 2.86323 18.4981 2.69915C18.8081 2.53507 19.1561 2.45601 19.5067 2.47C19.7728 2.44838 20.0403 2.48939 20.2878 2.58974C20.5352 2.6901 20.7558 2.84701 20.9317 3.04792C21.2683 3.56334 21.4242 4.17595 21.375 4.78958V8.70833H19.7917V4.7975C19.8234 4.51837 19.7531 4.23718 19.5938 4.00583C19.5071 3.91257 19.3993 3.84157 19.2794 3.79885C19.1595 3.75613 19.0311 3.74294 18.905 3.76042C18.6865 3.75294 18.4717 3.81802 18.2941 3.94548C18.1165 4.07294 17.9862 4.25562 17.9233 4.465V8.70833H16.34V4.80542C16.3666 4.52553 16.2937 4.24522 16.1342 4.01375C16.0451 3.92651 15.938 3.85999 15.8203 3.81894C15.7026 3.77789 15.5773 3.76331 15.4533 3.77625C15.2531 3.76525 15.0541 3.81441 14.882 3.91739C14.7099 4.02038 14.5725 4.17249 14.4875 4.35417V8.70833H12.9042V2.57292H14.4162ZM11.875 12.6667L11.0833 13.4583L11.9383 14.4479H9.5V15.6354H11.9383L11.0833 16.625L11.875 17.4167L14.25 15.0417L11.875 12.6667ZM25.3333 11.0833H28.5V12.2708H25.3333V11.0833Z" fill="white"/>
<path d="M26.3232 13.2604V10.0938H27.5107V13.2604H26.3232Z" fill="white"/>
<path d="M22.1667 12.6673V17.4173H17.4167V12.6673H22.1667ZM23.75 11.084H15.8333V19.0007H23.75V11.084ZM6.33333 12.6673V17.4173H1.58333V12.6673H6.33333ZM7.91667 11.084H0V19.0007H7.91667V11.084Z" fill="white"/>
</svg>
