<svg width="32" height="13" viewBox="0 0 32 13" fill="none" xmlns="http://www.w3.org/2000/svg">
<path d="M19 6.28583C18.9952 5.38957 19.1151 4.49699 19.3563 3.63375C19.5831 2.8308 19.9416 2.07104 20.4171 1.38542C20.7881 0.810903 21.2935 0.335397 21.8896 0L22.1667 0.855C21.5547 1.38268 21.0977 2.0668 20.8446 2.83417C20.489 3.8088 20.3016 4.83676 20.2904 5.87417V6.39667C20.2731 7.50672 20.4417 8.61184 20.7892 9.66625C21.0337 10.5164 21.5108 11.2814 22.1667 11.875L21.8896 12.6667C21.2907 12.3288 20.7827 11.8507 20.4092 11.2733C19.9362 10.5873 19.5804 9.82755 19.3563 9.025C19.1105 8.13299 18.9906 7.21102 19 6.28583ZM31.6667 6.28583C31.6714 5.38957 31.5515 4.49699 31.3104 3.63375C31.0836 2.8308 30.7251 2.07104 30.2496 1.38542C29.8785 0.810903 29.3731 0.335397 28.7771 0L28.5 0.855C29.112 1.38268 29.5689 2.0668 29.8221 2.83417C30.1776 3.8088 30.365 4.83676 30.3762 5.87417V6.39667C30.3935 7.50672 30.225 8.61184 29.8775 9.66625C29.633 10.5164 29.1559 11.2814 28.5 11.875L28.7771 12.6667C29.376 12.3288 29.884 11.8507 30.2575 11.2733C30.7305 10.5873 31.0863 9.82755 31.3104 9.025C31.5561 8.13299 31.676 7.21102 31.6667 6.28583ZM1.35375 9.58708H0V2.77083H1.35375V9.58708ZM2.05833 7.125C2.06274 6.68626 2.17127 6.25484 2.375 5.86625C2.55306 5.51028 2.82732 5.21134 3.16667 5.00333C3.55211 4.79232 3.98608 4.68588 4.42542 4.69458C4.72903 4.67516 5.03341 4.718 5.31986 4.82046C5.60632 4.92293 5.86881 5.08286 6.09122 5.29045C6.31363 5.49803 6.49127 5.74888 6.61322 6.0276C6.73518 6.30632 6.79888 6.60702 6.80042 6.91125V7.23583C6.81467 7.55964 6.76465 7.88307 6.65323 8.18744C6.54181 8.49181 6.3712 8.77109 6.15125 9.00917C5.92365 9.23345 5.65217 9.40829 5.35382 9.52273C5.05548 9.63716 4.73671 9.68872 4.4175 9.67417C4.09704 9.68934 3.77689 9.6381 3.47718 9.52367C3.17746 9.40923 2.90463 9.23406 2.67583 9.00917C2.45801 8.76451 2.29119 8.47885 2.18516 8.16891C2.07913 7.85896 2.03601 7.53098 2.05833 7.20417V7.125ZM3.40417 7.22C3.37988 7.58815 3.47422 7.95439 3.67333 8.265C3.76382 8.3876 3.88387 8.48528 4.0223 8.54896C4.16073 8.61264 4.31303 8.64023 4.465 8.62917C4.61627 8.64113 4.76811 8.61475 4.90648 8.55248C5.04486 8.49022 5.1653 8.39406 5.25667 8.27292C5.45009 7.92324 5.5303 7.52218 5.48625 7.125C5.50817 6.75847 5.41097 6.39467 5.20917 6.08792C5.11856 5.96495 4.99872 5.86653 4.86048 5.80156C4.72225 5.73659 4.56999 5.70712 4.4175 5.71583C4.26536 5.70324 4.11254 5.73015 3.97384 5.79395C3.83515 5.85775 3.71528 5.95628 3.62583 6.08C3.43301 6.43266 3.3555 6.83686 3.40417 7.23583V7.22ZM7.2675 7.125C7.23796 6.48712 7.43418 5.85923 7.82167 5.35167C7.99982 5.13038 8.22708 4.95364 8.48542 4.83546C8.74376 4.71728 9.02608 4.66092 9.31 4.67083C9.55259 4.65676 9.79516 4.69871 10.0189 4.79343C10.2427 4.88816 10.4417 5.03312 10.6004 5.21708L10.6558 4.76583H11.875V9.405C11.8833 9.7907 11.7788 10.1704 11.5742 10.4975C11.3722 10.8168 11.0763 11.0657 10.7271 11.21C10.325 11.3831 9.89012 11.4668 9.4525 11.4554C9.08311 11.455 8.71736 11.3824 8.37583 11.2417C8.07032 11.1327 7.79778 10.9474 7.58417 10.7033L8.18583 9.91167C8.33771 10.0846 8.52546 10.2224 8.73602 10.3154C8.94657 10.4083 9.17487 10.4543 9.405 10.45C9.70727 10.467 10.0046 10.3679 10.2363 10.1729C10.3409 10.0711 10.4215 9.94713 10.4721 9.81018C10.5228 9.67322 10.5423 9.52669 10.5292 9.38125V9.12C10.3737 9.28577 10.1843 9.41612 9.97391 9.50218C9.76354 9.58824 9.53711 9.628 9.31 9.61875C9.02929 9.62775 8.7503 9.57169 8.49485 9.45495C8.2394 9.33821 8.01442 9.16396 7.8375 8.94583C7.44367 8.43205 7.24453 7.79538 7.27542 7.14875L7.2675 7.125ZM8.61333 7.22C8.5937 7.58381 8.69077 7.94439 8.89042 8.24917C8.9758 8.36795 9.08901 8.46399 9.22013 8.52886C9.35125 8.59373 9.49627 8.62545 9.6425 8.62125C9.81561 8.63555 9.9893 8.6017 10.1444 8.52347C10.2995 8.44523 10.4299 8.32564 10.5213 8.17792V6.18292C10.4318 6.03709 10.304 5.91863 10.1519 5.84045C9.99969 5.76227 9.82897 5.72738 9.65833 5.73958C9.50504 5.73103 9.35207 5.76139 9.21366 5.82783C9.07524 5.89426 8.95588 5.99463 8.86667 6.11958C8.66886 6.45943 8.58041 6.85191 8.61333 7.24375V7.22Z" fill="white"/>
<path d="M26.9163 4.74935V7.91602H23.7497V4.74935H26.9163ZM28.4997 3.16602H22.1663V9.49935H28.4997V3.16602ZM16.6247 9.49935V11.0827H15.0413V9.49935H16.6247ZM18.208 7.91602H13.458V12.666H18.208V7.91602Z" fill="white"/>
</svg>
