<svg xmlns="http://www.w3.org/2000/svg" class="sc-8848da46-1 iPkfYx _gHdu" viewBox="0 0 20 20"><path class="mainColor" d="M4.55,17,5,15.87a4.45,4.45,0,0,1-1.55-2.21,10.48,10.48,0,0,1-.54-3.55v-.3a10.43,10.43,0,0,1,.55-3.49A4.47,4.47,0,0,1,5,4.13L4.55,3A4.44,4.44,0,0,0,2.74,4.39,7.24,7.24,0,0,0,1.46,6.81,10,10,0,0,0,1,9.9v.31a10,10,0,0,0,.46,3,7.35,7.35,0,0,0,1.28,2.42A4.4,4.4,0,0,0,4.55,17Z" fill="#777"/><path class="mainColor" d="M15.44,17a4.34,4.34,0,0,0,1.79-1.4,7.73,7.73,0,0,0,1.3-2.47,9.8,9.8,0,0,0,.47-3V9.8a9.5,9.5,0,0,0-.49-3,7.6,7.6,0,0,0-1.29-2.43A4.43,4.43,0,0,0,15.44,3L15,4.13a4.37,4.37,0,0,1,1.48,2.21A10.74,10.74,0,0,1,17,9.89v.42a10.84,10.84,0,0,1-.54,3.38A4.53,4.53,0,0,1,15,15.87Z" fill="#777"/><rect class="mainColor" x="6" y="6" width="3" height="3" fill="#777"/><rect class="mainColor" x="11" y="6" width="3" height="3" fill="#777"/><rect class="mainColor" x="6" y="11" width="3" height="3" fill="#777"/><rect class="mainColor" x="11" y="11" width="3" height="3" fill="#777"/></svg>