<svg width="8" height="10" viewBox="0 0 8 10" fill="none" xmlns="http://www.w3.org/2000/svg">
<path d="M6.73335 2.65208C6.55199 2.18995 6.29811 1.75969 5.98127 1.3775H7.0896V0H3.70919V1.3775H3.88335C4.14172 1.4265 4.3845 1.53697 4.59119 1.69956C4.79787 1.86215 4.96239 2.0721 5.07085 2.31167C5.41711 3.05346 5.57483 3.86927 5.53002 4.68667V5.415C5.57714 6.15258 5.39162 6.88636 4.9996 7.51292C4.83854 7.73764 4.62373 7.91841 4.3748 8.03873C4.12587 8.15905 3.85076 8.21506 3.5746 8.20167C3.29886 8.21223 3.02473 8.15495 2.77628 8.03487C2.52783 7.91478 2.31264 7.73556 2.1496 7.51292C1.75331 6.88792 1.56488 6.15359 1.61127 5.415V4.68667C1.56848 3.87023 1.72328 3.05552 2.06252 2.31167C2.16477 2.07229 2.32445 1.86182 2.52744 1.69888C2.73042 1.53594 2.97045 1.42556 3.22627 1.3775H3.40044V0H0.00418751V1.3775H1.19169C0.860612 1.75676 0.593251 2.18721 0.400021 2.65208C0.129967 3.30151 -0.00472497 3.99922 0.00418751 4.7025V5.415C-0.0425399 6.50211 0.303053 7.5698 0.977937 8.42333C1.29968 8.79139 1.69643 9.08638 2.14156 9.28849C2.58669 9.4906 3.06991 9.59517 3.55877 9.59517C4.04764 9.59517 4.53085 9.4906 4.97598 9.28849C5.42111 9.08638 5.81786 8.79139 6.1396 8.42333C6.81449 7.5698 7.16008 6.50211 7.11335 5.415V4.7025C7.11758 4.00114 6.98863 3.30535 6.73335 2.65208Z" fill="white"/>
</svg>
