<svg width="7" height="10" viewBox="0 0 7 10" fill="none" xmlns="http://www.w3.org/2000/svg">
<path d="M5.30417 0.0316674L4.5125 4.78167C4.37047 5.01967 4.16847 5.21622 3.92667 5.35167C3.67074 5.49305 3.379 5.55635 3.0875 5.53375C2.97684 5.52311 2.86786 5.49919 2.76292 5.4625C2.68224 5.41699 2.61209 5.35494 2.55708 5.28042C2.50155 5.19574 2.46135 5.10195 2.43833 5.00333C2.4077 4.88411 2.38914 4.76211 2.38292 4.63917C2.375 4.50734 2.375 4.37516 2.38292 4.24333C2.38292 4.10875 2.38292 3.97417 2.4225 3.85542L3.05583 0H1.58333L0 9.10417H1.43292L1.91583 6.52333C2.03629 6.60133 2.16679 6.66258 2.30375 6.70542C2.53857 6.77112 2.78045 6.80833 3.02417 6.81625C3.36379 6.8223 3.69922 6.74049 3.99792 6.57875C4.10854 6.52248 4.21217 6.45339 4.30667 6.37292L4.25917 6.68958H5.58125L6.72917 0L5.30417 0.0316674Z" fill="white"/>
</svg>
