<svg width="29" height="29" viewBox="0 0 29 29" fill="none" xmlns="http://www.w3.org/2000/svg">
<path d="M0 11.0827H1.58333V17.416H0V11.0827ZM2.375 3.16602H3.95833V12.666H2.375V3.16602ZM2.375 15.8327H3.95833V25.3327H2.375V15.8327Z" fill="white"/>
<path d="M0 11.0827H3.95833V12.666H0V11.0827ZM2.375 3.16602H6.33333V4.74935H2.375V3.16602ZM2.375 23.7493H6.33333V25.3327H2.375V23.7493ZM0 15.8327H3.95833V17.416H0V15.8327Z" fill="white"/>
<path d="M14.2503 1.58333V6.33333H9.50033V1.58333H14.2503ZM15.8337 0H7.91699V7.91667H15.8337V0ZM26.917 1.58333V6.33333H19.0003V1.58333H26.917ZM28.5003 0H17.417V7.91667H28.5003V0ZM14.2503 11.875V16.625H9.50033V11.875H14.2503ZM15.8337 10.2917H7.91699V18.2083H15.8337V10.2917ZM26.917 11.875V16.625H19.0003V11.875H26.917ZM28.5003 10.2917H17.417V18.2083H28.5003V10.2917ZM14.2503 22.1667V26.9167H9.50033V22.1667H14.2503ZM15.8337 20.5833H7.91699V28.5H15.8337V20.5833ZM26.917 22.1667V26.9167H19.0003V22.1667H26.917ZM28.5003 20.5833H17.417V28.5H28.5003V20.5833Z" fill="white"/>
</svg>
