<svg width="24" height="13" viewBox="0 0 24 13" fill="none" xmlns="http://www.w3.org/2000/svg">
<path d="M9.5 6.28583C9.49522 5.38957 9.61512 4.49699 9.85625 3.63375C10.0831 2.8308 10.4416 2.07104 10.9171 1.38542C11.2881 0.810903 11.7935 0.335397 12.3896 0L12.6667 0.855C12.0547 1.38268 11.5977 2.0668 11.3446 2.83417C10.989 3.8088 10.8016 4.83676 10.7904 5.87417V6.39667C10.7731 7.50672 10.9417 8.61184 11.2892 9.66625C11.5337 10.5164 12.0108 11.2814 12.6667 11.875L12.3896 12.6667C11.7907 12.3288 11.2827 11.8507 10.9092 11.2733C10.4362 10.5873 10.0804 9.82755 9.85625 9.025C9.61054 8.13299 9.49063 7.21102 9.5 6.28583ZM23.75 6.28583C23.7548 5.38957 23.6349 4.49699 23.3937 3.63375C23.1669 2.8308 22.8084 2.07104 22.3329 1.38542C21.9619 0.810903 21.4565 0.335397 20.8604 0L20.5833 0.855C21.1953 1.38268 21.6523 2.0668 21.9054 2.83417C22.261 3.8088 22.4484 4.83676 22.4596 5.87417V6.39667C22.4769 7.50672 22.3083 8.61184 21.9608 9.66625C21.7163 10.5164 21.2392 11.2814 20.5833 11.875L20.8604 12.6667C21.4593 12.3288 21.9673 11.8507 22.3408 11.2733C22.8138 10.5873 23.1696 9.82755 23.3937 9.025C23.6395 8.13299 23.7594 7.21102 23.75 6.28583ZM1.1875 1.97917H0V10.6875H1.1875V1.97917ZM3.68917 4.47292L3.72875 5.18542C3.94702 4.91719 4.22403 4.70274 4.53838 4.5586C4.85272 4.41447 5.19599 4.34453 5.54167 4.35417C6.84 4.35417 7.49708 5.09833 7.52083 6.57875V10.6875H6.1275V6.65792C6.15319 6.34266 6.06 6.02919 5.86625 5.77917C5.75068 5.68324 5.61631 5.61255 5.47179 5.57164C5.32727 5.53074 5.17579 5.52053 5.02708 5.54167C4.7627 5.53535 4.50231 5.60707 4.27844 5.74787C4.05458 5.88867 3.87715 6.0923 3.76833 6.33333V10.6875H2.375V4.47292H3.68917Z" fill="white"/>
<path d="M19.0003 3.95833V8.70833H14.2503V3.95833H19.0003ZM20.5837 2.375H12.667V10.2917H20.5837V2.375Z" fill="white"/>
</svg>
