<svg width="19" height="7" viewBox="0 0 19 7" fill="none" xmlns="http://www.w3.org/2000/svg">
<path fill-rule="evenodd" clip-rule="evenodd" d="M7.91642 5.91407C7.44523 5.64744 7.05427 5.25921 6.78433 4.78991C6.49015 4.2996 6.33422 3.73878 6.33308 3.16699C6.32925 2.61227 6.47121 2.06627 6.74475 1.58366C7.01861 1.09164 7.4244 0.685848 7.91642 0.411992C8.40752 0.141721 8.95898 0 9.51954 0C10.0801 0 10.6316 0.141721 11.1227 0.411992C11.6955 0.758104 12.1978 1.20936 12.6031 1.74199L12.706 1.86866L12.8168 1.74199C13.2078 1.21358 13.6937 0.762563 14.2498 0.411992C14.7423 0.141737 15.295 5.73794e-05 15.8568 5.73794e-05C16.4186 5.73794e-05 16.9714 0.141737 17.4639 0.411992C17.931 0.681269 18.3188 1.06905 18.5881 1.53616C18.8698 2.03272 19.012 2.59621 18.9998 3.16699C19.0036 3.72172 18.8616 4.26772 18.5881 4.75032C18.3142 5.23803 17.9136 5.64263 17.4286 5.92135C16.9436 6.20006 16.3924 6.34252 15.8331 6.33366C15.2784 6.33749 14.7324 6.19553 14.2498 5.92199C13.6829 5.57086 13.1841 5.1203 12.7772 4.59199L12.6664 4.46532L12.5635 4.59199C12.1543 5.12103 11.6528 5.57162 11.0831 5.92199C10.6005 6.19553 10.0545 6.33749 9.49975 6.33366C8.94372 6.33969 8.39649 6.19467 7.91642 5.91407ZM10.5922 4.33074C10.9675 4.04085 11.3028 3.70281 11.5897 3.32533L11.6927 3.19866L11.5897 3.07991C11.3048 2.69838 10.9692 2.35747 10.5922 2.06658C10.3218 1.87429 9.99782 1.77183 9.666 1.77366C9.40855 1.76593 9.15392 1.8289 8.92975 1.95574C8.71842 2.07606 8.5434 2.25108 8.42308 2.46241C8.29375 2.683 8.22799 2.93508 8.23308 3.19074C8.22921 3.44626 8.29488 3.69802 8.42308 3.91908C8.5434 4.13041 8.71842 4.30543 8.92975 4.42574C9.15392 4.55258 9.40855 4.61555 9.666 4.60782C9.99782 4.60966 10.3218 4.50719 10.5922 4.31491M16.4822 4.42574C16.6953 4.30772 16.8709 4.13215 16.9889 3.91908C17.1171 3.69802 17.1828 3.44626 17.1789 3.19074C17.184 2.93508 17.1183 2.683 16.9889 2.46241C16.8709 2.24934 16.6953 2.07376 16.4822 1.95574C16.2581 1.8289 16.0034 1.76593 15.746 1.77366C15.4142 1.77183 15.0902 1.87429 14.8197 2.06658C14.4428 2.35747 14.1072 2.69838 13.8222 3.07991L13.7193 3.19866L13.8222 3.32533C14.1092 3.70281 14.4445 4.04085 14.8197 4.33074C15.0902 4.52303 15.4142 4.62549 15.746 4.62366C16.0034 4.63139 16.2581 4.56841 16.4822 4.44158" fill="white"/>
<path d="M0 2.375H4.75V3.95833H0V2.375Z" fill="white"/>
</svg>
