<svg width="9" height="8" viewBox="0 0 9 8" fill="none" xmlns="http://www.w3.org/2000/svg">
<path d="M8.63758 1.73375C8.59572 1.19233 8.47848 0.659412 8.28925 0.150416L8.2655 0H6.75342L6.85633 0.284999C7.02414 0.771645 7.13311 1.27663 7.18092 1.78917C7.24948 2.47394 7.21479 3.16512 7.078 3.83958C7.04443 4.03207 6.99949 4.22241 6.94342 4.40958C6.89284 4.59688 6.82664 4.77961 6.7455 4.95583C6.6766 5.12018 6.58608 5.2746 6.47633 5.415C6.38206 5.53083 6.26651 5.62756 6.13592 5.7C6.00287 5.77271 5.85174 5.80568 5.7005 5.795C5.54044 5.79991 5.3846 5.74324 5.26508 5.63667C5.15359 5.50979 5.07478 5.3576 5.0355 5.19333C4.97976 4.99246 4.95572 4.78412 4.96425 4.57583C4.96404 4.37199 4.97726 4.16835 5.00383 3.96625L5.31258 1.90792H3.80842L3.5155 3.88708C3.5155 4.0375 3.468 4.19583 3.43633 4.34625C3.39986 4.49904 3.35493 4.64969 3.30175 4.7975C3.24868 4.94056 3.18242 5.07837 3.10383 5.20917C3.03683 5.32757 2.9513 5.43447 2.8505 5.52583C2.75384 5.61705 2.63897 5.68677 2.51344 5.73043C2.38791 5.7741 2.25457 5.7907 2.12217 5.77917C2.00698 5.7799 1.89509 5.74074 1.8055 5.66833C1.70967 5.58942 1.63373 5.48908 1.58383 5.37542C1.524 5.23107 1.48405 5.07927 1.46508 4.92417C1.43979 4.74847 1.42657 4.57125 1.4255 4.39375C1.42798 4.07554 1.45445 3.75798 1.50466 3.44375C1.54495 3.17486 1.60853 2.90997 1.69467 2.65208C1.88119 2.10536 2.11427 1.57564 2.39133 1.06875L2.97717 0H1.39383L1.3305 0.0870823C0.992731 0.58199 0.711266 1.11306 0.491332 1.67042C0.267668 2.22847 0.121177 2.81443 0.0559145 3.41208C0.0559145 3.6575 0.00841475 3.91083 0.000498083 4.20375C-0.00309769 4.46845 0.0127796 4.73305 0.0479992 4.99542C0.0775422 5.26478 0.135932 5.53019 0.222165 5.78708C0.303387 6.03333 0.426591 6.26367 0.586331 6.46792C0.755535 6.68639 0.972843 6.8629 1.22136 6.98373C1.46988 7.10456 1.74292 7.16645 2.01925 7.16458H2.10633C2.55309 7.14927 2.98317 6.99111 3.33342 6.71333C3.51842 6.56657 3.68343 6.39624 3.82425 6.20667L3.95883 6.00875C3.98042 6.06633 4.00691 6.12195 4.038 6.175C4.24188 6.5629 4.57936 6.86382 4.988 7.02208C5.201 7.10129 5.4258 7.14411 5.653 7.14875C6.2557 7.16841 6.8418 6.94934 7.28383 6.53917C7.49253 6.34287 7.67363 6.11917 7.82217 5.87417C7.96923 5.62056 8.09628 5.35587 8.20217 5.0825C8.30576 4.80622 8.3904 4.52321 8.4555 4.23542C8.51092 3.95833 8.55842 3.68917 8.598 3.40417C8.66525 2.84996 8.6785 2.29052 8.63758 1.73375Z" fill="white"/>
</svg>
