<svg width="19" height="24" viewBox="0 0 19 24" fill="none" xmlns="http://www.w3.org/2000/svg">
<path d="M0 11.0844H19V12.6678H0V11.0844ZM9.57917 2.78778C10.1732 2.78825 10.7427 3.02459 11.1625 3.44486C11.2225 2.91989 11.1114 2.38957 10.8458 1.93278C10.7334 1.74118 10.5725 1.58254 10.3793 1.47277C10.1862 1.36299 9.96757 1.30595 9.74542 1.30736C9.2349 1.31042 8.72874 1.40148 8.24917 1.57653L8.075 0.404861C8.65708 0.124416 9.29739 -0.0139557 9.94333 0.00111094C10.4897 -0.0118199 11.0266 0.145914 11.4792 0.452361C11.9149 0.763506 12.2373 1.20819 12.3975 1.71903C12.6025 2.33061 12.6937 2.97457 12.6667 3.61903C12.6635 4.54884 12.4863 5.46985 12.1442 6.33444C11.8733 7.03281 11.4193 7.64536 10.83 8.10778C10.2833 8.51729 9.61262 8.72687 8.93 8.70153C8.40937 8.70127 7.89826 8.56188 7.44958 8.29778C7.04666 8.05484 6.73291 7.68834 6.555 7.25278C6.3549 6.77826 6.27862 6.26068 6.33333 5.74861V5.62986C6.39445 5.09614 6.57874 4.58393 6.87167 4.13361C7.15776 3.70304 7.55052 3.35392 8.01167 3.12028C8.49702 2.87689 9.0368 2.7624 9.57917 2.78778ZM9.71375 4.09403C9.51222 4.08161 9.31037 4.11265 9.12188 4.18504C8.93339 4.25743 8.76266 4.36949 8.62125 4.51361C8.30721 4.84065 8.11447 5.26526 8.075 5.71694C8.05723 5.93297 8.05723 6.15009 8.075 6.36611C8.07179 6.64095 8.1673 6.90781 8.34417 7.11819C8.43658 7.21264 8.54768 7.28676 8.67036 7.33584C8.79304 7.38491 8.92462 7.40785 9.05667 7.40319C9.25948 7.41567 9.4624 7.38067 9.64931 7.30096C9.83622 7.22125 10.0019 7.09903 10.1333 6.94403C10.4752 6.52809 10.6896 6.02226 10.7508 5.48736L10.8696 4.83819C10.7984 4.61239 10.6498 4.41895 10.45 4.29194C10.229 4.15597 9.97317 4.0872 9.71375 4.09403ZM5.62083 17.8294C6.21485 17.8299 6.78437 18.0663 7.20417 18.4865C7.26414 17.9616 7.15308 17.4312 6.8875 16.9744C6.77504 16.7829 6.61416 16.6242 6.42101 16.5144C6.22786 16.4047 6.00924 16.3476 5.78708 16.349C5.27657 16.3521 4.77041 16.4431 4.29083 16.6182L4.11667 15.4465C4.69875 15.1661 5.33906 15.0277 5.985 15.0428C6.53141 15.0298 7.06826 15.1876 7.52083 15.494C7.95652 15.8052 8.27892 16.2499 8.43917 16.7607C8.64418 17.3723 8.73541 18.0162 8.70833 18.6607C8.70516 19.5905 8.52794 20.5115 8.18583 21.3761C7.91492 22.0745 7.46098 22.687 6.87167 23.1494C6.32494 23.559 5.65429 23.7685 4.97167 23.7432C4.45103 23.7429 3.93993 23.6035 3.49125 23.3394C3.08832 23.0965 2.77457 22.73 2.59667 22.2944C2.39657 21.8199 2.32029 21.3023 2.375 20.7903V20.6715C2.43612 20.1378 2.62041 19.6256 2.91333 19.1753C3.19943 18.7447 3.59219 18.3956 4.05333 18.1619C4.53869 17.9186 5.07847 17.8041 5.62083 17.8294ZM5.75542 19.1357C5.55389 19.1233 5.35204 19.1543 5.16355 19.2267C4.97506 19.2991 4.80433 19.4112 4.66292 19.5553C4.34888 19.8823 4.15613 20.3069 4.11667 20.7586C4.09889 20.9746 4.09889 21.1918 4.11667 21.4078C4.10367 21.6961 4.19977 21.9788 4.38583 22.1994C4.47825 22.2939 4.58934 22.368 4.71203 22.4171C4.83471 22.4662 4.96628 22.4891 5.09833 22.4844C5.30114 22.4969 5.50407 22.4619 5.69098 22.3822C5.87788 22.3025 6.04361 22.1803 6.175 22.0253C6.51685 21.6093 6.73128 21.1035 6.7925 20.5686L6.91125 19.9194C6.84007 19.6936 6.69148 19.5002 6.49167 19.3732C6.27499 19.2233 6.01887 19.1406 5.75542 19.1357Z" fill="white"/>
<path d="M15.042 17.4193V20.5859H11.8753V17.4193H15.042ZM16.6253 15.8359H10.292V22.1693H16.6253V15.8359Z" fill="white"/>
</svg>
