<svg width="8" height="10" viewBox="0 0 8 10" fill="none" xmlns="http://www.w3.org/2000/svg">
<path d="M7.43447 2.12167C7.34852 1.75872 7.19547 1.41504 6.98322 1.10833C6.77626 0.805941 6.50616 0.552047 6.19155 0.364166C5.83819 0.167069 5.44033 0.063518 5.03572 0.0633333C4.81863 0.0566916 4.60193 0.0861195 4.39447 0.150417C4.20177 0.216012 4.0222 0.315178 3.86405 0.443333C3.5406 0.704781 3.33301 1.083 3.28614 1.49625L2.61322 5.26458C2.4404 5.21599 2.2771 5.13835 2.1303 5.035C1.95172 4.91095 1.80199 4.74985 1.69133 4.56268C1.58067 4.37551 1.51167 4.16667 1.48905 3.95042C1.44549 3.70693 1.44549 3.45765 1.48905 3.21417C1.5601 2.81603 1.7051 2.43474 1.91655 2.09C2.12739 1.74189 2.39497 1.43149 2.70822 1.17167L2.85072 1.06083L2.1778 0L2.01155 0.0950007C1.46864 0.417576 1.00756 0.861181 0.664256 1.39124C0.320956 1.92129 0.104715 2.52347 0.0323882 3.15083C-0.0232073 3.56215 -0.00713688 3.98 0.0798878 4.38583C0.158837 4.75737 0.315301 5.10807 0.539054 5.415C0.764382 5.71509 1.05376 5.9612 1.38614 6.13542C1.70412 6.3091 2.04955 6.42692 2.40739 6.48375L1.91655 9.08042H3.3653L3.85614 6.51542C4.28016 6.46934 4.69732 6.37369 5.09905 6.23042C5.52045 6.0733 5.9135 5.8487 6.2628 5.56542C6.60192 5.28369 6.88407 4.93974 7.09405 4.55208C7.31692 4.13428 7.45672 3.67724 7.50572 3.20625C7.54295 2.84328 7.51886 2.47664 7.43447 2.12167ZM6.06489 3.1825C6.03532 3.45983 5.95196 3.72874 5.81947 3.97417C5.69489 4.21515 5.52873 4.43223 5.32864 4.61542C5.12442 4.80558 4.89211 4.96312 4.63989 5.0825C4.45889 5.16329 4.2707 5.2269 4.0778 5.2725L4.71905 1.53583C4.73884 1.47492 4.77434 1.42031 4.82197 1.3775C4.87061 1.33524 4.93183 1.3102 4.99614 1.30625C5.12799 1.29444 5.26078 1.31341 5.38405 1.36167C5.49832 1.40678 5.59915 1.48036 5.67697 1.57542C5.76796 1.67523 5.84035 1.79052 5.89072 1.91583C5.94857 2.05392 5.99362 2.19701 6.0253 2.34333C6.08182 2.61932 6.09518 2.90241 6.06489 3.1825Z" fill="white"/>
</svg>
