<svg width="24" height="24" viewBox="0 0 24 24" fill="none" xmlns="http://www.w3.org/2000/svg">
<path d="M12 10C11.2044 10 10.4413 10.3161 9.87868 10.8787C9.31607 11.4413 9 12.2044 9 13C9 13.7956 9.31607 14.5587 9.87868 15.1213C10.4413 15.6839 11.2044 16 12 16C12.7956 16 13.5587 15.6839 14.1213 15.1213C14.6839 14.5587 15 13.7956 15 13C15 12.2044 14.6839 11.4413 14.1213 10.8787C13.5587 10.3161 12.7956 10 12 10ZM20 5H16.83L15.59 3.65C15.4036 3.44539 15.1767 3.28191 14.9235 3.16999C14.6704 3.05807 14.3968 3.00017 14.12 3H9.88C9.32 3 8.78 3.24 8.4 3.65L7.17 5H4C2.9 5 2 5.9 2 7V19C2 20.1 2.9 21 4 21H20C21.1 21 22 20.1 22 19V7C22 5.9 21.1 5 20 5ZM12 18C9.24 18 7 15.76 7 13C7 10.24 9.24 8 12 8C14.76 8 17 10.24 17 13C17 15.76 14.76 18 12 18Z" fill="#6C5694"/>
</svg>
