<svg width="29" height="19" viewBox="0 0 29 19" fill="none" xmlns="http://www.w3.org/2000/svg">
<path d="M0 6.33268H1.58333V12.666H0V6.33268ZM2.375 3.16602H3.95833V7.91602H2.375V3.16602ZM2.375 11.0827H3.95833V15.8327H2.375V11.0827Z" fill="white"/>
<path d="M0 6.33268H3.95833V7.91602H0V6.33268ZM2.375 3.16602H6.33333V4.74935H2.375V3.16602ZM2.375 14.2493H6.33333V15.8327H2.375V14.2493ZM0 11.0827H3.95833V12.666H0V11.0827Z" fill="white"/>
<path d="M14.2503 1.58333V6.33333H9.50033V1.58333H14.2503ZM15.8337 0H7.91699V7.91667H15.8337V0ZM26.917 1.58333V6.33333H19.0003V1.58333H26.917ZM28.5003 0H17.417V7.91667H28.5003V0ZM14.2503 12.6667V17.4167H9.50033V12.6667H14.2503ZM15.8337 11.0833H7.91699V19H15.8337V11.0833ZM26.917 12.6667V17.4167H19.0003V12.6667H26.917ZM28.5003 11.0833H17.417V19H28.5003V11.0833Z" fill="white"/>
</svg>
