<svg width="8" height="10" viewBox="0 0 8 10" fill="none" xmlns="http://www.w3.org/2000/svg">
<path d="M7.46545 1.59917C7.43295 1.10153 7.3399 0.609703 7.18836 0.134583L7.14086 0H5.67628L5.75545 0.26125C5.89551 0.709518 5.98838 1.17119 6.03253 1.63875C6.07211 2.10079 6.05616 2.56592 5.98503 3.02417C5.93716 3.31919 5.84368 3.60497 5.70795 3.87125C5.58408 4.12671 5.41816 4.35954 5.21711 4.56C5.01029 4.76058 4.77235 4.92634 4.51253 5.05083C4.325 5.14818 4.12532 5.22006 3.91878 5.26458L4.86878 0.0158337H3.41211L2.44628 5.25667C2.26162 5.20629 2.091 5.1142 1.94753 4.9875C1.77766 4.84747 1.64451 4.66812 1.55961 4.465C1.47407 4.2446 1.42332 4.01224 1.4092 3.77625C1.39829 3.51171 1.41154 3.24672 1.44878 2.98458L1.96336 0.0158337H0.554196L0.0475299 2.90542C-0.0158433 3.32526 -0.0158433 3.75224 0.0475299 4.17208C0.101959 4.56362 0.23383 4.9404 0.435446 5.28042C0.634814 5.60178 0.905752 5.87272 1.22711 6.07208C1.55031 6.27443 1.9112 6.40909 2.28795 6.46792L1.7892 9.0725H3.24586L3.72086 6.53125C4.16323 6.4886 4.59752 6.38469 5.01128 6.2225C5.43738 6.05743 5.83126 5.81896 6.17503 5.51792C6.50609 5.21979 6.77512 4.8593 6.9667 4.45708C7.18702 4.02638 7.32909 3.55997 7.38628 3.07958C7.46408 2.59021 7.49061 2.09405 7.46545 1.59917Z" fill="white"/>
</svg>
