<svg width="16" height="10" viewBox="0 0 16 10" fill="none" xmlns="http://www.w3.org/2000/svg">
<path d="M3.52292 4.21167C3.32367 4.18221 3.12265 4.16634 2.92125 4.16417C2.67342 4.13175 2.42161 4.17579 2.19949 4.29038C1.97737 4.40498 1.79555 4.58467 1.67833 4.80542V8.91417H0V2.63625H1.58333L1.63083 3.38833C1.76118 3.1296 1.96002 2.91158 2.2057 2.75803C2.45138 2.60448 2.73448 2.52129 3.02417 2.5175C3.20127 2.51811 3.37733 2.54479 3.54667 2.59667L3.52292 4.21167ZM7.79 8.91417C7.7069 8.73336 7.65088 8.5413 7.62375 8.34417C7.42715 8.56835 7.18299 8.74581 6.90906 8.8636C6.63514 8.98139 6.33837 9.03653 6.04042 9.025C5.48248 9.04694 4.93682 8.85751 4.5125 8.49458C4.31862 8.32897 4.16403 8.12227 4.05997 7.88949C3.9559 7.6567 3.90496 7.40367 3.91083 7.14875C3.89625 6.85173 3.95594 6.55576 4.08448 6.28761C4.21303 6.01945 4.40639 5.78756 4.64708 5.61292C5.28905 5.22216 6.03411 5.03452 6.78458 5.07458H7.57625V4.71833C7.59086 4.46671 7.51191 4.21858 7.35458 4.02167C7.26376 3.92874 7.15346 3.8571 7.03163 3.81193C6.90979 3.76675 6.77945 3.74916 6.65 3.76042C6.41081 3.74694 6.17476 3.82001 5.985 3.96625C5.90598 4.03456 5.84354 4.11996 5.80239 4.21596C5.76125 4.31197 5.74248 4.41608 5.7475 4.52042H4.04542C4.0442 4.15679 4.16396 3.80309 4.38583 3.515C4.62853 3.18852 4.95754 2.93627 5.33583 2.78667C5.77217 2.60504 6.24072 2.51349 6.71333 2.5175C7.37881 2.48327 8.03414 2.69141 8.55792 3.10333C8.7869 3.30805 8.96696 3.56159 9.0848 3.84524C9.20264 4.12888 9.25525 4.43538 9.23875 4.74208V7.4575C9.21517 7.92163 9.29916 8.38493 9.48417 8.81125V8.91417H7.79ZM6.38083 7.7425C6.62053 7.74397 6.85695 7.6869 7.06958 7.57625C7.26544 7.48042 7.42611 7.32529 7.52875 7.13292V6.05625H6.90333C6.06417 6.05625 5.62083 6.34917 5.56542 6.92708V7.03C5.56153 7.12805 5.57938 7.22575 5.61771 7.31609C5.65603 7.40642 5.71387 7.48716 5.78708 7.5525C5.95441 7.68761 6.16616 7.75537 6.38083 7.7425ZM10.26 5.72375C10.2091 4.88107 10.4403 4.04545 10.9171 3.34875C11.1287 3.07703 11.4022 2.85982 11.7148 2.71522C12.0274 2.57063 12.3701 2.50284 12.7142 2.5175C13.0017 2.51143 13.287 2.57019 13.5488 2.68942C13.8105 2.80865 14.0421 2.9853 14.2263 3.20625V0H15.8808V8.91417H14.4004L14.3213 8.24125C14.1369 8.48705 13.8978 8.68656 13.623 8.82397C13.3482 8.96138 13.0452 9.03292 12.7379 9.03292C12.394 9.04181 12.053 8.96724 11.7442 8.81558C11.4353 8.66392 11.1678 8.43969 10.9646 8.16208C10.4684 7.44868 10.2209 6.59183 10.26 5.72375ZM11.9383 5.85042C11.9106 6.32183 12.0177 6.7914 12.2471 7.20417C12.3406 7.35512 12.473 7.47813 12.6304 7.56031C12.7878 7.64249 12.9644 7.68081 13.1417 7.67125C13.3673 7.68766 13.5926 7.63513 13.7877 7.52061C13.9828 7.4061 14.1385 7.235 14.2342 7.03V4.53625C14.1448 4.32597 13.9926 4.14845 13.7985 4.02799C13.6043 3.90754 13.3777 3.85002 13.1496 3.86333C12.3315 3.86333 11.9225 4.52569 11.9225 5.85042H11.9383Z" fill="white"/>
</svg>
