<svg width="6" height="10" viewBox="0 0 6 10" fill="none" xmlns="http://www.w3.org/2000/svg">
<path d="M5.85833 1.92482C5.80855 1.67791 5.7343 1.43658 5.63667 1.2044C5.53501 0.979329 5.3958 0.773193 5.225 0.594819C5.05713 0.411156 4.85201 0.265412 4.62333 0.167318C4.37317 0.0596762 4.104 0.00315188 3.83167 0.00106877C3.56341 -0.00698154 3.29573 0.0304931 3.04 0.111902C2.79832 0.193134 2.56916 0.307713 2.35917 0.452319C2.14447 0.600414 1.95017 0.776085 1.78125 0.974818C1.60953 1.17843 1.45837 1.39853 1.33 1.6319C1.20549 1.88506 1.10734 2.15034 1.03708 2.42357C0.966845 2.68172 0.929605 2.94772 0.92625 3.21523L0 9.09732H1.34583L1.81292 6.34232C1.95509 6.46608 2.11526 6.56752 2.28792 6.64315C2.57099 6.76384 2.87481 6.82837 3.1825 6.83315C3.56677 6.8402 3.94662 6.75033 4.28699 6.57185C4.62736 6.39336 4.91729 6.132 5.13 5.8119C5.27434 5.6036 5.3964 5.38071 5.49417 5.1469C5.59863 4.90612 5.68335 4.65724 5.7475 4.40273C5.81183 4.14174 5.86204 3.87747 5.89792 3.61107V3.49232C5.91377 3.22867 5.91377 2.9643 5.89792 2.70065C5.91093 2.44137 5.89767 2.18143 5.85833 1.92482ZM3.74458 1.25982C3.87868 1.25548 4.01101 1.29131 4.12458 1.36273C4.22944 1.42394 4.31671 1.51121 4.37792 1.61607C4.45271 1.7324 4.50631 1.86105 4.53625 1.99607C4.57479 2.15749 4.60126 2.32155 4.61542 2.4869V2.99357C4.61542 3.15982 4.61542 3.31815 4.57583 3.47648V3.58732C4.54422 3.85634 4.48588 4.12154 4.40167 4.37899C4.32571 4.61005 4.21636 4.82875 4.07708 5.02815C3.95398 5.20473 3.79477 5.35314 3.61 5.46357C3.41767 5.57276 3.19723 5.62236 2.97667 5.60607C2.76915 5.61127 2.56581 5.5472 2.39875 5.42399C2.23533 5.29762 2.10719 5.13131 2.02667 4.94107L2.28792 3.27857C2.28792 3.12815 2.34333 2.96982 2.38292 2.81148C2.46685 2.49439 2.59476 2.19061 2.76292 1.90899C2.82985 1.77631 2.91513 1.65372 3.01625 1.54482C3.11305 1.4538 3.22576 1.38135 3.34875 1.33107C3.47236 1.27364 3.60871 1.2491 3.74458 1.25982Z" fill="white"/>
</svg>
