<svg width="25" height="7" viewBox="0 0 25 7" fill="none" xmlns="http://www.w3.org/2000/svg">
<path d="M3.15879 4.7487C3.15884 4.66133 3.13439 4.57569 3.08821 4.50152C3.04203 4.42735 2.97597 4.36762 2.89754 4.32912C2.62704 4.18682 2.33584 4.08797 2.03462 4.0362C0.744203 3.76704 0.0950364 3.24454 0.0950364 2.38954C0.0925412 2.15447 0.145763 1.92216 0.250342 1.71162C0.354921 1.50109 0.507885 1.31832 0.696703 1.17829C1.1514 0.836393 1.71193 0.665433 2.28004 0.695368C2.87422 0.662415 3.46153 0.835813 3.94254 1.1862C4.13909 1.33273 4.29771 1.52417 4.40513 1.74454C4.51256 1.9649 4.56568 2.20778 4.56004 2.45287H3.10337C3.10684 2.35699 3.09111 2.26138 3.05713 2.17165C3.02314 2.08193 2.97157 1.99989 2.90545 1.93037C2.8196 1.85746 2.72007 1.8024 2.61268 1.76841C2.50529 1.73443 2.39221 1.7222 2.28004 1.73245C2.07643 1.71939 1.87469 1.77822 1.71004 1.8987C1.64602 1.94783 1.59466 2.01153 1.56023 2.08451C1.52581 2.15749 1.50931 2.23764 1.51212 2.31829C1.51142 2.39678 1.53157 2.47405 1.57051 2.54221C1.60946 2.61036 1.6658 2.66696 1.73379 2.7062C1.98103 2.83737 2.2487 2.9257 2.52545 2.96745C2.83428 3.02444 3.13856 3.10381 3.43587 3.20495C3.76457 3.28464 4.05707 3.47222 4.2666 3.73773C4.47613 4.00323 4.5906 4.33131 4.5917 4.66954C4.59463 4.90785 4.53741 5.14306 4.42532 5.3534C4.31324 5.56373 4.14991 5.7424 3.95045 5.87287C3.4646 6.19767 2.8876 6.35856 2.30379 6.33204C1.88673 6.34219 1.47275 6.25831 1.09254 6.08662C0.773553 5.94033 0.500024 5.71056 0.30087 5.42162C0.103365 5.15638 -0.00225274 4.83397 3.64419e-05 4.50329H1.36962C1.37269 4.61753 1.40047 4.72976 1.45103 4.83225C1.50159 4.93475 1.57375 5.02508 1.66254 5.09704C1.87046 5.24314 2.12123 5.31559 2.37504 5.30287C2.59494 5.31683 2.81368 5.26145 3.00045 5.14454C3.05491 5.09471 3.09743 5.03324 3.12484 4.96471C3.15225 4.89617 3.16386 4.82234 3.15879 4.7487ZM8.0117 6.33204C7.65496 6.34628 7.29896 6.2892 6.96455 6.16413C6.63015 6.03907 6.32405 5.84854 6.0642 5.6037C5.81147 5.34675 5.61429 5.04056 5.48491 4.70417C5.35553 4.36778 5.29671 4.00837 5.31212 3.64829V3.50579C5.30171 2.99955 5.41017 2.49792 5.62879 2.0412C5.82507 1.62974 6.13562 1.28345 6.52337 1.0437C6.92674 0.808726 7.3866 0.688287 7.85337 0.695368C8.17868 0.678558 8.50375 0.73289 8.80592 0.854577C9.10809 0.976264 9.38008 1.16238 9.60295 1.39995C10.0623 1.95939 10.2916 2.67265 10.2442 3.39495V3.95704H6.78462C6.81769 4.28475 6.9698 4.58895 7.21212 4.81204C7.45758 5.03026 7.77862 5.1439 8.1067 5.1287C8.35845 5.13899 8.60902 5.08904 8.83759 4.98302C9.06616 4.877 9.26612 4.71796 9.42087 4.51912L10.1334 5.31079C9.90807 5.62638 9.60173 5.87528 9.2467 6.0312C8.86265 6.22241 8.44066 6.3252 8.0117 6.33204ZM7.84545 1.86704C7.71388 1.8625 7.58286 1.88631 7.4613 1.93685C7.33973 1.98739 7.23045 2.06348 7.14087 2.15995C6.94242 2.3987 6.81853 2.69052 6.78462 2.99912H8.80337V2.88037C8.81244 2.60597 8.71935 2.33797 8.54212 2.12829C8.44982 2.03972 8.34044 1.97089 8.22067 1.92597C8.1009 1.88106 7.97323 1.861 7.84545 1.86704ZM13.3317 5.16037C13.5709 5.17271 13.8059 5.09345 13.9888 4.9387C14.0708 4.86469 14.1364 4.77433 14.1814 4.67343C14.2264 4.57254 14.2498 4.46334 14.25 4.35287H15.6117C15.6093 4.7123 15.505 5.06368 15.3109 5.3662C15.117 5.67158 14.8432 5.918 14.5192 6.0787C14.1579 6.25711 13.7583 6.3441 13.3555 6.33204C13.017 6.34627 12.6794 6.28793 12.3654 6.16095C12.0513 6.03396 11.7681 5.84126 11.5346 5.59579C11.0583 5.02247 10.8177 4.28947 10.8617 3.54537V3.45037C10.8259 2.72183 11.0662 2.00659 11.5346 1.44745C11.7684 1.19705 12.0536 1.00018 12.3706 0.870362C12.6877 0.740544 13.029 0.680848 13.3713 0.695368C13.9723 0.665001 14.561 0.872633 15.01 1.27329C15.2161 1.47282 15.3782 1.71323 15.4859 1.97907C15.5936 2.24492 15.6445 2.53034 15.6355 2.81704H14.25C14.2509 2.56308 14.1579 2.31777 13.9888 2.12829C13.9024 2.0406 13.7986 1.97203 13.684 1.92702C13.5695 1.88202 13.4467 1.86158 13.3238 1.86704C13.1706 1.85288 13.0165 1.87991 12.8773 1.94533C12.7381 2.01075 12.6189 2.11218 12.5321 2.23912C12.3477 2.60878 12.2762 3.0245 12.3263 3.43454V3.58495C12.2923 4.00561 12.3832 4.42694 12.5875 4.7962C12.6716 4.91393 12.7836 5.00887 12.9135 5.07245C13.0435 5.13603 13.1872 5.16625 13.3317 5.16037Z" fill="white"/>
<path d="M23.4092 1.58333V4.75H20.2425V1.58333H23.4092ZM24.9925 0H18.6592V6.33333H24.9925V0Z" fill="white"/>
</svg>
