<svg width="20" height="26" viewBox="0 0 20 26" fill="none" xmlns="http://www.w3.org/2000/svg">
<path d="M19.0176 12.6738H0.0175781V14.2572H19.0176V12.6738Z" fill="white"/>
<path d="M18.2262 19.8032V18.9641H16.4925L17.0625 18.2674C17.2992 18.0188 17.5187 17.7543 17.7196 17.4757C17.8453 17.306 17.9465 17.1195 18.0204 16.9216C18.083 16.749 18.1152 16.5668 18.1154 16.3832C18.1276 16.1975 18.0992 16.0114 18.0322 15.8378C17.9652 15.6642 17.8612 15.5073 17.7275 15.3778C17.4183 15.1397 17.0321 15.0241 16.6429 15.0532C16.3655 15.0513 16.0925 15.1223 15.8512 15.2591C15.6122 15.39 15.4167 15.5882 15.2892 15.8291C15.1431 16.0735 15.0639 16.3519 15.0596 16.6366H16.0808C16.0727 16.4482 16.1255 16.2623 16.2312 16.1062C16.2712 16.0473 16.3241 15.9983 16.3858 15.9629C16.4477 15.9276 16.5167 15.9068 16.5877 15.9022C16.6587 15.8976 16.7299 15.9094 16.7957 15.9364C16.8616 15.9636 16.9203 16.0054 16.9675 16.0587C17.0594 16.1935 17.104 16.355 17.0942 16.5178C17.0286 16.9008 16.8429 17.253 16.5637 17.5233L15.1467 19.1066V19.8032H18.2262Z" fill="white"/>
<path d="M8.01304 4.37762C8.60703 4.3781 9.17655 4.61441 9.59637 5.0347C9.6563 4.50975 9.54523 3.97941 9.27971 3.52262C9.16721 3.33104 9.00634 3.17239 8.81318 3.06258C8.62001 2.95286 8.40143 2.89578 8.17929 2.8972C7.66874 2.90029 7.16255 2.99133 6.68304 3.16637L6.50887 1.9947C7.09091 1.71426 7.7312 1.57589 8.3772 1.59095C8.92361 1.57803 9.46044 1.73576 9.91304 2.0422C10.3487 2.35335 10.6711 2.79801 10.8314 3.30887C11.0363 3.92043 11.1276 4.56445 11.1005 5.20887C11.0973 6.13868 10.9201 7.05971 10.578 7.92429C10.3071 8.6227 9.85311 9.23521 9.26387 9.69762C8.71715 10.1072 8.04645 10.3167 7.36387 10.2914C6.84319 10.2911 6.33209 10.1517 5.88346 9.88762C5.4805 9.64466 5.16676 9.2782 4.98887 8.84262C4.78874 8.3681 4.7125 7.85051 4.76721 7.33846V7.21971C4.82832 6.68596 5.01254 6.17375 5.30554 5.72345C5.59157 5.29287 5.98439 4.94374 6.44554 4.71012C6.93083 4.46676 7.47067 4.35221 8.01304 4.37762ZM8.14762 5.68387C7.94606 5.67144 7.74419 5.70248 7.55569 5.77491C7.3672 5.84727 7.19651 5.95937 7.05512 6.10345C6.74107 6.43049 6.5483 6.85514 6.50887 7.30679C6.49106 7.52283 6.49106 7.73991 6.50887 7.95596C6.50563 8.23082 6.6011 8.49769 6.77804 8.70804C6.87043 8.80248 6.9815 8.87658 7.1042 8.92567C7.22691 8.97475 7.35849 8.99771 7.49054 8.99304C7.69328 9.00555 7.89627 8.97048 8.08318 8.89083C8.27009 8.81111 8.43579 8.68888 8.56721 8.53387C8.90905 8.11793 9.12343 7.61213 9.18471 7.07721L9.30345 6.42804C9.2322 6.20225 9.08369 6.00877 8.88387 5.88179C8.66284 5.74578 8.40697 5.67706 8.14762 5.68387Z" fill="white"/>
<path d="M15.0592 4.75445V3.91528H13.3255L13.8955 3.21861C14.1322 2.96987 14.3517 2.70538 14.5526 2.42695C14.6783 2.2572 14.7795 2.07066 14.8534 1.87276C14.916 1.70019 14.9482 1.51803 14.9484 1.33444C14.9606 1.14874 14.9322 0.962624 14.8652 0.789004C14.7982 0.615383 14.6942 0.458427 14.5605 0.329014C14.2513 0.0908565 13.8651 -0.024735 13.4759 0.00442999C13.1985 0.00252208 12.9255 0.0734952 12.6842 0.210271C12.4452 0.341197 12.2497 0.539375 12.1222 0.780263C11.9761 1.02464 11.8969 1.30312 11.8926 1.58776H12.9138C12.9058 1.3994 12.9585 1.21344 13.0642 1.05735C13.1042 0.998439 13.1571 0.949435 13.2189 0.914087C13.2807 0.878739 13.3497 0.857981 13.4207 0.853398C13.4917 0.848814 13.5629 0.86053 13.6287 0.887645C13.6946 0.914759 13.7533 0.95656 13.8005 1.00985C13.8924 1.14464 13.937 1.30615 13.9272 1.46902C13.8616 1.85199 13.6759 2.20415 13.3967 2.47445L11.9797 4.05778V4.75445H15.0592Z" fill="white"/>
<path d="M3.26304 19.4186C3.85703 19.4191 4.42655 19.6554 4.84637 20.0757C4.9063 19.5508 4.79523 19.0204 4.52971 18.5636C4.41721 18.3721 4.25634 18.2134 4.06318 18.1036C3.87001 17.9939 3.65143 17.9368 3.42929 17.9382C2.91874 17.9413 2.41255 18.0323 1.93304 18.2074L1.75887 17.0357C2.34091 16.7553 2.9812 16.6169 3.6272 16.632C4.17361 16.6191 4.71044 16.7768 5.16304 17.0832C5.59869 17.3943 5.92106 17.839 6.08137 18.3499C6.28633 18.9614 6.37761 19.6055 6.35054 20.2499C6.34729 21.1797 6.17012 22.1007 5.82804 22.9653C5.55705 23.6637 5.10311 24.2762 4.51387 24.7386C3.96715 25.1482 3.29645 25.3577 2.61387 25.3324C2.09319 25.3321 1.58209 25.1927 1.13346 24.9286C0.730497 24.6857 0.41676 24.3192 0.238872 23.8836C0.0387391 23.4091 -0.0374989 22.8915 0.0172052 22.3795V22.2607C0.0783219 21.727 0.262543 21.2148 0.555539 20.7645C0.841568 20.3339 1.23439 19.9848 1.69554 19.7511C2.18083 19.5078 2.72067 19.3932 3.26304 19.4186ZM3.39762 20.7249C3.19606 20.7125 2.99419 20.7435 2.80569 20.8159C2.6172 20.8883 2.44651 21.0004 2.30512 21.1445C1.99107 21.4715 1.7983 21.8962 1.75887 22.3478C1.74106 22.5638 1.74106 22.7809 1.75887 22.997C1.74581 23.2853 1.84192 23.568 2.02804 23.7886C2.12043 23.8831 2.2315 23.9572 2.35421 24.0063C2.47691 24.0553 2.60849 24.0783 2.74054 24.0736C2.94328 24.0861 3.14627 24.0511 3.33318 23.9714C3.52009 23.8917 3.68579 23.7695 3.81721 23.6145C4.15905 23.1985 4.37343 22.6927 4.43471 22.1578L4.55345 21.5086C4.4822 21.2828 4.33369 21.0894 4.13387 20.9624C3.91719 20.8124 3.66101 20.7298 3.39762 20.7249Z" fill="white"/>
<path d="M12.2881 19.0072V22.1738H9.12142V19.0072H12.2881ZM13.8714 17.4238H7.53809V23.7572H13.8714V17.4238Z" fill="white"/>
</svg>
