<svg width="20" height="26" viewBox="0 0 20 26" fill="none" xmlns="http://www.w3.org/2000/svg">
<path d="M18.2233 19.8032V18.9641H16.4896L17.0596 18.2674C17.2963 18.0188 17.5158 17.7543 17.7166 17.4757C17.8424 17.306 17.9436 17.1195 18.0175 16.9216C18.0801 16.749 18.1122 16.5668 18.1125 16.3832C18.1247 16.1975 18.0962 16.0114 18.0293 15.8378C17.9623 15.6642 17.8583 15.5073 17.7246 15.3778C17.4154 15.1397 17.0292 15.0241 16.64 15.0532C16.3626 15.0513 16.0896 15.1223 15.8483 15.2591C15.6092 15.39 15.4138 15.5882 15.2862 15.8291C15.1402 16.0735 15.061 16.3519 15.0566 16.6366H16.0779C16.0698 16.4482 16.1225 16.2623 16.2283 16.1062C16.2683 16.0473 16.3212 15.9983 16.3829 15.9629C16.4447 15.9276 16.5138 15.9068 16.5848 15.9022C16.6558 15.8976 16.727 15.9094 16.7928 15.9364C16.8586 15.9636 16.9174 16.0054 16.9646 16.0587C17.0565 16.1935 17.101 16.355 17.0912 16.5178C17.0257 16.9008 16.84 17.253 16.5608 17.5233L15.1437 19.1066V19.8032H18.2233Z" fill="white"/>
<path d="M16.6393 4.75445V3.91528H14.9056L15.4756 3.21861C15.7123 2.96987 15.9318 2.70538 16.1327 2.42695C16.2584 2.2572 16.3596 2.07066 16.4335 1.87276C16.4961 1.70019 16.5283 1.51803 16.5285 1.33444C16.5407 1.14874 16.5123 0.962624 16.4453 0.789004C16.3782 0.615383 16.2743 0.458427 16.1406 0.329014C15.8314 0.0908565 15.4452 -0.024735 15.056 0.00442999C14.7786 0.00252208 14.5056 0.0734952 14.2643 0.210271C14.0252 0.341197 13.8298 0.539375 13.7022 0.780263C13.5562 1.02464 13.477 1.30312 13.4727 1.58776H14.4939C14.4858 1.3994 14.5386 1.21344 14.6443 1.05735C14.6843 0.998439 14.7372 0.949435 14.7989 0.914087C14.8608 0.878739 14.9298 0.857981 15.0008 0.853398C15.0718 0.848814 15.143 0.86053 15.2088 0.887645C15.2746 0.914759 15.3334 0.95656 15.3806 1.00985C15.4725 1.14464 15.5171 1.30615 15.5072 1.46902C15.4417 1.85199 15.256 2.20415 14.9768 2.47445L13.5597 4.05778V4.75445H16.6393Z" fill="white"/>
<path d="M19.0146 12.6738H0.0146484V14.2572H19.0146V12.6738Z" fill="white"/>
<path d="M9.11874 4.01234C9.38324 4.01258 9.64417 4.07338 9.88152 4.18999C10.1189 4.30669 10.3265 4.47602 10.4883 4.68526L11.0979 1.58984H12.6812L11.185 10.1794H9.76791L9.85499 9.53026C9.67196 9.77742 9.43312 9.97795 9.15801 10.1155C8.88291 10.2531 8.57922 10.3238 8.27166 10.3219C7.91905 10.3232 7.57428 10.2184 7.28208 10.0211C6.98386 9.81502 6.75261 9.52599 6.61708 9.18984C6.44481 8.7895 6.35329 8.35899 6.34791 7.92318C6.32804 7.69668 6.32804 7.46884 6.34791 7.24234V6.98901C6.41956 6.41774 6.59673 5.86477 6.87041 5.35818C7.08685 4.93289 7.41183 4.57237 7.81249 4.31318C8.20619 4.08003 8.66267 3.9749 9.11874 4.01234ZM7.93124 7.26609C7.90884 7.50304 7.90884 7.74165 7.93124 7.97859C7.93124 8.63568 8.23208 8.96818 8.72291 8.98401C8.95384 8.98639 9.18168 8.93026 9.38514 8.82093C9.58868 8.71152 9.76118 8.55255 9.88666 8.35859L10.3142 5.98359C10.2572 5.79858 10.1412 5.63732 9.98396 5.52435C9.82673 5.41146 9.63681 5.35303 9.44333 5.35818C9.25839 5.34804 9.07386 5.38319 8.90555 5.46038C8.73732 5.53765 8.59039 5.65474 8.47749 5.80151C8.16716 6.23178 7.97843 6.73766 7.93124 7.26609Z" fill="white"/>
<path d="M2.78574 19.0534C3.05023 19.0536 3.31117 19.1144 3.54851 19.231C3.78593 19.3477 3.9935 19.517 4.15532 19.7263L4.7649 16.6309H6.34824L4.85199 25.2204H3.4349L3.52199 24.5713C3.33895 24.8184 3.10011 25.019 2.825 25.1566C2.5499 25.2941 2.24622 25.3648 1.93865 25.3629C1.58605 25.3642 1.24127 25.2594 0.94907 25.0621C0.656787 24.8666 0.426095 24.5921 0.28407 24.2704C0.106578 23.8578 0.0150615 23.4134 0.0149031 22.9642C-0.00496771 22.7377 -0.00496771 22.5099 0.0149031 22.2834V22.03C0.086549 21.4588 0.263724 20.9057 0.537403 20.3992C0.753845 19.9739 1.07882 19.6134 1.47949 19.3542C1.87318 19.121 2.32966 19.0159 2.78574 19.0534ZM1.59824 22.3071C1.57583 22.5441 1.57583 22.7827 1.59824 23.0196C1.59824 23.6767 1.89907 24.0092 2.3899 24.025C2.62083 24.0274 2.84867 23.9713 3.05213 23.8619C3.25567 23.7525 3.42818 23.5936 3.55365 23.3996L3.98115 21.0246C3.92415 20.8396 3.80817 20.6783 3.65095 20.5654C3.49372 20.4525 3.3038 20.394 3.11032 20.3992C2.92539 20.3891 2.74085 20.4242 2.57254 20.5014C2.40431 20.5787 2.25738 20.6958 2.14449 20.8425C1.83415 21.2728 1.64542 21.7787 1.59824 22.3071Z" fill="white"/>
<path d="M11.8896 19.0072V22.1738H8.72298V19.0072H11.8896ZM13.473 17.4238H7.13965V23.7572H13.473V17.4238Z" fill="white"/>
</svg>
