<svg width="7" height="7" viewBox="0 0 7 7" fill="none" xmlns="http://www.w3.org/2000/svg">
<path d="M6.70701 0.00022134H3.29493C2.85881 -0.00505519 2.4267 0.0840658 2.02826 0.261471C1.6552 0.428847 1.3189 0.668294 1.03868 0.966054C0.753972 1.2672 0.523618 1.61541 0.357842 1.99522C0.186306 2.39139 0.0716969 2.80985 0.0174253 3.23814V3.37272C-0.00580844 3.6361 -0.00580844 3.90101 0.0174253 4.16439C0.0314041 4.43261 0.0765694 4.69828 0.152009 4.95605C0.229616 5.19489 0.330373 5.42557 0.452843 5.6448C0.582714 5.85682 0.742721 6.04883 0.927843 6.21481C1.34516 6.55743 1.86831 6.74487 2.40826 6.74522H2.51909C2.90634 6.74594 3.28939 6.66502 3.64326 6.50772C4.01071 6.34511 4.34386 6.11406 4.62493 5.82689C4.90924 5.53272 5.14207 5.19284 5.31368 4.82147C5.49281 4.44469 5.60786 4.04068 5.65409 3.62605V3.48355C5.69631 3.03978 5.65877 2.59203 5.54326 2.16147C5.461 1.85874 5.33284 1.57039 5.16326 1.30647H6.50909L6.70701 0.00022134ZM2.44784 5.47064C2.30315 5.46648 2.16064 5.43421 2.02826 5.37564C1.91597 5.3199 1.81629 5.24177 1.73534 5.14605C1.65283 5.04594 1.58609 4.93381 1.53743 4.81355C1.48845 4.67175 1.45137 4.52611 1.42659 4.37814C1.4147 4.22003 1.4147 4.06125 1.42659 3.90314C1.41426 3.74769 1.41426 3.5915 1.42659 3.43605V3.30939C1.4587 3.03973 1.51975 2.77431 1.60868 2.51772C1.69808 2.27753 1.82066 2.05102 1.97284 1.8448C2.11699 1.65975 2.2975 1.50618 2.50326 1.39355C2.71698 1.27898 2.95768 1.22427 3.19993 1.23522C3.40869 1.23001 3.61375 1.29097 3.78576 1.40939C3.93333 1.52754 4.05013 1.67965 4.12618 1.85272C4.21402 2.05028 4.265 2.26224 4.27659 2.47814C4.29635 2.71258 4.29635 2.94828 4.27659 3.18272V3.35689C4.23875 3.62702 4.17241 3.89239 4.07868 4.14855C3.99264 4.40006 3.86992 4.63749 3.71451 4.85314C3.57287 5.05184 3.38904 5.21675 3.17618 5.33605C2.95104 5.44897 2.69847 5.49565 2.44784 5.47064Z" fill="white"/>
</svg>
