<svg width="22" height="8" viewBox="0 0 22 8" fill="none" xmlns="http://www.w3.org/2000/svg">
<path d="M3.15879 6.11331C3.15884 6.02593 3.13439 5.9403 3.08821 5.86613C3.04203 5.79196 2.97597 5.73223 2.89754 5.69372C2.62704 5.55142 2.33584 5.45258 2.03462 5.40081C0.744203 5.13164 0.0950364 4.60914 0.0950364 3.75414C0.0925412 3.51908 0.145763 3.28676 0.250342 3.07623C0.354921 2.86569 0.507885 2.68292 0.696703 2.54289C1.1514 2.201 1.71193 2.03004 2.28004 2.05997C2.87422 2.02702 3.46153 2.20042 3.94254 2.55081C4.13909 2.69733 4.29771 2.88878 4.40513 3.10914C4.51256 3.3295 4.56568 3.57238 4.56004 3.81747H3.10337C3.10684 3.72159 3.09111 3.62598 3.05713 3.53626C3.02314 3.44653 2.97157 3.3645 2.90545 3.29497C2.8196 3.22206 2.72007 3.167 2.61268 3.13302C2.50529 3.09903 2.39221 3.08681 2.28004 3.09706C2.07643 3.08399 1.87469 3.14283 1.71004 3.26331C1.64602 3.31243 1.59466 3.37613 1.56023 3.44912C1.52581 3.5221 1.50931 3.60225 1.51212 3.68289C1.51142 3.76138 1.53157 3.83866 1.57051 3.90681C1.60946 3.97497 1.6658 4.03156 1.73379 4.07081C1.98103 4.20197 2.2487 4.29031 2.52545 4.33206C2.83428 4.38904 3.13856 4.46842 3.43587 4.56956C3.76457 4.64924 4.05707 4.83683 4.2666 5.10233C4.47613 5.36783 4.5906 5.69592 4.5917 6.03414C4.59463 6.27246 4.53741 6.50767 4.42532 6.718C4.31324 6.92834 4.14991 7.10701 3.95045 7.23747C3.4646 7.56227 2.8876 7.72317 2.30379 7.69664C1.88673 7.7068 1.47275 7.62292 1.09254 7.45122C0.773553 7.30493 0.500024 7.07517 0.30087 6.78622C0.103365 6.52099 -0.00225274 6.19858 3.64419e-05 5.86789H1.36962C1.37269 5.98214 1.40047 6.09436 1.45103 6.19686C1.50159 6.29935 1.57375 6.38968 1.66254 6.46164C1.87046 6.60775 2.12123 6.68019 2.37504 6.66747C2.59494 6.68144 2.81368 6.62606 3.00045 6.50914C3.05491 6.45931 3.09743 6.39784 3.12484 6.32931C3.15225 6.26078 3.16386 6.18694 3.15879 6.11331ZM5.50212 0.753723C5.49856 0.654085 5.51572 0.554793 5.55251 0.462129C5.5893 0.369464 5.64493 0.285446 5.71587 0.21539C5.79489 0.140955 5.88838 0.0835684 5.99053 0.0467968C6.09267 0.0100252 6.20128 -0.00534472 6.30962 0.00164073C6.41796 -0.00534472 6.52657 0.0100252 6.62871 0.0467968C6.73086 0.0835684 6.82434 0.140955 6.90337 0.21539C6.97696 0.283824 7.03487 0.36737 7.07313 0.460292C7.11139 0.553215 7.1291 0.653314 7.12504 0.753723C7.12921 0.855319 7.11158 0.95663 7.07335 1.05085C7.03511 1.14507 6.97716 1.23001 6.90337 1.29997C6.73836 1.44077 6.52637 1.51426 6.30962 1.50581C6.09521 1.51463 5.88556 1.44097 5.72379 1.29997C5.65 1.23001 5.59204 1.14507 5.55381 1.05085C5.51558 0.95663 5.49795 0.855319 5.50212 0.753723ZM7.03795 7.60164H5.58129V2.15497H7.03795V7.60164ZM9.57129 2.15497L9.61879 2.78039C9.80588 2.54196 10.0471 2.35153 10.3224 2.22487C10.5978 2.09821 10.8993 2.03897 11.2021 2.05206C11.4416 2.03311 11.6822 2.06887 11.9057 2.15665C12.1293 2.24444 12.33 2.38193 12.4925 2.55872C12.807 3.00079 12.9607 3.5372 12.928 4.07872V7.59372H11.4475V4.11039C11.4698 3.86905 11.399 3.62832 11.2496 3.43747C11.0611 3.28301 10.8194 3.20906 10.5767 3.23164C10.3902 3.22493 10.2056 3.27026 10.0434 3.36254C9.88118 3.45481 9.74788 3.59041 9.65837 3.75414V7.59372H8.20962V2.15497H9.57129Z" fill="white"/>
<path d="M20.2432 2.94661V6.11328H17.0765V2.94661H20.2432ZM21.8265 1.36328H15.4932V7.69661H21.8265V1.36328Z" fill="white"/>
</svg>
