<svg width="14" height="12" viewBox="0 0 14 12" fill="none" xmlns="http://www.w3.org/2000/svg">
<path d="M13.6563 5.14829V4.24579H11.7008L12.3421 3.45413C12.6064 3.20599 12.8549 2.94158 13.0862 2.66246C13.2243 2.47681 13.3386 2.2747 13.4267 2.06079C13.4994 1.87677 13.537 1.68075 13.5375 1.48288C13.549 1.28004 13.5159 1.07716 13.4407 0.888436C13.3655 0.699715 13.2499 0.529725 13.1021 0.390377C12.7532 0.117312 12.3174 -0.0204568 11.875 0.0024607C11.56 -0.00332064 11.249 0.0730782 10.9725 0.224127C10.7088 0.368017 10.4897 0.581633 10.3392 0.841628C10.189 1.10443 10.1098 1.40184 10.1096 1.70454H11.2417C11.2336 1.50152 11.292 1.30141 11.4079 1.13454C11.4548 1.06407 11.5183 1.00625 11.5929 0.966198C11.6675 0.926151 11.7508 0.905118 11.8354 0.904961C11.9115 0.901796 11.9873 0.91581 12.0572 0.945962C12.1271 0.976115 12.1893 1.02163 12.2392 1.07913C12.3413 1.22466 12.3915 1.40034 12.3817 1.57788C12.3073 1.99675 12.099 2.38016 11.7879 2.67038L10.2046 4.38038V5.17204L13.6563 5.14829ZM6.33333 4.95038V9.70038H1.58333V4.95038H6.33333ZM7.91667 3.36704H0V11.2837H7.91667V3.36704Z" fill="white"/>
</svg>
