<svg width="16" height="29" viewBox="0 0 16 29" fill="none" xmlns="http://www.w3.org/2000/svg">
<path d="M6.68232 18.1219L9.56398 14.3615L9.57982 14.3377V14.1398L6.70607 10.3952H11.6065V8.70898H3.95898V9.9519L7.37898 14.2427L3.97482 18.5336L3.95898 18.5494V19.7923H11.8757V18.1219H6.68232Z" fill="white"/>
<path d="M9.5 1.58333V4.75H6.33333V1.58333H9.5ZM11.0833 0H4.75V6.33333H11.0833V0ZM14.25 23.75V26.9167H11.0833V23.75H14.25ZM15.8333 22.1667H9.5V28.5H15.8333V22.1667ZM4.75 23.75V26.9167H1.58333V23.75H4.75ZM6.33333 22.1667H0V28.5H6.33333V22.1667Z" fill="white"/>
</svg>
