<svg width="9" height="9" viewBox="0 0 9 9" fill="none" xmlns="http://www.w3.org/2000/svg">
<path d="M5.31768 3.56172C5.25017 3.44769 5.14734 3.35875 5.02476 3.30839H4.96935L4.91393 3.26881C4.75657 3.1833 4.57795 3.14483 4.39935 3.15797C4.21147 3.13178 4.02044 3.17392 3.86101 3.27672C3.73324 3.34671 3.61816 3.43771 3.5206 3.54589C3.40739 3.61583 3.32096 3.72178 3.27518 3.84673C3.27811 3.86773 3.27811 3.88905 3.27518 3.91006L3.22768 3.98923C3.12853 4.29272 3.12853 4.61989 3.22768 4.92339C3.34596 5.1913 3.55672 5.40769 3.82143 5.53297C3.97879 5.61848 4.15741 5.65695 4.33601 5.64381C4.52623 5.66593 4.7184 5.62416 4.88226 5.52506C5.00717 5.45082 5.12164 5.36031 5.22268 5.25589C5.33213 5.18376 5.41542 5.07826 5.46018 4.95506C5.45725 4.93405 5.45725 4.91273 5.46018 4.89172L5.49976 4.83631C5.58004 4.67443 5.61557 4.49404 5.60268 4.31381V3.96547C5.53904 3.81129 5.44165 3.67332 5.31768 3.56172Z" fill="white"/>
<path d="M8.55568 3.18904C8.45244 2.82844 8.30904 2.48057 8.12817 2.15196C7.9445 1.82129 7.70933 1.52199 7.43151 1.26529C6.9045 0.724823 6.24332 0.334126 5.51567 0.13321C4.73397 -0.0444034 3.92238 -0.0444034 3.14067 0.13321C2.43794 0.365582 1.79476 0.749329 1.25651 1.25738C0.976166 1.51375 0.73834 1.81303 0.551924 2.14404C0.373762 2.4767 0.230499 2.8269 0.124423 3.18904C-0.0414744 3.95868 -0.0414744 4.75483 0.124423 5.52446C0.232527 5.88335 0.375719 6.23072 0.551924 6.56154C0.736361 6.89155 0.97448 7.18853 1.25651 7.44029C1.50612 7.72457 1.80352 7.96302 2.13526 8.14488C2.46559 8.32418 2.81301 8.47005 3.17234 8.58029C3.56453 8.66886 3.96572 8.71137 4.36776 8.70696C4.75897 8.7044 5.1489 8.66196 5.53151 8.58029C5.89156 8.47204 6.23918 8.3261 6.56859 8.14488C6.89893 7.96094 7.19599 7.72275 7.44734 7.44029C7.72591 7.18731 7.96124 6.89048 8.14401 6.56154C8.32271 6.23191 8.46601 5.88427 8.57151 5.52446C8.67971 5.15654 8.73828 4.77581 8.74568 4.39238C8.71877 3.98636 8.65518 3.5836 8.55568 3.18904ZM7.39984 4.39238C7.42129 4.76114 7.31812 5.12641 7.10692 5.42946V5.47696C6.8071 6.20303 6.24048 6.78664 5.52359 7.10779C5.1536 7.25694 4.75876 7.33483 4.35984 7.33738C4.09389 7.35247 3.82716 7.32847 3.56817 7.26613C3.07252 7.10728 2.62013 6.83639 2.24609 6.47446C2.07237 6.27725 1.91609 6.06535 1.77901 5.84113C1.64423 5.62437 1.54031 5.3899 1.47026 5.14446C1.4042 4.8861 1.38014 4.6188 1.39901 4.35279C1.4013 3.95308 1.48199 3.55769 1.63651 3.18904C1.78642 2.8238 2.00694 2.49174 2.28544 2.21189C2.56393 1.93204 2.89492 1.7099 3.25942 1.55821C3.61276 1.39929 3.99617 1.31829 4.38359 1.32071C4.79102 1.32275 5.19422 1.40339 5.57109 1.55821C6.11804 1.79361 6.58454 2.18329 6.91354 2.67961C7.24254 3.17592 7.41978 3.75735 7.42359 4.35279L7.39984 4.39238Z" fill="white"/>
</svg>
