<svg width="23" height="7" viewBox="0 0 23 7" fill="none" xmlns="http://www.w3.org/2000/svg">
<path d="M2.29583 0V1.33H3.23V2.39083H2.29583V5.10625C2.28207 5.26092 2.3242 5.4154 2.41458 5.54167C2.47558 5.59249 2.54653 5.63002 2.62287 5.65183C2.69921 5.67364 2.77927 5.67926 2.85792 5.66833C2.99746 5.68165 3.13796 5.68165 3.2775 5.66833V6.76875C2.9839 6.85003 2.67936 6.88476 2.375 6.87167C2.16312 6.90399 1.94663 6.88671 1.74255 6.82118C1.53848 6.75566 1.35239 6.64368 1.19893 6.49405C1.04547 6.34442 0.928815 6.16123 0.858146 5.95888C0.787477 5.75653 0.764721 5.54055 0.791667 5.32792V2.39875H0V1.33H0.791667V0H2.29583ZM7.18833 6.77667C7.1126 6.62202 7.06183 6.45636 7.03792 6.28583C6.86646 6.47782 6.65492 6.6298 6.41826 6.73103C6.1816 6.83226 5.92559 6.88027 5.66833 6.87167C5.18562 6.89003 4.71366 6.72612 4.34625 6.4125C4.18122 6.27513 4.04823 6.10332 3.95661 5.90913C3.86498 5.71494 3.81693 5.50305 3.81583 5.28833C3.80662 5.03123 3.8602 4.77575 3.97193 4.54401C4.08367 4.31227 4.25019 4.11124 4.45708 3.95833C5.01393 3.59696 5.67027 3.41972 6.33333 3.45167H7.00625V3.14292C7.01859 2.92215 6.948 2.70474 6.80833 2.53333C6.72814 2.45544 6.63235 2.39541 6.52729 2.3572C6.42222 2.319 6.31025 2.30348 6.19875 2.31167C5.99151 2.29897 5.78655 2.36074 5.62083 2.48583C5.55272 2.54591 5.49888 2.62045 5.46327 2.704C5.42766 2.78755 5.41117 2.87801 5.415 2.96875H3.95833C3.95662 2.65528 4.05662 2.34972 4.24333 2.09792C4.45754 1.81502 4.74498 1.59602 5.07458 1.46458C5.45325 1.3074 5.86005 1.22927 6.27 1.235C6.84158 1.20763 7.40383 1.38755 7.85333 1.74167C8.05361 1.91712 8.21119 2.13597 8.31409 2.38154C8.41698 2.62712 8.46247 2.89294 8.44708 3.15875V5.53375C8.42512 5.93569 8.49836 6.33713 8.66083 6.70542V6.7925L7.18833 6.77667ZM5.985 5.76333C6.19158 5.76496 6.39541 5.71604 6.57875 5.62083C6.75074 5.53715 6.89201 5.40142 6.9825 5.23292V4.29875H6.43625C5.70792 4.29875 5.32 4.55208 5.28042 5.05083V5.13792C5.27818 5.22232 5.29397 5.30622 5.32674 5.38404C5.3595 5.46185 5.40848 5.53178 5.47042 5.58917C5.61603 5.7061 5.7983 5.76779 5.985 5.76333ZM10.8854 1.33L10.9329 1.95542C11.12 1.71699 11.3612 1.52655 11.6366 1.3999C11.9119 1.27324 12.2135 1.214 12.5162 1.22708C12.7544 1.20936 12.9935 1.24572 13.2156 1.33347C13.4377 1.42121 13.637 1.55805 13.7988 1.73375C14.1206 2.17591 14.28 2.7156 14.25 3.26167V6.77667H12.7617V3.29333C12.7839 3.05199 12.7131 2.81126 12.5638 2.62042C12.3753 2.46595 12.1335 2.392 11.8908 2.41458C11.7044 2.40788 11.5197 2.4532 11.3575 2.54548C11.1953 2.63776 11.062 2.77335 10.9725 2.93708V6.77667H9.5V1.33H10.8854Z" fill="white"/>
<path d="M21.375 2.1224V5.28906H18.2083V2.1224H21.375ZM22.9583 0.539062H16.625V6.8724H22.9583V0.539062Z" fill="white"/>
</svg>
