<svg width="7" height="8" viewBox="0 0 7 8" fill="none" xmlns="http://www.w3.org/2000/svg">
<path d="M3.8 1.33H6.11958L6.365 0H0.253333L0 1.33H2.21667L1.5675 5.0825C1.54374 5.31676 1.54374 5.55282 1.5675 5.78708C1.58888 6.0207 1.659 6.24724 1.77333 6.45208C1.89227 6.65022 2.05811 6.81606 2.25625 6.935C2.50077 7.06174 2.77251 7.12696 3.04792 7.125C3.46581 7.12613 3.8762 7.01396 4.23542 6.80042L4.37 6.72125L4.085 5.53375L3.86333 5.61292C3.77267 5.64933 3.68018 5.68103 3.58625 5.70792C3.50317 5.72937 3.416 5.72937 3.33292 5.70792C3.28457 5.72689 3.23084 5.72689 3.1825 5.70792C3.15309 5.68594 3.13101 5.65558 3.11917 5.62083C3.10722 5.56073 3.10722 5.49886 3.11917 5.43875C3.11494 5.35964 3.11494 5.28036 3.11917 5.20125L3.8 1.33Z" fill="white"/>
</svg>
