<svg xmlns="http://www.w3.org/2000/svg" class="sc-8848da46-1 iPkfYx _gHdu" viewBox="0 0 20 20"><path class="mainColor" d="M4.84,10c0-.18-.09-.35-.14-.52H4.47l-.09.31c-.06.2-.11.4-.16.56a.75.75,0,0,1-.06.13H5C4.93,10.34,4.89,10.18,4.84,10Z" fill="#777"/><path class="mainColor" d="M7.81,9.5c0,.11.05.21.08.32s.13.46.19.68h.23c.06-.19.11-.39.16-.58s.08-.28.11-.42Z" fill="#777"/><path class="mainColor" d="M11.92,9.5h-.23l-.15.55-.12.45h.79C12.12,10.17,12,9.83,11.92,9.5Z" fill="#777"/><path class="mainColor" d="M9.5,14.89V18h1V13.33A4.77,4.77,0,0,1,9.5,14.89Z" fill="#777"/><path class="mainColor" d="M1.31,9.8l0-.07,0-.07s0-.11,0-.16H1v1h.39A1.5,1.5,0,0,1,1.31,9.8Z" fill="#777"/><path class="mainColor" d="M18.62,9.5a1.41,1.41,0,0,1,0,.91l0,.09H19v-1Z" fill="#777"/><path class="mainColor" d="M10.5,5.12V2h-1V6.69A4.82,4.82,0,0,1,10.5,5.12Z" fill="#777"/><path class="mainColor" d="M15,9.5c0,.17.09.33.13.5l.14.5h.23c0-.1.06-.2.08-.3l.17-.58.06-.12Z" fill="#777"/><path class="mainColor" d="M16.8,13.64c-.33.84-1.36,1.51-2.16.83a4,4,0,0,1-1-1.68C13,11,12.6,8.86,11.8,7.06c-1,1.67-1.52,7.53-3.54,7.69S5.58,8.69,4.59,7.06a24.1,24.1,0,0,0-1,3.14A.79.79,0,0,1,2,9.9C2.5,8.58,3,4.77,5,5.32c1.81.89,2.18,5.76,3.22,7.62,1-1.69,1.5-7.41,3.49-7.68,2.18-.2,2.73,6.07,3.72,7.68A24.1,24.1,0,0,0,16.46,9.8c.25-.94,1.8-.54,1.51.41A23.11,23.11,0,0,1,16.8,13.64Z" fill="#777"/></svg>