<svg width="33" height="16" viewBox="0 0 33 16" fill="none" xmlns="http://www.w3.org/2000/svg">
<path d="M12.9992 13.2901C13.026 13.6349 12.9816 13.9816 12.8685 14.3085C12.7555 14.6354 12.5763 14.9355 12.3421 15.1901C12.0843 15.419 11.7836 15.5943 11.4574 15.7057C11.1312 15.8172 10.786 15.8626 10.4421 15.8392C10.1233 15.8384 9.80624 15.7931 9.5 15.7047L9.63458 14.3588C9.82422 14.4187 10.0216 14.4507 10.2204 14.4538C10.896 14.4538 11.2364 14.0817 11.2417 13.3376V2.66591C11.2179 2.30845 11.2674 1.9499 11.3872 1.61227C11.507 1.27464 11.6945 0.965075 11.9383 0.702574C12.2069 0.458257 12.522 0.270633 12.8648 0.150929C13.2076 0.0312252 13.571 -0.0180994 13.9333 0.0059074C14.3073 0.0134428 14.6792 0.0639122 15.0417 0.156324L14.8596 1.47049C14.639 1.41844 14.4133 1.39188 14.1867 1.39132C13.395 1.39132 12.9992 1.82674 12.9992 2.70549V13.2901ZM8.24917 13.2901C8.27604 13.6349 8.23157 13.9816 8.11852 14.3085C8.00546 14.6354 7.82626 14.9355 7.59208 15.1901C7.33433 15.419 7.03358 15.5943 6.70737 15.7057C6.38116 15.8172 6.03602 15.8626 5.69208 15.8392C5.37333 15.8384 5.05624 15.7931 4.75 15.7047L4.88458 14.3588C5.07422 14.4187 5.27157 14.4507 5.47042 14.4538C6.14069 14.4538 6.48111 14.0817 6.49167 13.3376V2.66591C6.46785 2.30845 6.51737 1.9499 6.63717 1.61227C6.75698 1.27464 6.94454 0.965075 7.18833 0.702574C7.45693 0.458257 7.77205 0.270633 8.11484 0.150929C8.45762 0.0312252 8.82104 -0.0180994 9.18333 0.0059074C9.55732 0.0134428 9.9292 0.0639122 10.2917 0.156324L10.1096 1.47049C9.88905 1.41844 9.66326 1.39188 9.43667 1.39132C8.645 1.39132 8.24917 1.82674 8.24917 2.70549V13.2901ZM3.49917 13.2901C3.52604 13.6349 3.48157 13.9816 3.36852 14.3085C3.25546 14.6354 3.07626 14.9355 2.84208 15.1901C2.58433 15.419 2.28358 15.5943 1.95737 15.7057C1.63116 15.8172 1.28602 15.8626 0.942083 15.8392C0.623326 15.8384 0.306243 15.7931 0 15.7047L0.134583 14.3588C0.324221 14.4187 0.521565 14.4507 0.720417 14.4538C1.39069 14.4538 1.73111 14.0817 1.74167 13.3376V2.66591C1.71785 2.30845 1.76737 1.9499 1.88717 1.61227C2.00698 1.27464 2.19454 0.965075 2.43833 0.702574C2.70693 0.458257 3.02205 0.270633 3.36484 0.150929C3.70762 0.0312252 4.07104 -0.0180994 4.43333 0.0059074C4.80732 0.0134428 5.1792 0.0639122 5.54167 0.156324L5.35958 1.47049C5.13905 1.41844 4.91326 1.39188 4.68667 1.39132C3.895 1.39132 3.49917 1.82674 3.49917 2.70549V13.2901Z" fill="white"/>
<path d="M18.2077 7.13021V8.71354H16.6243V7.13021H18.2077ZM19.791 5.54688H15.041V10.2969H19.791V5.54688ZM24.541 7.13021V8.71354H22.9577V7.13021H24.541ZM26.1244 5.54688H21.3743V10.2969H26.1244V5.54688ZM30.8744 7.13021V8.71354H29.291V7.13021H30.8744ZM32.4577 5.54688H27.7077V10.2969H32.4577V5.54688Z" fill="white"/>
</svg>
