<svg width="6" height="12" viewBox="0 0 6 12" fill="none" xmlns="http://www.w3.org/2000/svg">
<path d="M5.77429 0.255055C5.28293 0.0959502 4.77069 0.0105777 4.25429 0.00172158C4.02136 -0.00505605 3.78828 0.00818647 3.55762 0.0413043C3.32223 0.0754304 3.08946 0.125688 2.86095 0.191721C2.63515 0.26365 2.41756 0.359178 2.21179 0.476722C2.00702 0.594351 1.82036 0.741011 1.65762 0.912138C1.49106 1.08466 1.35697 1.28579 1.26179 1.50589C1.15691 1.75726 1.09792 2.02538 1.08762 2.29755C1.07732 2.50385 1.10413 2.71032 1.16679 2.90714C1.222 3.07144 1.3021 3.2263 1.40429 3.3663C1.51449 3.52035 1.64497 3.65882 1.7922 3.77797L1.91095 3.85714C1.75262 3.92839 1.61012 3.99964 1.46762 4.0788C1.20673 4.22135 0.969138 4.40289 0.763037 4.61714C0.553123 4.82864 0.381669 5.07511 0.256369 5.34547C0.116624 5.63824 0.0359213 5.95567 0.01887 6.27964C-0.02481 6.64385 0.00753886 7.01315 0.113871 7.36422C0.206314 7.65718 0.36015 7.92707 0.56512 8.15589C0.78052 8.39056 1.03498 8.58609 1.3172 8.7338C1.62384 8.8862 1.94468 9.00817 2.27512 9.09797L2.56012 9.17714L2.79762 9.24839C2.86419 9.2624 2.92825 9.28642 2.98762 9.31964C3.02626 9.33999 3.05899 9.36999 3.08262 9.40672C3.0953 9.44258 3.0953 9.4817 3.08262 9.51755C3.06999 9.61178 3.04049 9.70296 2.99554 9.78672C2.95157 9.87885 2.89853 9.96637 2.8372 10.048L2.63137 10.2855C2.54429 10.3646 2.46512 10.4517 2.38595 10.5388L2.25929 10.6892L3.09845 11.4413L3.23304 11.3384C3.37753 11.2255 3.51501 11.1039 3.6447 10.9742C3.78893 10.8379 3.92134 10.6896 4.04054 10.5309C4.16041 10.3716 4.26137 10.1989 4.34137 10.0163C4.42651 9.82894 4.47745 9.62786 4.49179 9.42255C4.51042 9.21389 4.47498 9.00395 4.38887 8.81297C4.3036 8.65001 4.18165 8.50909 4.03262 8.4013C3.88986 8.29893 3.73236 8.21885 3.56554 8.1638C3.4072 8.10047 3.24095 8.05297 3.0747 7.99755L2.49679 7.83922C2.32468 7.78874 2.16167 7.71125 2.01387 7.60964C1.8796 7.52274 1.76168 7.41287 1.66554 7.28505C1.57843 7.15436 1.51418 7.00979 1.47554 6.85755C1.44384 6.67951 1.44384 6.49727 1.47554 6.31922C1.50079 6.0388 1.59017 5.76793 1.73679 5.52755C1.86562 5.31167 2.04152 5.12766 2.25137 4.98922C2.46762 4.84119 2.70908 4.73387 2.96387 4.67255C3.24561 4.59982 3.53584 4.5652 3.82679 4.56964H4.72137L4.95095 3.27922H3.85845C3.67252 3.27606 3.48716 3.25752 3.30429 3.2238C3.1431 3.18998 2.98819 3.13122 2.84512 3.04964C2.72924 2.97055 2.63418 2.86462 2.56804 2.74089C2.50204 2.58886 2.48543 2.41995 2.52054 2.25797C2.53748 2.0896 2.60355 1.92992 2.71054 1.79881C2.82949 1.67014 2.97189 1.56535 3.13012 1.49005C3.30095 1.40984 3.48214 1.35389 3.66845 1.3238C4.05005 1.24849 4.44269 1.24849 4.82429 1.3238C5.02501 1.36545 5.22323 1.41831 5.41804 1.48214L5.60804 1.53756L5.95637 0.286722L5.77429 0.255055Z" fill="white"/>
</svg>
