<svg width="7" height="12" viewBox="0 0 7 12" fill="none" xmlns="http://www.w3.org/2000/svg">
<path d="M1.86184 5.70792C1.98371 5.43033 2.13218 5.16521 2.30517 4.91625C2.48785 4.67146 2.68618 4.43875 2.89892 4.21958L3.57976 3.53875L6.16059 1.03708L6.35851 0H0.753509L0.508093 1.30625H4.03101L2.40018 2.8025C2.15476 3.03208 1.89351 3.29333 1.60851 3.59417C1.34844 3.87575 1.10775 4.17463 0.888092 4.48875C0.67243 4.80171 0.484361 5.13282 0.326008 5.47833C0.168905 5.81052 0.0672827 6.16621 0.0251754 6.53125C-0.0168085 6.78982 -0.00619677 7.0542 0.0563762 7.30858C0.118949 7.56295 0.232196 7.80208 0.389341 8.01167C0.755845 8.41134 1.237 8.68787 1.76684 8.80333L2.27351 8.94584L2.50309 9.01709C2.57491 9.03784 2.64401 9.06708 2.70892 9.10417C2.75095 9.12937 2.78842 9.16149 2.81976 9.19917C2.8268 9.22777 2.8268 9.25765 2.81976 9.28625C2.80906 9.37231 2.7822 9.45558 2.74059 9.53167C2.69181 9.62459 2.63344 9.71215 2.56642 9.79292C2.50174 9.88022 2.43027 9.96228 2.35268 10.0383L1.96476 10.4263L2.82768 11.2179L2.97017 11.1229C3.12756 11.0076 3.27822 10.8834 3.42143 10.7508C3.578 10.6144 3.72115 10.4633 3.84893 10.2996C3.97961 10.1373 4.09366 9.96221 4.18934 9.77708C4.27969 9.58835 4.33342 9.38418 4.34767 9.17542C4.37493 8.97221 4.34403 8.76545 4.25856 8.57909C4.17308 8.39273 4.03654 8.23442 3.86476 8.1225C3.70994 8.02128 3.54217 7.9414 3.36601 7.885L2.12309 7.48917C2.02533 7.46927 1.9333 7.42763 1.85381 7.36733C1.77433 7.30703 1.70943 7.22962 1.66393 7.14083C1.58677 6.93626 1.5676 6.71436 1.60851 6.49958C1.65243 6.2244 1.73785 5.95748 1.86184 5.70792Z" fill="white"/>
</svg>
